<?xml version="1.0" encoding="utf-8" standalone="no"?>
<!DOCTYPE svg PUBLIC "-//W3C//DTD SVG 1.1//EN"
  "http://www.w3.org/Graphics/SVG/1.1/DTD/svg11.dtd">
<svg xmlns:xlink="http://www.w3.org/1999/xlink" width="1168.678125pt" height="381.210919pt" viewBox="0 0 1168.678125 381.210919" xmlns="http://www.w3.org/2000/svg" version="1.1">
 <metadata>
  <rdf:RDF xmlns:dc="http://purl.org/dc/elements/1.1/" xmlns:cc="http://creativecommons.org/ns#" xmlns:rdf="http://www.w3.org/1999/02/22-rdf-syntax-ns#">
   <cc:Work>
    <dc:type rdf:resource="http://purl.org/dc/dcmitype/StillImage"/>
    <dc:date>2023-02-09T10:35:13.175898</dc:date>
    <dc:format>image/svg+xml</dc:format>
    <dc:creator>
     <cc:Agent>
      <dc:title>Matplotlib v3.5.2, https://matplotlib.org/</dc:title>
     </cc:Agent>
    </dc:creator>
   </cc:Work>
  </rdf:RDF>
 </metadata>
 <defs>
  <style type="text/css">*{stroke-linejoin: round; stroke-linecap: butt}</style>
 </defs>
 <g id="figure_1">
  <g id="patch_1">
   <path d="M 0 381.210919 
L 1168.678125 381.210919 
L 1168.678125 0 
L 0 0 
z
" style="fill: #ffffff"/>
  </g>
  <g id="axes_1">
   <g id="patch_2">
    <path d="M 45.478125 294.118125 
L 1161.478125 294.118125 
L 1161.478125 22.318125 
L 45.478125 22.318125 
z
" style="fill: #ffffff"/>
   </g>
   <g id="matplotlib.axis_1">
    <g id="xtick_1">
     <g id="line2d_1">
      <defs>
       <path id="m2d55427c0f" d="M 0 0 
L 0 3.5 
" style="stroke: #000000; stroke-width: 0.8"/>
      </defs>
      <g>
       <use xlink:href="#m2d55427c0f" x="231.478125" y="294.118125" style="stroke: #000000; stroke-width: 0.8"/>
      </g>
     </g>
     <g id="text_1">
      <!-- 01 Norm-Norm -->
      <g transform="translate(207.243697 358.862233)rotate(-45)scale(0.1 -0.1)">
       <defs>
        <path id="DejaVuSans-30" d="M 2034 4250 
Q 1547 4250 1301 3770 
Q 1056 3291 1056 2328 
Q 1056 1369 1301 889 
Q 1547 409 2034 409 
Q 2525 409 2770 889 
Q 3016 1369 3016 2328 
Q 3016 3291 2770 3770 
Q 2525 4250 2034 4250 
z
M 2034 4750 
Q 2819 4750 3233 4129 
Q 3647 3509 3647 2328 
Q 3647 1150 3233 529 
Q 2819 -91 2034 -91 
Q 1250 -91 836 529 
Q 422 1150 422 2328 
Q 422 3509 836 4129 
Q 1250 4750 2034 4750 
z
" transform="scale(0.015625)"/>
        <path id="DejaVuSans-31" d="M 794 531 
L 1825 531 
L 1825 4091 
L 703 3866 
L 703 4441 
L 1819 4666 
L 2450 4666 
L 2450 531 
L 3481 531 
L 3481 0 
L 794 0 
L 794 531 
z
" transform="scale(0.015625)"/>
        <path id="DejaVuSans-20" transform="scale(0.015625)"/>
        <path id="DejaVuSans-4e" d="M 628 4666 
L 1478 4666 
L 3547 763 
L 3547 4666 
L 4159 4666 
L 4159 0 
L 3309 0 
L 1241 3903 
L 1241 0 
L 628 0 
L 628 4666 
z
" transform="scale(0.015625)"/>
        <path id="DejaVuSans-6f" d="M 1959 3097 
Q 1497 3097 1228 2736 
Q 959 2375 959 1747 
Q 959 1119 1226 758 
Q 1494 397 1959 397 
Q 2419 397 2687 759 
Q 2956 1122 2956 1747 
Q 2956 2369 2687 2733 
Q 2419 3097 1959 3097 
z
M 1959 3584 
Q 2709 3584 3137 3096 
Q 3566 2609 3566 1747 
Q 3566 888 3137 398 
Q 2709 -91 1959 -91 
Q 1206 -91 779 398 
Q 353 888 353 1747 
Q 353 2609 779 3096 
Q 1206 3584 1959 3584 
z
" transform="scale(0.015625)"/>
        <path id="DejaVuSans-72" d="M 2631 2963 
Q 2534 3019 2420 3045 
Q 2306 3072 2169 3072 
Q 1681 3072 1420 2755 
Q 1159 2438 1159 1844 
L 1159 0 
L 581 0 
L 581 3500 
L 1159 3500 
L 1159 2956 
Q 1341 3275 1631 3429 
Q 1922 3584 2338 3584 
Q 2397 3584 2469 3576 
Q 2541 3569 2628 3553 
L 2631 2963 
z
" transform="scale(0.015625)"/>
        <path id="DejaVuSans-6d" d="M 3328 2828 
Q 3544 3216 3844 3400 
Q 4144 3584 4550 3584 
Q 5097 3584 5394 3201 
Q 5691 2819 5691 2113 
L 5691 0 
L 5113 0 
L 5113 2094 
Q 5113 2597 4934 2840 
Q 4756 3084 4391 3084 
Q 3944 3084 3684 2787 
Q 3425 2491 3425 1978 
L 3425 0 
L 2847 0 
L 2847 2094 
Q 2847 2600 2669 2842 
Q 2491 3084 2119 3084 
Q 1678 3084 1418 2786 
Q 1159 2488 1159 1978 
L 1159 0 
L 581 0 
L 581 3500 
L 1159 3500 
L 1159 2956 
Q 1356 3278 1631 3431 
Q 1906 3584 2284 3584 
Q 2666 3584 2933 3390 
Q 3200 3197 3328 2828 
z
" transform="scale(0.015625)"/>
        <path id="DejaVuSans-2d" d="M 313 2009 
L 1997 2009 
L 1997 1497 
L 313 1497 
L 313 2009 
z
" transform="scale(0.015625)"/>
       </defs>
       <use xlink:href="#DejaVuSans-30"/>
       <use xlink:href="#DejaVuSans-31" x="63.623047"/>
       <use xlink:href="#DejaVuSans-20" x="127.246094"/>
       <use xlink:href="#DejaVuSans-4e" x="159.033203"/>
       <use xlink:href="#DejaVuSans-6f" x="233.837891"/>
       <use xlink:href="#DejaVuSans-72" x="295.019531"/>
       <use xlink:href="#DejaVuSans-6d" x="334.382812"/>
       <use xlink:href="#DejaVuSans-2d" x="431.794922"/>
       <use xlink:href="#DejaVuSans-4e" x="467.878906"/>
       <use xlink:href="#DejaVuSans-6f" x="542.683594"/>
       <use xlink:href="#DejaVuSans-72" x="603.865234"/>
       <use xlink:href="#DejaVuSans-6d" x="643.228516"/>
      </g>
     </g>
    </g>
    <g id="xtick_2">
     <g id="line2d_2">
      <g>
       <use xlink:href="#m2d55427c0f" x="417.478125" y="294.118125" style="stroke: #000000; stroke-width: 0.8"/>
      </g>
     </g>
     <g id="text_2">
      <!-- 08 Norm-TorE -->
      <g transform="translate(395.800883 353.747862)rotate(-45)scale(0.1 -0.1)">
       <defs>
        <path id="DejaVuSans-38" d="M 2034 2216 
Q 1584 2216 1326 1975 
Q 1069 1734 1069 1313 
Q 1069 891 1326 650 
Q 1584 409 2034 409 
Q 2484 409 2743 651 
Q 3003 894 3003 1313 
Q 3003 1734 2745 1975 
Q 2488 2216 2034 2216 
z
M 1403 2484 
Q 997 2584 770 2862 
Q 544 3141 544 3541 
Q 544 4100 942 4425 
Q 1341 4750 2034 4750 
Q 2731 4750 3128 4425 
Q 3525 4100 3525 3541 
Q 3525 3141 3298 2862 
Q 3072 2584 2669 2484 
Q 3125 2378 3379 2068 
Q 3634 1759 3634 1313 
Q 3634 634 3220 271 
Q 2806 -91 2034 -91 
Q 1263 -91 848 271 
Q 434 634 434 1313 
Q 434 1759 690 2068 
Q 947 2378 1403 2484 
z
M 1172 3481 
Q 1172 3119 1398 2916 
Q 1625 2713 2034 2713 
Q 2441 2713 2670 2916 
Q 2900 3119 2900 3481 
Q 2900 3844 2670 4047 
Q 2441 4250 2034 4250 
Q 1625 4250 1398 4047 
Q 1172 3844 1172 3481 
z
" transform="scale(0.015625)"/>
        <path id="DejaVuSans-54" d="M -19 4666 
L 3928 4666 
L 3928 4134 
L 2272 4134 
L 2272 0 
L 1638 0 
L 1638 4134 
L -19 4134 
L -19 4666 
z
" transform="scale(0.015625)"/>
        <path id="DejaVuSans-45" d="M 628 4666 
L 3578 4666 
L 3578 4134 
L 1259 4134 
L 1259 2753 
L 3481 2753 
L 3481 2222 
L 1259 2222 
L 1259 531 
L 3634 531 
L 3634 0 
L 628 0 
L 628 4666 
z
" transform="scale(0.015625)"/>
       </defs>
       <use xlink:href="#DejaVuSans-30"/>
       <use xlink:href="#DejaVuSans-38" x="63.623047"/>
       <use xlink:href="#DejaVuSans-20" x="127.246094"/>
       <use xlink:href="#DejaVuSans-4e" x="159.033203"/>
       <use xlink:href="#DejaVuSans-6f" x="233.837891"/>
       <use xlink:href="#DejaVuSans-72" x="295.019531"/>
       <use xlink:href="#DejaVuSans-6d" x="334.382812"/>
       <use xlink:href="#DejaVuSans-2d" x="431.794922"/>
       <use xlink:href="#DejaVuSans-54" x="458.753906"/>
       <use xlink:href="#DejaVuSans-6f" x="502.837891"/>
       <use xlink:href="#DejaVuSans-72" x="564.019531"/>
       <use xlink:href="#DejaVuSans-45" x="605.132812"/>
      </g>
     </g>
    </g>
    <g id="xtick_3">
     <g id="line2d_3">
      <g>
       <use xlink:href="#m2d55427c0f" x="603.478125" y="294.118125" style="stroke: #000000; stroke-width: 0.8"/>
      </g>
     </g>
     <g id="text_3">
      <!-- 09 TorE-Norm -->
      <g transform="translate(581.478265 354.393097)rotate(-45)scale(0.1 -0.1)">
       <defs>
        <path id="DejaVuSans-39" d="M 703 97 
L 703 672 
Q 941 559 1184 500 
Q 1428 441 1663 441 
Q 2288 441 2617 861 
Q 2947 1281 2994 2138 
Q 2813 1869 2534 1725 
Q 2256 1581 1919 1581 
Q 1219 1581 811 2004 
Q 403 2428 403 3163 
Q 403 3881 828 4315 
Q 1253 4750 1959 4750 
Q 2769 4750 3195 4129 
Q 3622 3509 3622 2328 
Q 3622 1225 3098 567 
Q 2575 -91 1691 -91 
Q 1453 -91 1209 -44 
Q 966 3 703 97 
z
M 1959 2075 
Q 2384 2075 2632 2365 
Q 2881 2656 2881 3163 
Q 2881 3666 2632 3958 
Q 2384 4250 1959 4250 
Q 1534 4250 1286 3958 
Q 1038 3666 1038 3163 
Q 1038 2656 1286 2365 
Q 1534 2075 1959 2075 
z
" transform="scale(0.015625)"/>
       </defs>
       <use xlink:href="#DejaVuSans-30"/>
       <use xlink:href="#DejaVuSans-39" x="63.623047"/>
       <use xlink:href="#DejaVuSans-20" x="127.246094"/>
       <use xlink:href="#DejaVuSans-54" x="159.033203"/>
       <use xlink:href="#DejaVuSans-6f" x="203.117188"/>
       <use xlink:href="#DejaVuSans-72" x="264.298828"/>
       <use xlink:href="#DejaVuSans-45" x="305.412109"/>
       <use xlink:href="#DejaVuSans-2d" x="368.595703"/>
       <use xlink:href="#DejaVuSans-4e" x="404.679688"/>
       <use xlink:href="#DejaVuSans-6f" x="479.484375"/>
       <use xlink:href="#DejaVuSans-72" x="540.666016"/>
       <use xlink:href="#DejaVuSans-6d" x="580.029297"/>
      </g>
     </g>
    </g>
    <g id="xtick_4">
     <g id="line2d_4">
      <g>
       <use xlink:href="#m2d55427c0f" x="789.478125" y="294.118125" style="stroke: #000000; stroke-width: 0.8"/>
      </g>
     </g>
     <g id="text_4">
      <!-- 10 Norm-TorS -->
      <g transform="translate(767.790387 353.768854)rotate(-45)scale(0.1 -0.1)">
       <defs>
        <path id="DejaVuSans-53" d="M 3425 4513 
L 3425 3897 
Q 3066 4069 2747 4153 
Q 2428 4238 2131 4238 
Q 1616 4238 1336 4038 
Q 1056 3838 1056 3469 
Q 1056 3159 1242 3001 
Q 1428 2844 1947 2747 
L 2328 2669 
Q 3034 2534 3370 2195 
Q 3706 1856 3706 1288 
Q 3706 609 3251 259 
Q 2797 -91 1919 -91 
Q 1588 -91 1214 -16 
Q 841 59 441 206 
L 441 856 
Q 825 641 1194 531 
Q 1563 422 1919 422 
Q 2459 422 2753 634 
Q 3047 847 3047 1241 
Q 3047 1584 2836 1778 
Q 2625 1972 2144 2069 
L 1759 2144 
Q 1053 2284 737 2584 
Q 422 2884 422 3419 
Q 422 4038 858 4394 
Q 1294 4750 2059 4750 
Q 2388 4750 2728 4690 
Q 3069 4631 3425 4513 
z
" transform="scale(0.015625)"/>
       </defs>
       <use xlink:href="#DejaVuSans-31"/>
       <use xlink:href="#DejaVuSans-30" x="63.623047"/>
       <use xlink:href="#DejaVuSans-20" x="127.246094"/>
       <use xlink:href="#DejaVuSans-4e" x="159.033203"/>
       <use xlink:href="#DejaVuSans-6f" x="233.837891"/>
       <use xlink:href="#DejaVuSans-72" x="295.019531"/>
       <use xlink:href="#DejaVuSans-6d" x="334.382812"/>
       <use xlink:href="#DejaVuSans-2d" x="431.794922"/>
       <use xlink:href="#DejaVuSans-54" x="458.753906"/>
       <use xlink:href="#DejaVuSans-6f" x="502.837891"/>
       <use xlink:href="#DejaVuSans-72" x="564.019531"/>
       <use xlink:href="#DejaVuSans-53" x="605.132812"/>
      </g>
     </g>
    </g>
    <g id="xtick_5">
     <g id="line2d_5">
      <g>
       <use xlink:href="#m2d55427c0f" x="975.478125" y="294.118125" style="stroke: #000000; stroke-width: 0.8"/>
      </g>
     </g>
     <g id="text_5">
      <!-- 11 TorS-Norm -->
      <g transform="translate(953.467769 354.414089)rotate(-45)scale(0.1 -0.1)">
       <use xlink:href="#DejaVuSans-31"/>
       <use xlink:href="#DejaVuSans-31" x="63.623047"/>
       <use xlink:href="#DejaVuSans-20" x="127.246094"/>
       <use xlink:href="#DejaVuSans-54" x="159.033203"/>
       <use xlink:href="#DejaVuSans-6f" x="203.117188"/>
       <use xlink:href="#DejaVuSans-72" x="264.298828"/>
       <use xlink:href="#DejaVuSans-53" x="305.412109"/>
       <use xlink:href="#DejaVuSans-2d" x="368.888672"/>
       <use xlink:href="#DejaVuSans-4e" x="404.972656"/>
       <use xlink:href="#DejaVuSans-6f" x="479.777344"/>
       <use xlink:href="#DejaVuSans-72" x="540.958984"/>
       <use xlink:href="#DejaVuSans-6d" x="580.322266"/>
      </g>
     </g>
    </g>
    <g id="text_6">
     <!-- Scenarios -->
     <g transform="translate(579.136719 371.931231)scale(0.1 -0.1)">
      <defs>
       <path id="DejaVuSans-63" d="M 3122 3366 
L 3122 2828 
Q 2878 2963 2633 3030 
Q 2388 3097 2138 3097 
Q 1578 3097 1268 2742 
Q 959 2388 959 1747 
Q 959 1106 1268 751 
Q 1578 397 2138 397 
Q 2388 397 2633 464 
Q 2878 531 3122 666 
L 3122 134 
Q 2881 22 2623 -34 
Q 2366 -91 2075 -91 
Q 1284 -91 818 406 
Q 353 903 353 1747 
Q 353 2603 823 3093 
Q 1294 3584 2113 3584 
Q 2378 3584 2631 3529 
Q 2884 3475 3122 3366 
z
" transform="scale(0.015625)"/>
       <path id="DejaVuSans-65" d="M 3597 1894 
L 3597 1613 
L 953 1613 
Q 991 1019 1311 708 
Q 1631 397 2203 397 
Q 2534 397 2845 478 
Q 3156 559 3463 722 
L 3463 178 
Q 3153 47 2828 -22 
Q 2503 -91 2169 -91 
Q 1331 -91 842 396 
Q 353 884 353 1716 
Q 353 2575 817 3079 
Q 1281 3584 2069 3584 
Q 2775 3584 3186 3129 
Q 3597 2675 3597 1894 
z
M 3022 2063 
Q 3016 2534 2758 2815 
Q 2500 3097 2075 3097 
Q 1594 3097 1305 2825 
Q 1016 2553 972 2059 
L 3022 2063 
z
" transform="scale(0.015625)"/>
       <path id="DejaVuSans-6e" d="M 3513 2113 
L 3513 0 
L 2938 0 
L 2938 2094 
Q 2938 2591 2744 2837 
Q 2550 3084 2163 3084 
Q 1697 3084 1428 2787 
Q 1159 2491 1159 1978 
L 1159 0 
L 581 0 
L 581 3500 
L 1159 3500 
L 1159 2956 
Q 1366 3272 1645 3428 
Q 1925 3584 2291 3584 
Q 2894 3584 3203 3211 
Q 3513 2838 3513 2113 
z
" transform="scale(0.015625)"/>
       <path id="DejaVuSans-61" d="M 2194 1759 
Q 1497 1759 1228 1600 
Q 959 1441 959 1056 
Q 959 750 1161 570 
Q 1363 391 1709 391 
Q 2188 391 2477 730 
Q 2766 1069 2766 1631 
L 2766 1759 
L 2194 1759 
z
M 3341 1997 
L 3341 0 
L 2766 0 
L 2766 531 
Q 2569 213 2275 61 
Q 1981 -91 1556 -91 
Q 1019 -91 701 211 
Q 384 513 384 1019 
Q 384 1609 779 1909 
Q 1175 2209 1959 2209 
L 2766 2209 
L 2766 2266 
Q 2766 2663 2505 2880 
Q 2244 3097 1772 3097 
Q 1472 3097 1187 3025 
Q 903 2953 641 2809 
L 641 3341 
Q 956 3463 1253 3523 
Q 1550 3584 1831 3584 
Q 2591 3584 2966 3190 
Q 3341 2797 3341 1997 
z
" transform="scale(0.015625)"/>
       <path id="DejaVuSans-69" d="M 603 3500 
L 1178 3500 
L 1178 0 
L 603 0 
L 603 3500 
z
M 603 4863 
L 1178 4863 
L 1178 4134 
L 603 4134 
L 603 4863 
z
" transform="scale(0.015625)"/>
       <path id="DejaVuSans-73" d="M 2834 3397 
L 2834 2853 
Q 2591 2978 2328 3040 
Q 2066 3103 1784 3103 
Q 1356 3103 1142 2972 
Q 928 2841 928 2578 
Q 928 2378 1081 2264 
Q 1234 2150 1697 2047 
L 1894 2003 
Q 2506 1872 2764 1633 
Q 3022 1394 3022 966 
Q 3022 478 2636 193 
Q 2250 -91 1575 -91 
Q 1294 -91 989 -36 
Q 684 19 347 128 
L 347 722 
Q 666 556 975 473 
Q 1284 391 1588 391 
Q 1994 391 2212 530 
Q 2431 669 2431 922 
Q 2431 1156 2273 1281 
Q 2116 1406 1581 1522 
L 1381 1569 
Q 847 1681 609 1914 
Q 372 2147 372 2553 
Q 372 3047 722 3315 
Q 1072 3584 1716 3584 
Q 2034 3584 2315 3537 
Q 2597 3491 2834 3397 
z
" transform="scale(0.015625)"/>
      </defs>
      <use xlink:href="#DejaVuSans-53"/>
      <use xlink:href="#DejaVuSans-63" x="63.476562"/>
      <use xlink:href="#DejaVuSans-65" x="118.457031"/>
      <use xlink:href="#DejaVuSans-6e" x="179.980469"/>
      <use xlink:href="#DejaVuSans-61" x="243.359375"/>
      <use xlink:href="#DejaVuSans-72" x="304.638672"/>
      <use xlink:href="#DejaVuSans-69" x="345.751953"/>
      <use xlink:href="#DejaVuSans-6f" x="373.535156"/>
      <use xlink:href="#DejaVuSans-73" x="434.716797"/>
     </g>
    </g>
   </g>
   <g id="matplotlib.axis_2">
    <g id="ytick_1">
     <g id="line2d_6">
      <defs>
       <path id="m1f8aee10a4" d="M 0 0 
L -3.5 0 
" style="stroke: #000000; stroke-width: 0.8"/>
      </defs>
      <g>
       <use xlink:href="#m1f8aee10a4" x="45.478125" y="250.402768" style="stroke: #000000; stroke-width: 0.8"/>
      </g>
     </g>
     <g id="text_7">
      <!-- $\mathdefault{10^{1}}$ -->
      <g transform="translate(20.878125 254.201987)scale(0.1 -0.1)">
       <use xlink:href="#DejaVuSans-31" transform="translate(0 0.684375)"/>
       <use xlink:href="#DejaVuSans-30" transform="translate(63.623047 0.684375)"/>
       <use xlink:href="#DejaVuSans-31" transform="translate(128.203125 38.965625)scale(0.7)"/>
      </g>
     </g>
    </g>
    <g id="ytick_2">
     <g id="line2d_7">
      <g>
       <use xlink:href="#m1f8aee10a4" x="45.478125" y="146.224407" style="stroke: #000000; stroke-width: 0.8"/>
      </g>
     </g>
     <g id="text_8">
      <!-- $\mathdefault{10^{2}}$ -->
      <g transform="translate(20.878125 150.023626)scale(0.1 -0.1)">
       <defs>
        <path id="DejaVuSans-32" d="M 1228 531 
L 3431 531 
L 3431 0 
L 469 0 
L 469 531 
Q 828 903 1448 1529 
Q 2069 2156 2228 2338 
Q 2531 2678 2651 2914 
Q 2772 3150 2772 3378 
Q 2772 3750 2511 3984 
Q 2250 4219 1831 4219 
Q 1534 4219 1204 4116 
Q 875 4013 500 3803 
L 500 4441 
Q 881 4594 1212 4672 
Q 1544 4750 1819 4750 
Q 2544 4750 2975 4387 
Q 3406 4025 3406 3419 
Q 3406 3131 3298 2873 
Q 3191 2616 2906 2266 
Q 2828 2175 2409 1742 
Q 1991 1309 1228 531 
z
" transform="scale(0.015625)"/>
       </defs>
       <use xlink:href="#DejaVuSans-31" transform="translate(0 0.765625)"/>
       <use xlink:href="#DejaVuSans-30" transform="translate(63.623047 0.765625)"/>
       <use xlink:href="#DejaVuSans-32" transform="translate(128.203125 39.046875)scale(0.7)"/>
      </g>
     </g>
    </g>
    <g id="ytick_3">
     <g id="line2d_8">
      <g>
       <use xlink:href="#m1f8aee10a4" x="45.478125" y="42.046046" style="stroke: #000000; stroke-width: 0.8"/>
      </g>
     </g>
     <g id="text_9">
      <!-- $\mathdefault{10^{3}}$ -->
      <g transform="translate(20.878125 45.845265)scale(0.1 -0.1)">
       <defs>
        <path id="DejaVuSans-33" d="M 2597 2516 
Q 3050 2419 3304 2112 
Q 3559 1806 3559 1356 
Q 3559 666 3084 287 
Q 2609 -91 1734 -91 
Q 1441 -91 1130 -33 
Q 819 25 488 141 
L 488 750 
Q 750 597 1062 519 
Q 1375 441 1716 441 
Q 2309 441 2620 675 
Q 2931 909 2931 1356 
Q 2931 1769 2642 2001 
Q 2353 2234 1838 2234 
L 1294 2234 
L 1294 2753 
L 1863 2753 
Q 2328 2753 2575 2939 
Q 2822 3125 2822 3475 
Q 2822 3834 2567 4026 
Q 2313 4219 1838 4219 
Q 1578 4219 1281 4162 
Q 984 4106 628 3988 
L 628 4550 
Q 988 4650 1302 4700 
Q 1616 4750 1894 4750 
Q 2613 4750 3031 4423 
Q 3450 4097 3450 3541 
Q 3450 3153 3228 2886 
Q 3006 2619 2597 2516 
z
" transform="scale(0.015625)"/>
       </defs>
       <use xlink:href="#DejaVuSans-31" transform="translate(0 0.765625)"/>
       <use xlink:href="#DejaVuSans-30" transform="translate(63.623047 0.765625)"/>
       <use xlink:href="#DejaVuSans-33" transform="translate(128.203125 39.046875)scale(0.7)"/>
      </g>
     </g>
    </g>
    <g id="ytick_4">
     <g id="line2d_9">
      <defs>
       <path id="mb33c52b179" d="M 0 0 
L -2 0 
" style="stroke: #000000; stroke-width: 0.6"/>
      </defs>
      <g>
       <use xlink:href="#mb33c52b179" x="45.478125" y="291.859506" style="stroke: #000000; stroke-width: 0.6"/>
      </g>
     </g>
    </g>
    <g id="ytick_5">
     <g id="line2d_10">
      <g>
       <use xlink:href="#mb33c52b179" x="45.478125" y="281.76358" style="stroke: #000000; stroke-width: 0.6"/>
      </g>
     </g>
    </g>
    <g id="ytick_6">
     <g id="line2d_11">
      <g>
       <use xlink:href="#mb33c52b179" x="45.478125" y="273.514607" style="stroke: #000000; stroke-width: 0.6"/>
      </g>
     </g>
    </g>
    <g id="ytick_7">
     <g id="line2d_12">
      <g>
       <use xlink:href="#mb33c52b179" x="45.478125" y="266.5402" style="stroke: #000000; stroke-width: 0.6"/>
      </g>
     </g>
    </g>
    <g id="ytick_8">
     <g id="line2d_13">
      <g>
       <use xlink:href="#mb33c52b179" x="45.478125" y="260.498694" style="stroke: #000000; stroke-width: 0.6"/>
      </g>
     </g>
    </g>
    <g id="ytick_9">
     <g id="line2d_14">
      <g>
       <use xlink:href="#mb33c52b179" x="45.478125" y="255.169708" style="stroke: #000000; stroke-width: 0.6"/>
      </g>
     </g>
    </g>
    <g id="ytick_10">
     <g id="line2d_15">
      <g>
       <use xlink:href="#mb33c52b179" x="45.478125" y="219.041957" style="stroke: #000000; stroke-width: 0.6"/>
      </g>
     </g>
    </g>
    <g id="ytick_11">
     <g id="line2d_16">
      <g>
       <use xlink:href="#mb33c52b179" x="45.478125" y="200.697058" style="stroke: #000000; stroke-width: 0.6"/>
      </g>
     </g>
    </g>
    <g id="ytick_12">
     <g id="line2d_17">
      <g>
       <use xlink:href="#mb33c52b179" x="45.478125" y="187.681145" style="stroke: #000000; stroke-width: 0.6"/>
      </g>
     </g>
    </g>
    <g id="ytick_13">
     <g id="line2d_18">
      <g>
       <use xlink:href="#mb33c52b179" x="45.478125" y="177.585219" style="stroke: #000000; stroke-width: 0.6"/>
      </g>
     </g>
    </g>
    <g id="ytick_14">
     <g id="line2d_19">
      <g>
       <use xlink:href="#mb33c52b179" x="45.478125" y="169.336246" style="stroke: #000000; stroke-width: 0.6"/>
      </g>
     </g>
    </g>
    <g id="ytick_15">
     <g id="line2d_20">
      <g>
       <use xlink:href="#mb33c52b179" x="45.478125" y="162.361839" style="stroke: #000000; stroke-width: 0.6"/>
      </g>
     </g>
    </g>
    <g id="ytick_16">
     <g id="line2d_21">
      <g>
       <use xlink:href="#mb33c52b179" x="45.478125" y="156.320333" style="stroke: #000000; stroke-width: 0.6"/>
      </g>
     </g>
    </g>
    <g id="ytick_17">
     <g id="line2d_22">
      <g>
       <use xlink:href="#mb33c52b179" x="45.478125" y="150.991348" style="stroke: #000000; stroke-width: 0.6"/>
      </g>
     </g>
    </g>
    <g id="ytick_18">
     <g id="line2d_23">
      <g>
       <use xlink:href="#mb33c52b179" x="45.478125" y="114.863596" style="stroke: #000000; stroke-width: 0.6"/>
      </g>
     </g>
    </g>
    <g id="ytick_19">
     <g id="line2d_24">
      <g>
       <use xlink:href="#mb33c52b179" x="45.478125" y="96.518697" style="stroke: #000000; stroke-width: 0.6"/>
      </g>
     </g>
    </g>
    <g id="ytick_20">
     <g id="line2d_25">
      <g>
       <use xlink:href="#mb33c52b179" x="45.478125" y="83.502784" style="stroke: #000000; stroke-width: 0.6"/>
      </g>
     </g>
    </g>
    <g id="ytick_21">
     <g id="line2d_26">
      <g>
       <use xlink:href="#mb33c52b179" x="45.478125" y="73.406858" style="stroke: #000000; stroke-width: 0.6"/>
      </g>
     </g>
    </g>
    <g id="ytick_22">
     <g id="line2d_27">
      <g>
       <use xlink:href="#mb33c52b179" x="45.478125" y="65.157885" style="stroke: #000000; stroke-width: 0.6"/>
      </g>
     </g>
    </g>
    <g id="ytick_23">
     <g id="line2d_28">
      <g>
       <use xlink:href="#mb33c52b179" x="45.478125" y="58.183479" style="stroke: #000000; stroke-width: 0.6"/>
      </g>
     </g>
    </g>
    <g id="ytick_24">
     <g id="line2d_29">
      <g>
       <use xlink:href="#mb33c52b179" x="45.478125" y="52.141973" style="stroke: #000000; stroke-width: 0.6"/>
      </g>
     </g>
    </g>
    <g id="ytick_25">
     <g id="line2d_30">
      <g>
       <use xlink:href="#mb33c52b179" x="45.478125" y="46.812987" style="stroke: #000000; stroke-width: 0.6"/>
      </g>
     </g>
    </g>
    <g id="text_10">
     <!-- RTT (ms) -->
     <g transform="translate(14.798438 180.315781)rotate(-90)scale(0.1 -0.1)">
      <defs>
       <path id="DejaVuSans-52" d="M 2841 2188 
Q 3044 2119 3236 1894 
Q 3428 1669 3622 1275 
L 4263 0 
L 3584 0 
L 2988 1197 
Q 2756 1666 2539 1819 
Q 2322 1972 1947 1972 
L 1259 1972 
L 1259 0 
L 628 0 
L 628 4666 
L 2053 4666 
Q 2853 4666 3247 4331 
Q 3641 3997 3641 3322 
Q 3641 2881 3436 2590 
Q 3231 2300 2841 2188 
z
M 1259 4147 
L 1259 2491 
L 2053 2491 
Q 2509 2491 2742 2702 
Q 2975 2913 2975 3322 
Q 2975 3731 2742 3939 
Q 2509 4147 2053 4147 
L 1259 4147 
z
" transform="scale(0.015625)"/>
       <path id="DejaVuSans-28" d="M 1984 4856 
Q 1566 4138 1362 3434 
Q 1159 2731 1159 2009 
Q 1159 1288 1364 580 
Q 1569 -128 1984 -844 
L 1484 -844 
Q 1016 -109 783 600 
Q 550 1309 550 2009 
Q 550 2706 781 3412 
Q 1013 4119 1484 4856 
L 1984 4856 
z
" transform="scale(0.015625)"/>
       <path id="DejaVuSans-29" d="M 513 4856 
L 1013 4856 
Q 1481 4119 1714 3412 
Q 1947 2706 1947 2009 
Q 1947 1309 1714 600 
Q 1481 -109 1013 -844 
L 513 -844 
Q 928 -128 1133 580 
Q 1338 1288 1338 2009 
Q 1338 2731 1133 3434 
Q 928 4138 513 4856 
z
" transform="scale(0.015625)"/>
      </defs>
      <use xlink:href="#DejaVuSans-52"/>
      <use xlink:href="#DejaVuSans-54" x="62.232422"/>
      <use xlink:href="#DejaVuSans-54" x="121.566406"/>
      <use xlink:href="#DejaVuSans-20" x="182.650391"/>
      <use xlink:href="#DejaVuSans-28" x="214.4375"/>
      <use xlink:href="#DejaVuSans-6d" x="253.451172"/>
      <use xlink:href="#DejaVuSans-73" x="350.863281"/>
      <use xlink:href="#DejaVuSans-29" x="402.962891"/>
     </g>
    </g>
   </g>
   <g id="line2d_31">
    <path d="M 166.378125 232.057869 
L 222.178125 232.057869 
L 222.178125 199.213512 
L 166.378125 199.213512 
L 166.378125 232.057869 
" clip-path="url(#pbcbcd86e81)" style="fill: none; stroke: #d7191c; stroke-linecap: square"/>
   </g>
   <g id="line2d_32">
    <path d="M 194.278125 232.057869 
L 194.278125 281.76358 
" clip-path="url(#pbcbcd86e81)" style="fill: none; stroke: #d7191c; stroke-linecap: square"/>
   </g>
   <g id="line2d_33">
    <path d="M 194.278125 199.213512 
L 194.278125 173.272997 
" clip-path="url(#pbcbcd86e81)" style="fill: none; stroke: #d7191c; stroke-linecap: square"/>
   </g>
   <g id="line2d_34">
    <path d="M 180.328125 281.76358 
L 208.228125 281.76358 
" clip-path="url(#pbcbcd86e81)" style="fill: none; stroke: #d7191c; stroke-linecap: square"/>
   </g>
   <g id="line2d_35">
    <path d="M 180.328125 173.272997 
L 208.228125 173.272997 
" clip-path="url(#pbcbcd86e81)" style="fill: none; stroke: #d7191c; stroke-linecap: square"/>
   </g>
   <g id="line2d_36">
    <path d="M 352.378125 121.164381 
L 408.178125 121.164381 
L 408.178125 88.648338 
L 352.378125 88.648338 
L 352.378125 121.164381 
" clip-path="url(#pbcbcd86e81)" style="fill: none; stroke: #d7191c; stroke-linecap: square"/>
   </g>
   <g id="line2d_37">
    <path d="M 380.278125 121.164381 
L 380.278125 152.525192 
" clip-path="url(#pbcbcd86e81)" style="fill: none; stroke: #d7191c; stroke-linecap: square"/>
   </g>
   <g id="line2d_38">
    <path d="M 380.278125 88.648338 
L 380.278125 62.87866 
" clip-path="url(#pbcbcd86e81)" style="fill: none; stroke: #d7191c; stroke-linecap: square"/>
   </g>
   <g id="line2d_39">
    <path d="M 366.328125 152.525192 
L 394.228125 152.525192 
" clip-path="url(#pbcbcd86e81)" style="fill: none; stroke: #d7191c; stroke-linecap: square"/>
   </g>
   <g id="line2d_40">
    <path d="M 366.328125 62.87866 
L 394.228125 62.87866 
" clip-path="url(#pbcbcd86e81)" style="fill: none; stroke: #d7191c; stroke-linecap: square"/>
   </g>
   <g id="line2d_41">
    <path d="M 538.378125 118.63612 
L 594.178125 118.63612 
L 594.178125 82.165423 
L 538.378125 82.165423 
L 538.378125 118.63612 
" clip-path="url(#pbcbcd86e81)" style="fill: none; stroke: #d7191c; stroke-linecap: square"/>
   </g>
   <g id="line2d_42">
    <path d="M 566.278125 118.63612 
L 566.278125 153.577428 
" clip-path="url(#pbcbcd86e81)" style="fill: none; stroke: #d7191c; stroke-linecap: square"/>
   </g>
   <g id="line2d_43">
    <path d="M 566.278125 82.165423 
L 566.278125 54.821299 
" clip-path="url(#pbcbcd86e81)" style="fill: none; stroke: #d7191c; stroke-linecap: square"/>
   </g>
   <g id="line2d_44">
    <path d="M 552.328125 153.577428 
L 580.228125 153.577428 
" clip-path="url(#pbcbcd86e81)" style="fill: none; stroke: #d7191c; stroke-linecap: square"/>
   </g>
   <g id="line2d_45">
    <path d="M 552.328125 54.821299 
L 580.228125 54.821299 
" clip-path="url(#pbcbcd86e81)" style="fill: none; stroke: #d7191c; stroke-linecap: square"/>
   </g>
   <g id="line2d_46">
    <path d="M 724.378125 134.703352 
L 780.178125 134.703352 
L 780.178125 76.690253 
L 724.378125 76.690253 
L 724.378125 134.703352 
" clip-path="url(#pbcbcd86e81)" style="fill: none; stroke: #d7191c; stroke-linecap: square"/>
   </g>
   <g id="line2d_47">
    <path d="M 752.278125 134.703352 
L 752.278125 195.034166 
" clip-path="url(#pbcbcd86e81)" style="fill: none; stroke: #d7191c; stroke-linecap: square"/>
   </g>
   <g id="line2d_48">
    <path d="M 752.278125 76.690253 
L 752.278125 43.470813 
" clip-path="url(#pbcbcd86e81)" style="fill: none; stroke: #d7191c; stroke-linecap: square"/>
   </g>
   <g id="line2d_49">
    <path d="M 738.328125 195.034166 
L 766.228125 195.034166 
" clip-path="url(#pbcbcd86e81)" style="fill: none; stroke: #d7191c; stroke-linecap: square"/>
   </g>
   <g id="line2d_50">
    <path d="M 738.328125 43.470813 
L 766.228125 43.470813 
" clip-path="url(#pbcbcd86e81)" style="fill: none; stroke: #d7191c; stroke-linecap: square"/>
   </g>
   <g id="line2d_51">
    <path d="M 910.378125 127.879508 
L 966.178125 127.879508 
L 966.178125 68.198684 
L 910.378125 68.198684 
L 910.378125 127.879508 
" clip-path="url(#pbcbcd86e81)" style="fill: none; stroke: #d7191c; stroke-linecap: square"/>
   </g>
   <g id="line2d_52">
    <path d="M 938.278125 127.879508 
L 938.278125 174.948895 
" clip-path="url(#pbcbcd86e81)" style="fill: none; stroke: #d7191c; stroke-linecap: square"/>
   </g>
   <g id="line2d_53">
    <path d="M 938.278125 68.198684 
L 938.278125 34.67267 
" clip-path="url(#pbcbcd86e81)" style="fill: none; stroke: #d7191c; stroke-linecap: square"/>
   </g>
   <g id="line2d_54">
    <path d="M 924.328125 174.948895 
L 952.228125 174.948895 
" clip-path="url(#pbcbcd86e81)" style="fill: none; stroke: #d7191c; stroke-linecap: square"/>
   </g>
   <g id="line2d_55">
    <path d="M 924.328125 34.67267 
L 952.228125 34.67267 
" clip-path="url(#pbcbcd86e81)" style="fill: none; stroke: #d7191c; stroke-linecap: square"/>
   </g>
   <g id="line2d_56">
    <path d="M 240.778125 232.057869 
L 296.578125 232.057869 
L 296.578125 199.213512 
L 240.778125 199.213512 
L 240.778125 232.057869 
" clip-path="url(#pbcbcd86e81)" style="fill: none; stroke: #2c7bb6; stroke-linecap: square"/>
   </g>
   <g id="line2d_57">
    <path d="M 268.678125 232.057869 
L 268.678125 281.76358 
" clip-path="url(#pbcbcd86e81)" style="fill: none; stroke: #2c7bb6; stroke-linecap: square"/>
   </g>
   <g id="line2d_58">
    <path d="M 268.678125 199.213512 
L 268.678125 173.272997 
" clip-path="url(#pbcbcd86e81)" style="fill: none; stroke: #2c7bb6; stroke-linecap: square"/>
   </g>
   <g id="line2d_59">
    <path d="M 254.728125 281.76358 
L 282.628125 281.76358 
" clip-path="url(#pbcbcd86e81)" style="fill: none; stroke: #2c7bb6; stroke-linecap: square"/>
   </g>
   <g id="line2d_60">
    <path d="M 254.728125 173.272997 
L 282.628125 173.272997 
" clip-path="url(#pbcbcd86e81)" style="fill: none; stroke: #2c7bb6; stroke-linecap: square"/>
   </g>
   <g id="line2d_61">
    <path d="M 426.778125 121.164381 
L 482.578125 121.164381 
L 482.578125 88.648338 
L 426.778125 88.648338 
L 426.778125 121.164381 
" clip-path="url(#pbcbcd86e81)" style="fill: none; stroke: #2c7bb6; stroke-linecap: square"/>
   </g>
   <g id="line2d_62">
    <path d="M 454.678125 121.164381 
L 454.678125 152.525192 
" clip-path="url(#pbcbcd86e81)" style="fill: none; stroke: #2c7bb6; stroke-linecap: square"/>
   </g>
   <g id="line2d_63">
    <path d="M 454.678125 88.648338 
L 454.678125 62.87866 
" clip-path="url(#pbcbcd86e81)" style="fill: none; stroke: #2c7bb6; stroke-linecap: square"/>
   </g>
   <g id="line2d_64">
    <path d="M 440.728125 152.525192 
L 468.628125 152.525192 
" clip-path="url(#pbcbcd86e81)" style="fill: none; stroke: #2c7bb6; stroke-linecap: square"/>
   </g>
   <g id="line2d_65">
    <path d="M 440.728125 62.87866 
L 468.628125 62.87866 
" clip-path="url(#pbcbcd86e81)" style="fill: none; stroke: #2c7bb6; stroke-linecap: square"/>
   </g>
   <g id="line2d_66">
    <path d="M 612.778125 118.63612 
L 668.578125 118.63612 
L 668.578125 82.165423 
L 612.778125 82.165423 
L 612.778125 118.63612 
" clip-path="url(#pbcbcd86e81)" style="fill: none; stroke: #2c7bb6; stroke-linecap: square"/>
   </g>
   <g id="line2d_67">
    <path d="M 640.678125 118.63612 
L 640.678125 153.577428 
" clip-path="url(#pbcbcd86e81)" style="fill: none; stroke: #2c7bb6; stroke-linecap: square"/>
   </g>
   <g id="line2d_68">
    <path d="M 640.678125 82.165423 
L 640.678125 54.821299 
" clip-path="url(#pbcbcd86e81)" style="fill: none; stroke: #2c7bb6; stroke-linecap: square"/>
   </g>
   <g id="line2d_69">
    <path d="M 626.728125 153.577428 
L 654.628125 153.577428 
" clip-path="url(#pbcbcd86e81)" style="fill: none; stroke: #2c7bb6; stroke-linecap: square"/>
   </g>
   <g id="line2d_70">
    <path d="M 626.728125 54.821299 
L 654.628125 54.821299 
" clip-path="url(#pbcbcd86e81)" style="fill: none; stroke: #2c7bb6; stroke-linecap: square"/>
   </g>
   <g id="line2d_71">
    <path d="M 798.778125 134.703352 
L 854.578125 134.703352 
L 854.578125 76.690253 
L 798.778125 76.690253 
L 798.778125 134.703352 
" clip-path="url(#pbcbcd86e81)" style="fill: none; stroke: #2c7bb6; stroke-linecap: square"/>
   </g>
   <g id="line2d_72">
    <path d="M 826.678125 134.703352 
L 826.678125 195.034166 
" clip-path="url(#pbcbcd86e81)" style="fill: none; stroke: #2c7bb6; stroke-linecap: square"/>
   </g>
   <g id="line2d_73">
    <path d="M 826.678125 76.690253 
L 826.678125 43.470813 
" clip-path="url(#pbcbcd86e81)" style="fill: none; stroke: #2c7bb6; stroke-linecap: square"/>
   </g>
   <g id="line2d_74">
    <path d="M 812.728125 195.034166 
L 840.628125 195.034166 
" clip-path="url(#pbcbcd86e81)" style="fill: none; stroke: #2c7bb6; stroke-linecap: square"/>
   </g>
   <g id="line2d_75">
    <path d="M 812.728125 43.470813 
L 840.628125 43.470813 
" clip-path="url(#pbcbcd86e81)" style="fill: none; stroke: #2c7bb6; stroke-linecap: square"/>
   </g>
   <g id="line2d_76">
    <path d="M 984.778125 127.879508 
L 1040.578125 127.879508 
L 1040.578125 68.198684 
L 984.778125 68.198684 
L 984.778125 127.879508 
" clip-path="url(#pbcbcd86e81)" style="fill: none; stroke: #2c7bb6; stroke-linecap: square"/>
   </g>
   <g id="line2d_77">
    <path d="M 1012.678125 127.879508 
L 1012.678125 174.948895 
" clip-path="url(#pbcbcd86e81)" style="fill: none; stroke: #2c7bb6; stroke-linecap: square"/>
   </g>
   <g id="line2d_78">
    <path d="M 1012.678125 68.198684 
L 1012.678125 34.67267 
" clip-path="url(#pbcbcd86e81)" style="fill: none; stroke: #2c7bb6; stroke-linecap: square"/>
   </g>
   <g id="line2d_79">
    <path d="M 998.728125 174.948895 
L 1026.628125 174.948895 
" clip-path="url(#pbcbcd86e81)" style="fill: none; stroke: #2c7bb6; stroke-linecap: square"/>
   </g>
   <g id="line2d_80">
    <path d="M 998.728125 34.67267 
L 1026.628125 34.67267 
" clip-path="url(#pbcbcd86e81)" style="fill: none; stroke: #2c7bb6; stroke-linecap: square"/>
   </g>
   <g id="line2d_81"/>
   <g id="line2d_82"/>
   <g id="line2d_83">
    <path d="M 45.478125 114.863596 
L 1161.478125 114.863596 
" clip-path="url(#pbcbcd86e81)" style="fill: none; stroke-dasharray: 5.55,2.4; stroke-dashoffset: 0; stroke: #008000; stroke-width: 1.5"/>
   </g>
   <g id="line2d_84">
    <path d="M 45.478125 83.502784 
L 1161.478125 83.502784 
" clip-path="url(#pbcbcd86e81)" style="fill: none; stroke-dasharray: 5.55,2.4; stroke-dashoffset: 0; stroke: #bf00bf; stroke-width: 1.5"/>
   </g>
   <g id="line2d_85">
    <path d="M 166.378125 216.83449 
L 222.178125 216.83449 
" clip-path="url(#pbcbcd86e81)" style="fill: none; stroke: #d7191c; stroke-linecap: square"/>
   </g>
   <g id="line2d_86">
    <path d="M 352.378125 107.953869 
L 408.178125 107.953869 
" clip-path="url(#pbcbcd86e81)" style="fill: none; stroke: #d7191c; stroke-linecap: square"/>
   </g>
   <g id="line2d_87">
    <path d="M 538.378125 103.606356 
L 594.178125 103.606356 
" clip-path="url(#pbcbcd86e81)" style="fill: none; stroke: #d7191c; stroke-linecap: square"/>
   </g>
   <g id="line2d_88">
    <path d="M 724.378125 114.637939 
L 780.178125 114.637939 
" clip-path="url(#pbcbcd86e81)" style="fill: none; stroke: #d7191c; stroke-linecap: square"/>
   </g>
   <g id="line2d_89">
    <path d="M 910.378125 104.049494 
L 966.178125 104.049494 
" clip-path="url(#pbcbcd86e81)" style="fill: none; stroke: #d7191c; stroke-linecap: square"/>
   </g>
   <g id="line2d_90">
    <path d="M 240.778125 216.83449 
L 296.578125 216.83449 
" clip-path="url(#pbcbcd86e81)" style="fill: none; stroke: #2c7bb6; stroke-linecap: square"/>
   </g>
   <g id="line2d_91">
    <path d="M 426.778125 107.953869 
L 482.578125 107.953869 
" clip-path="url(#pbcbcd86e81)" style="fill: none; stroke: #2c7bb6; stroke-linecap: square"/>
   </g>
   <g id="line2d_92">
    <path d="M 612.778125 103.606356 
L 668.578125 103.606356 
" clip-path="url(#pbcbcd86e81)" style="fill: none; stroke: #2c7bb6; stroke-linecap: square"/>
   </g>
   <g id="line2d_93">
    <path d="M 798.778125 114.637939 
L 854.578125 114.637939 
" clip-path="url(#pbcbcd86e81)" style="fill: none; stroke: #2c7bb6; stroke-linecap: square"/>
   </g>
   <g id="line2d_94">
    <path d="M 984.778125 104.049494 
L 1040.578125 104.049494 
" clip-path="url(#pbcbcd86e81)" style="fill: none; stroke: #2c7bb6; stroke-linecap: square"/>
   </g>
   <g id="patch_3">
    <path d="M 45.478125 294.118125 
L 45.478125 22.318125 
" style="fill: none; stroke: #000000; stroke-width: 0.8; stroke-linejoin: miter; stroke-linecap: square"/>
   </g>
   <g id="patch_4">
    <path d="M 1161.478125 294.118125 
L 1161.478125 22.318125 
" style="fill: none; stroke: #000000; stroke-width: 0.8; stroke-linejoin: miter; stroke-linecap: square"/>
   </g>
   <g id="patch_5">
    <path d="M 45.478125 294.118125 
L 1161.478125 294.118125 
" style="fill: none; stroke: #000000; stroke-width: 0.8; stroke-linejoin: miter; stroke-linecap: square"/>
   </g>
   <g id="patch_6">
    <path d="M 45.478125 22.318125 
L 1161.478125 22.318125 
" style="fill: none; stroke: #000000; stroke-width: 0.8; stroke-linejoin: miter; stroke-linecap: square"/>
   </g>
   <g id="text_11">
    <!-- RTT of audio data in calls (Close up) -->
    <g transform="translate(495.703125 16.318125)scale(0.12 -0.12)">
     <defs>
      <path id="DejaVuSans-66" d="M 2375 4863 
L 2375 4384 
L 1825 4384 
Q 1516 4384 1395 4259 
Q 1275 4134 1275 3809 
L 1275 3500 
L 2222 3500 
L 2222 3053 
L 1275 3053 
L 1275 0 
L 697 0 
L 697 3053 
L 147 3053 
L 147 3500 
L 697 3500 
L 697 3744 
Q 697 4328 969 4595 
Q 1241 4863 1831 4863 
L 2375 4863 
z
" transform="scale(0.015625)"/>
      <path id="DejaVuSans-75" d="M 544 1381 
L 544 3500 
L 1119 3500 
L 1119 1403 
Q 1119 906 1312 657 
Q 1506 409 1894 409 
Q 2359 409 2629 706 
Q 2900 1003 2900 1516 
L 2900 3500 
L 3475 3500 
L 3475 0 
L 2900 0 
L 2900 538 
Q 2691 219 2414 64 
Q 2138 -91 1772 -91 
Q 1169 -91 856 284 
Q 544 659 544 1381 
z
M 1991 3584 
L 1991 3584 
z
" transform="scale(0.015625)"/>
      <path id="DejaVuSans-64" d="M 2906 2969 
L 2906 4863 
L 3481 4863 
L 3481 0 
L 2906 0 
L 2906 525 
Q 2725 213 2448 61 
Q 2172 -91 1784 -91 
Q 1150 -91 751 415 
Q 353 922 353 1747 
Q 353 2572 751 3078 
Q 1150 3584 1784 3584 
Q 2172 3584 2448 3432 
Q 2725 3281 2906 2969 
z
M 947 1747 
Q 947 1113 1208 752 
Q 1469 391 1925 391 
Q 2381 391 2643 752 
Q 2906 1113 2906 1747 
Q 2906 2381 2643 2742 
Q 2381 3103 1925 3103 
Q 1469 3103 1208 2742 
Q 947 2381 947 1747 
z
" transform="scale(0.015625)"/>
      <path id="DejaVuSans-74" d="M 1172 4494 
L 1172 3500 
L 2356 3500 
L 2356 3053 
L 1172 3053 
L 1172 1153 
Q 1172 725 1289 603 
Q 1406 481 1766 481 
L 2356 481 
L 2356 0 
L 1766 0 
Q 1100 0 847 248 
Q 594 497 594 1153 
L 594 3053 
L 172 3053 
L 172 3500 
L 594 3500 
L 594 4494 
L 1172 4494 
z
" transform="scale(0.015625)"/>
      <path id="DejaVuSans-6c" d="M 603 4863 
L 1178 4863 
L 1178 0 
L 603 0 
L 603 4863 
z
" transform="scale(0.015625)"/>
      <path id="DejaVuSans-43" d="M 4122 4306 
L 4122 3641 
Q 3803 3938 3442 4084 
Q 3081 4231 2675 4231 
Q 1875 4231 1450 3742 
Q 1025 3253 1025 2328 
Q 1025 1406 1450 917 
Q 1875 428 2675 428 
Q 3081 428 3442 575 
Q 3803 722 4122 1019 
L 4122 359 
Q 3791 134 3420 21 
Q 3050 -91 2638 -91 
Q 1578 -91 968 557 
Q 359 1206 359 2328 
Q 359 3453 968 4101 
Q 1578 4750 2638 4750 
Q 3056 4750 3426 4639 
Q 3797 4528 4122 4306 
z
" transform="scale(0.015625)"/>
      <path id="DejaVuSans-70" d="M 1159 525 
L 1159 -1331 
L 581 -1331 
L 581 3500 
L 1159 3500 
L 1159 2969 
Q 1341 3281 1617 3432 
Q 1894 3584 2278 3584 
Q 2916 3584 3314 3078 
Q 3713 2572 3713 1747 
Q 3713 922 3314 415 
Q 2916 -91 2278 -91 
Q 1894 -91 1617 61 
Q 1341 213 1159 525 
z
M 3116 1747 
Q 3116 2381 2855 2742 
Q 2594 3103 2138 3103 
Q 1681 3103 1420 2742 
Q 1159 2381 1159 1747 
Q 1159 1113 1420 752 
Q 1681 391 2138 391 
Q 2594 391 2855 752 
Q 3116 1113 3116 1747 
z
" transform="scale(0.015625)"/>
     </defs>
     <use xlink:href="#DejaVuSans-52"/>
     <use xlink:href="#DejaVuSans-54" x="62.232422"/>
     <use xlink:href="#DejaVuSans-54" x="121.566406"/>
     <use xlink:href="#DejaVuSans-20" x="182.650391"/>
     <use xlink:href="#DejaVuSans-6f" x="214.4375"/>
     <use xlink:href="#DejaVuSans-66" x="275.619141"/>
     <use xlink:href="#DejaVuSans-20" x="310.824219"/>
     <use xlink:href="#DejaVuSans-61" x="342.611328"/>
     <use xlink:href="#DejaVuSans-75" x="403.890625"/>
     <use xlink:href="#DejaVuSans-64" x="467.269531"/>
     <use xlink:href="#DejaVuSans-69" x="530.746094"/>
     <use xlink:href="#DejaVuSans-6f" x="558.529297"/>
     <use xlink:href="#DejaVuSans-20" x="619.710938"/>
     <use xlink:href="#DejaVuSans-64" x="651.498047"/>
     <use xlink:href="#DejaVuSans-61" x="714.974609"/>
     <use xlink:href="#DejaVuSans-74" x="776.253906"/>
     <use xlink:href="#DejaVuSans-61" x="815.462891"/>
     <use xlink:href="#DejaVuSans-20" x="876.742188"/>
     <use xlink:href="#DejaVuSans-69" x="908.529297"/>
     <use xlink:href="#DejaVuSans-6e" x="936.3125"/>
     <use xlink:href="#DejaVuSans-20" x="999.691406"/>
     <use xlink:href="#DejaVuSans-63" x="1031.478516"/>
     <use xlink:href="#DejaVuSans-61" x="1086.458984"/>
     <use xlink:href="#DejaVuSans-6c" x="1147.738281"/>
     <use xlink:href="#DejaVuSans-6c" x="1175.521484"/>
     <use xlink:href="#DejaVuSans-73" x="1203.304688"/>
     <use xlink:href="#DejaVuSans-20" x="1255.404297"/>
     <use xlink:href="#DejaVuSans-28" x="1287.191406"/>
     <use xlink:href="#DejaVuSans-43" x="1326.205078"/>
     <use xlink:href="#DejaVuSans-6c" x="1396.029297"/>
     <use xlink:href="#DejaVuSans-6f" x="1423.8125"/>
     <use xlink:href="#DejaVuSans-73" x="1484.994141"/>
     <use xlink:href="#DejaVuSans-65" x="1537.09375"/>
     <use xlink:href="#DejaVuSans-20" x="1598.617188"/>
     <use xlink:href="#DejaVuSans-75" x="1630.404297"/>
     <use xlink:href="#DejaVuSans-70" x="1693.783203"/>
     <use xlink:href="#DejaVuSans-29" x="1757.259766"/>
    </g>
   </g>
   <g id="legend_1">
    <g id="patch_7">
     <path d="M 52.478125 89.030625 
L 121.69375 89.030625 
Q 123.69375 89.030625 123.69375 87.030625 
L 123.69375 29.318125 
Q 123.69375 27.318125 121.69375 27.318125 
L 52.478125 27.318125 
Q 50.478125 27.318125 50.478125 29.318125 
L 50.478125 87.030625 
Q 50.478125 89.030625 52.478125 89.030625 
z
" style="fill: #ffffff; opacity: 0.8; stroke: #cccccc; stroke-linejoin: miter"/>
    </g>
    <g id="line2d_95">
     <path d="M 54.478125 35.416563 
L 64.478125 35.416563 
L 74.478125 35.416563 
" style="fill: none; stroke: #d7191c; stroke-width: 1.5; stroke-linecap: square"/>
    </g>
    <g id="text_12">
     <!-- Alice -->
     <g transform="translate(82.478125 38.916563)scale(0.1 -0.1)">
      <defs>
       <path id="DejaVuSans-41" d="M 2188 4044 
L 1331 1722 
L 3047 1722 
L 2188 4044 
z
M 1831 4666 
L 2547 4666 
L 4325 0 
L 3669 0 
L 3244 1197 
L 1141 1197 
L 716 0 
L 50 0 
L 1831 4666 
z
" transform="scale(0.015625)"/>
      </defs>
      <use xlink:href="#DejaVuSans-41"/>
      <use xlink:href="#DejaVuSans-6c" x="68.408203"/>
      <use xlink:href="#DejaVuSans-69" x="96.191406"/>
      <use xlink:href="#DejaVuSans-63" x="123.974609"/>
      <use xlink:href="#DejaVuSans-65" x="178.955078"/>
     </g>
    </g>
    <g id="line2d_96">
     <path d="M 54.478125 50.094688 
L 64.478125 50.094688 
L 74.478125 50.094688 
" style="fill: none; stroke: #2c7bb6; stroke-width: 1.5; stroke-linecap: square"/>
    </g>
    <g id="text_13">
     <!-- Bob -->
     <g transform="translate(82.478125 53.594688)scale(0.1 -0.1)">
      <defs>
       <path id="DejaVuSans-42" d="M 1259 2228 
L 1259 519 
L 2272 519 
Q 2781 519 3026 730 
Q 3272 941 3272 1375 
Q 3272 1813 3026 2020 
Q 2781 2228 2272 2228 
L 1259 2228 
z
M 1259 4147 
L 1259 2741 
L 2194 2741 
Q 2656 2741 2882 2914 
Q 3109 3088 3109 3444 
Q 3109 3797 2882 3972 
Q 2656 4147 2194 4147 
L 1259 4147 
z
M 628 4666 
L 2241 4666 
Q 2963 4666 3353 4366 
Q 3744 4066 3744 3513 
Q 3744 3084 3544 2831 
Q 3344 2578 2956 2516 
Q 3422 2416 3680 2098 
Q 3938 1781 3938 1306 
Q 3938 681 3513 340 
Q 3088 0 2303 0 
L 628 0 
L 628 4666 
z
" transform="scale(0.015625)"/>
       <path id="DejaVuSans-62" d="M 3116 1747 
Q 3116 2381 2855 2742 
Q 2594 3103 2138 3103 
Q 1681 3103 1420 2742 
Q 1159 2381 1159 1747 
Q 1159 1113 1420 752 
Q 1681 391 2138 391 
Q 2594 391 2855 752 
Q 3116 1113 3116 1747 
z
M 1159 2969 
Q 1341 3281 1617 3432 
Q 1894 3584 2278 3584 
Q 2916 3584 3314 3078 
Q 3713 2572 3713 1747 
Q 3713 922 3314 415 
Q 2916 -91 2278 -91 
Q 1894 -91 1617 61 
Q 1341 213 1159 525 
L 1159 0 
L 581 0 
L 581 4863 
L 1159 4863 
L 1159 2969 
z
" transform="scale(0.015625)"/>
      </defs>
      <use xlink:href="#DejaVuSans-42"/>
      <use xlink:href="#DejaVuSans-6f" x="68.603516"/>
      <use xlink:href="#DejaVuSans-62" x="129.785156"/>
     </g>
    </g>
    <g id="line2d_97">
     <path d="M 54.478125 64.772813 
L 64.478125 64.772813 
L 74.478125 64.772813 
" style="fill: none; stroke-dasharray: 5.55,2.4; stroke-dashoffset: 0; stroke: #008000; stroke-width: 1.5"/>
    </g>
    <g id="text_14">
     <!-- 200 ms -->
     <g transform="translate(82.478125 68.272813)scale(0.1 -0.1)">
      <use xlink:href="#DejaVuSans-32"/>
      <use xlink:href="#DejaVuSans-30" x="63.623047"/>
      <use xlink:href="#DejaVuSans-30" x="127.246094"/>
      <use xlink:href="#DejaVuSans-20" x="190.869141"/>
      <use xlink:href="#DejaVuSans-6d" x="222.65625"/>
      <use xlink:href="#DejaVuSans-73" x="320.068359"/>
     </g>
    </g>
    <g id="line2d_98">
     <path d="M 54.478125 79.450938 
L 64.478125 79.450938 
L 74.478125 79.450938 
" style="fill: none; stroke-dasharray: 5.55,2.4; stroke-dashoffset: 0; stroke: #bf00bf; stroke-width: 1.5"/>
    </g>
    <g id="text_15">
     <!-- 400 ms -->
     <g transform="translate(82.478125 82.950938)scale(0.1 -0.1)">
      <defs>
       <path id="DejaVuSans-34" d="M 2419 4116 
L 825 1625 
L 2419 1625 
L 2419 4116 
z
M 2253 4666 
L 3047 4666 
L 3047 1625 
L 3713 1625 
L 3713 1100 
L 3047 1100 
L 3047 0 
L 2419 0 
L 2419 1100 
L 313 1100 
L 313 1709 
L 2253 4666 
z
" transform="scale(0.015625)"/>
      </defs>
      <use xlink:href="#DejaVuSans-34"/>
      <use xlink:href="#DejaVuSans-30" x="63.623047"/>
      <use xlink:href="#DejaVuSans-30" x="127.246094"/>
      <use xlink:href="#DejaVuSans-20" x="190.869141"/>
      <use xlink:href="#DejaVuSans-6d" x="222.65625"/>
      <use xlink:href="#DejaVuSans-73" x="320.068359"/>
     </g>
    </g>
   </g>
  </g>
 </g>
 <defs>
  <clipPath id="pbcbcd86e81">
   <rect x="45.478125" y="22.318125" width="1116" height="271.8"/>
  </clipPath>
 </defs>
</svg>
