<?xml version="1.0" encoding="utf-8" standalone="no"?>
<!DOCTYPE svg PUBLIC "-//W3C//DTD SVG 1.1//EN"
  "http://www.w3.org/Graphics/SVG/1.1/DTD/svg11.dtd">
<svg xmlns:xlink="http://www.w3.org/1999/xlink" width="1176.528125pt" height="381.210919pt" viewBox="0 0 1176.528125 381.210919" xmlns="http://www.w3.org/2000/svg" version="1.1">
 <metadata>
  <rdf:RDF xmlns:dc="http://purl.org/dc/elements/1.1/" xmlns:cc="http://creativecommons.org/ns#" xmlns:rdf="http://www.w3.org/1999/02/22-rdf-syntax-ns#">
   <cc:Work>
    <dc:type rdf:resource="http://purl.org/dc/dcmitype/StillImage"/>
    <dc:date>2023-02-09T10:45:11.731699</dc:date>
    <dc:format>image/svg+xml</dc:format>
    <dc:creator>
     <cc:Agent>
      <dc:title>Matplotlib v3.5.2, https://matplotlib.org/</dc:title>
     </cc:Agent>
    </dc:creator>
   </cc:Work>
  </rdf:RDF>
 </metadata>
 <defs>
  <style type="text/css">*{stroke-linejoin: round; stroke-linecap: butt}</style>
 </defs>
 <g id="figure_1">
  <g id="patch_1">
   <path d="M 0 381.210919 
L 1176.528125 381.210919 
L 1176.528125 0 
L 0 0 
z
" style="fill: #ffffff"/>
  </g>
  <g id="axes_1">
   <g id="patch_2">
    <path d="M 53.328125 294.118125 
L 1169.328125 294.118125 
L 1169.328125 22.318125 
L 53.328125 22.318125 
z
" style="fill: #ffffff"/>
   </g>
   <g id="matplotlib.axis_1">
    <g id="xtick_1">
     <g id="line2d_1">
      <defs>
       <path id="me40f074fce" d="M 0 0 
L 0 3.5 
" style="stroke: #000000; stroke-width: 0.8"/>
      </defs>
      <g>
       <use xlink:href="#me40f074fce" x="239.328125" y="294.118125" style="stroke: #000000; stroke-width: 0.8"/>
      </g>
     </g>
     <g id="text_1">
      <!-- 01 Norm-Norm -->
      <g transform="translate(215.093697 358.862233)rotate(-45)scale(0.1 -0.1)">
       <defs>
        <path id="DejaVuSans-30" d="M 2034 4250 
Q 1547 4250 1301 3770 
Q 1056 3291 1056 2328 
Q 1056 1369 1301 889 
Q 1547 409 2034 409 
Q 2525 409 2770 889 
Q 3016 1369 3016 2328 
Q 3016 3291 2770 3770 
Q 2525 4250 2034 4250 
z
M 2034 4750 
Q 2819 4750 3233 4129 
Q 3647 3509 3647 2328 
Q 3647 1150 3233 529 
Q 2819 -91 2034 -91 
Q 1250 -91 836 529 
Q 422 1150 422 2328 
Q 422 3509 836 4129 
Q 1250 4750 2034 4750 
z
" transform="scale(0.015625)"/>
        <path id="DejaVuSans-31" d="M 794 531 
L 1825 531 
L 1825 4091 
L 703 3866 
L 703 4441 
L 1819 4666 
L 2450 4666 
L 2450 531 
L 3481 531 
L 3481 0 
L 794 0 
L 794 531 
z
" transform="scale(0.015625)"/>
        <path id="DejaVuSans-20" transform="scale(0.015625)"/>
        <path id="DejaVuSans-4e" d="M 628 4666 
L 1478 4666 
L 3547 763 
L 3547 4666 
L 4159 4666 
L 4159 0 
L 3309 0 
L 1241 3903 
L 1241 0 
L 628 0 
L 628 4666 
z
" transform="scale(0.015625)"/>
        <path id="DejaVuSans-6f" d="M 1959 3097 
Q 1497 3097 1228 2736 
Q 959 2375 959 1747 
Q 959 1119 1226 758 
Q 1494 397 1959 397 
Q 2419 397 2687 759 
Q 2956 1122 2956 1747 
Q 2956 2369 2687 2733 
Q 2419 3097 1959 3097 
z
M 1959 3584 
Q 2709 3584 3137 3096 
Q 3566 2609 3566 1747 
Q 3566 888 3137 398 
Q 2709 -91 1959 -91 
Q 1206 -91 779 398 
Q 353 888 353 1747 
Q 353 2609 779 3096 
Q 1206 3584 1959 3584 
z
" transform="scale(0.015625)"/>
        <path id="DejaVuSans-72" d="M 2631 2963 
Q 2534 3019 2420 3045 
Q 2306 3072 2169 3072 
Q 1681 3072 1420 2755 
Q 1159 2438 1159 1844 
L 1159 0 
L 581 0 
L 581 3500 
L 1159 3500 
L 1159 2956 
Q 1341 3275 1631 3429 
Q 1922 3584 2338 3584 
Q 2397 3584 2469 3576 
Q 2541 3569 2628 3553 
L 2631 2963 
z
" transform="scale(0.015625)"/>
        <path id="DejaVuSans-6d" d="M 3328 2828 
Q 3544 3216 3844 3400 
Q 4144 3584 4550 3584 
Q 5097 3584 5394 3201 
Q 5691 2819 5691 2113 
L 5691 0 
L 5113 0 
L 5113 2094 
Q 5113 2597 4934 2840 
Q 4756 3084 4391 3084 
Q 3944 3084 3684 2787 
Q 3425 2491 3425 1978 
L 3425 0 
L 2847 0 
L 2847 2094 
Q 2847 2600 2669 2842 
Q 2491 3084 2119 3084 
Q 1678 3084 1418 2786 
Q 1159 2488 1159 1978 
L 1159 0 
L 581 0 
L 581 3500 
L 1159 3500 
L 1159 2956 
Q 1356 3278 1631 3431 
Q 1906 3584 2284 3584 
Q 2666 3584 2933 3390 
Q 3200 3197 3328 2828 
z
" transform="scale(0.015625)"/>
        <path id="DejaVuSans-2d" d="M 313 2009 
L 1997 2009 
L 1997 1497 
L 313 1497 
L 313 2009 
z
" transform="scale(0.015625)"/>
       </defs>
       <use xlink:href="#DejaVuSans-30"/>
       <use xlink:href="#DejaVuSans-31" x="63.623047"/>
       <use xlink:href="#DejaVuSans-20" x="127.246094"/>
       <use xlink:href="#DejaVuSans-4e" x="159.033203"/>
       <use xlink:href="#DejaVuSans-6f" x="233.837891"/>
       <use xlink:href="#DejaVuSans-72" x="295.019531"/>
       <use xlink:href="#DejaVuSans-6d" x="334.382812"/>
       <use xlink:href="#DejaVuSans-2d" x="431.794922"/>
       <use xlink:href="#DejaVuSans-4e" x="467.878906"/>
       <use xlink:href="#DejaVuSans-6f" x="542.683594"/>
       <use xlink:href="#DejaVuSans-72" x="603.865234"/>
       <use xlink:href="#DejaVuSans-6d" x="643.228516"/>
      </g>
     </g>
    </g>
    <g id="xtick_2">
     <g id="line2d_2">
      <g>
       <use xlink:href="#me40f074fce" x="425.328125" y="294.118125" style="stroke: #000000; stroke-width: 0.8"/>
      </g>
     </g>
     <g id="text_2">
      <!-- 08 Norm-TorE -->
      <g transform="translate(403.650883 353.747862)rotate(-45)scale(0.1 -0.1)">
       <defs>
        <path id="DejaVuSans-38" d="M 2034 2216 
Q 1584 2216 1326 1975 
Q 1069 1734 1069 1313 
Q 1069 891 1326 650 
Q 1584 409 2034 409 
Q 2484 409 2743 651 
Q 3003 894 3003 1313 
Q 3003 1734 2745 1975 
Q 2488 2216 2034 2216 
z
M 1403 2484 
Q 997 2584 770 2862 
Q 544 3141 544 3541 
Q 544 4100 942 4425 
Q 1341 4750 2034 4750 
Q 2731 4750 3128 4425 
Q 3525 4100 3525 3541 
Q 3525 3141 3298 2862 
Q 3072 2584 2669 2484 
Q 3125 2378 3379 2068 
Q 3634 1759 3634 1313 
Q 3634 634 3220 271 
Q 2806 -91 2034 -91 
Q 1263 -91 848 271 
Q 434 634 434 1313 
Q 434 1759 690 2068 
Q 947 2378 1403 2484 
z
M 1172 3481 
Q 1172 3119 1398 2916 
Q 1625 2713 2034 2713 
Q 2441 2713 2670 2916 
Q 2900 3119 2900 3481 
Q 2900 3844 2670 4047 
Q 2441 4250 2034 4250 
Q 1625 4250 1398 4047 
Q 1172 3844 1172 3481 
z
" transform="scale(0.015625)"/>
        <path id="DejaVuSans-54" d="M -19 4666 
L 3928 4666 
L 3928 4134 
L 2272 4134 
L 2272 0 
L 1638 0 
L 1638 4134 
L -19 4134 
L -19 4666 
z
" transform="scale(0.015625)"/>
        <path id="DejaVuSans-45" d="M 628 4666 
L 3578 4666 
L 3578 4134 
L 1259 4134 
L 1259 2753 
L 3481 2753 
L 3481 2222 
L 1259 2222 
L 1259 531 
L 3634 531 
L 3634 0 
L 628 0 
L 628 4666 
z
" transform="scale(0.015625)"/>
       </defs>
       <use xlink:href="#DejaVuSans-30"/>
       <use xlink:href="#DejaVuSans-38" x="63.623047"/>
       <use xlink:href="#DejaVuSans-20" x="127.246094"/>
       <use xlink:href="#DejaVuSans-4e" x="159.033203"/>
       <use xlink:href="#DejaVuSans-6f" x="233.837891"/>
       <use xlink:href="#DejaVuSans-72" x="295.019531"/>
       <use xlink:href="#DejaVuSans-6d" x="334.382812"/>
       <use xlink:href="#DejaVuSans-2d" x="431.794922"/>
       <use xlink:href="#DejaVuSans-54" x="458.753906"/>
       <use xlink:href="#DejaVuSans-6f" x="502.837891"/>
       <use xlink:href="#DejaVuSans-72" x="564.019531"/>
       <use xlink:href="#DejaVuSans-45" x="605.132812"/>
      </g>
     </g>
    </g>
    <g id="xtick_3">
     <g id="line2d_3">
      <g>
       <use xlink:href="#me40f074fce" x="611.328125" y="294.118125" style="stroke: #000000; stroke-width: 0.8"/>
      </g>
     </g>
     <g id="text_3">
      <!-- 09 TorE-Norm -->
      <g transform="translate(589.328265 354.393097)rotate(-45)scale(0.1 -0.1)">
       <defs>
        <path id="DejaVuSans-39" d="M 703 97 
L 703 672 
Q 941 559 1184 500 
Q 1428 441 1663 441 
Q 2288 441 2617 861 
Q 2947 1281 2994 2138 
Q 2813 1869 2534 1725 
Q 2256 1581 1919 1581 
Q 1219 1581 811 2004 
Q 403 2428 403 3163 
Q 403 3881 828 4315 
Q 1253 4750 1959 4750 
Q 2769 4750 3195 4129 
Q 3622 3509 3622 2328 
Q 3622 1225 3098 567 
Q 2575 -91 1691 -91 
Q 1453 -91 1209 -44 
Q 966 3 703 97 
z
M 1959 2075 
Q 2384 2075 2632 2365 
Q 2881 2656 2881 3163 
Q 2881 3666 2632 3958 
Q 2384 4250 1959 4250 
Q 1534 4250 1286 3958 
Q 1038 3666 1038 3163 
Q 1038 2656 1286 2365 
Q 1534 2075 1959 2075 
z
" transform="scale(0.015625)"/>
       </defs>
       <use xlink:href="#DejaVuSans-30"/>
       <use xlink:href="#DejaVuSans-39" x="63.623047"/>
       <use xlink:href="#DejaVuSans-20" x="127.246094"/>
       <use xlink:href="#DejaVuSans-54" x="159.033203"/>
       <use xlink:href="#DejaVuSans-6f" x="203.117188"/>
       <use xlink:href="#DejaVuSans-72" x="264.298828"/>
       <use xlink:href="#DejaVuSans-45" x="305.412109"/>
       <use xlink:href="#DejaVuSans-2d" x="368.595703"/>
       <use xlink:href="#DejaVuSans-4e" x="404.679688"/>
       <use xlink:href="#DejaVuSans-6f" x="479.484375"/>
       <use xlink:href="#DejaVuSans-72" x="540.666016"/>
       <use xlink:href="#DejaVuSans-6d" x="580.029297"/>
      </g>
     </g>
    </g>
    <g id="xtick_4">
     <g id="line2d_4">
      <g>
       <use xlink:href="#me40f074fce" x="797.328125" y="294.118125" style="stroke: #000000; stroke-width: 0.8"/>
      </g>
     </g>
     <g id="text_4">
      <!-- 10 Norm-TorS -->
      <g transform="translate(775.640387 353.768854)rotate(-45)scale(0.1 -0.1)">
       <defs>
        <path id="DejaVuSans-53" d="M 3425 4513 
L 3425 3897 
Q 3066 4069 2747 4153 
Q 2428 4238 2131 4238 
Q 1616 4238 1336 4038 
Q 1056 3838 1056 3469 
Q 1056 3159 1242 3001 
Q 1428 2844 1947 2747 
L 2328 2669 
Q 3034 2534 3370 2195 
Q 3706 1856 3706 1288 
Q 3706 609 3251 259 
Q 2797 -91 1919 -91 
Q 1588 -91 1214 -16 
Q 841 59 441 206 
L 441 856 
Q 825 641 1194 531 
Q 1563 422 1919 422 
Q 2459 422 2753 634 
Q 3047 847 3047 1241 
Q 3047 1584 2836 1778 
Q 2625 1972 2144 2069 
L 1759 2144 
Q 1053 2284 737 2584 
Q 422 2884 422 3419 
Q 422 4038 858 4394 
Q 1294 4750 2059 4750 
Q 2388 4750 2728 4690 
Q 3069 4631 3425 4513 
z
" transform="scale(0.015625)"/>
       </defs>
       <use xlink:href="#DejaVuSans-31"/>
       <use xlink:href="#DejaVuSans-30" x="63.623047"/>
       <use xlink:href="#DejaVuSans-20" x="127.246094"/>
       <use xlink:href="#DejaVuSans-4e" x="159.033203"/>
       <use xlink:href="#DejaVuSans-6f" x="233.837891"/>
       <use xlink:href="#DejaVuSans-72" x="295.019531"/>
       <use xlink:href="#DejaVuSans-6d" x="334.382812"/>
       <use xlink:href="#DejaVuSans-2d" x="431.794922"/>
       <use xlink:href="#DejaVuSans-54" x="458.753906"/>
       <use xlink:href="#DejaVuSans-6f" x="502.837891"/>
       <use xlink:href="#DejaVuSans-72" x="564.019531"/>
       <use xlink:href="#DejaVuSans-53" x="605.132812"/>
      </g>
     </g>
    </g>
    <g id="xtick_5">
     <g id="line2d_5">
      <g>
       <use xlink:href="#me40f074fce" x="983.328125" y="294.118125" style="stroke: #000000; stroke-width: 0.8"/>
      </g>
     </g>
     <g id="text_5">
      <!-- 11 TorS-Norm -->
      <g transform="translate(961.317769 354.414089)rotate(-45)scale(0.1 -0.1)">
       <use xlink:href="#DejaVuSans-31"/>
       <use xlink:href="#DejaVuSans-31" x="63.623047"/>
       <use xlink:href="#DejaVuSans-20" x="127.246094"/>
       <use xlink:href="#DejaVuSans-54" x="159.033203"/>
       <use xlink:href="#DejaVuSans-6f" x="203.117188"/>
       <use xlink:href="#DejaVuSans-72" x="264.298828"/>
       <use xlink:href="#DejaVuSans-53" x="305.412109"/>
       <use xlink:href="#DejaVuSans-2d" x="368.888672"/>
       <use xlink:href="#DejaVuSans-4e" x="404.972656"/>
       <use xlink:href="#DejaVuSans-6f" x="479.777344"/>
       <use xlink:href="#DejaVuSans-72" x="540.958984"/>
       <use xlink:href="#DejaVuSans-6d" x="580.322266"/>
      </g>
     </g>
    </g>
    <g id="text_6">
     <!-- Scenarios -->
     <g transform="translate(586.986719 371.931231)scale(0.1 -0.1)">
      <defs>
       <path id="DejaVuSans-63" d="M 3122 3366 
L 3122 2828 
Q 2878 2963 2633 3030 
Q 2388 3097 2138 3097 
Q 1578 3097 1268 2742 
Q 959 2388 959 1747 
Q 959 1106 1268 751 
Q 1578 397 2138 397 
Q 2388 397 2633 464 
Q 2878 531 3122 666 
L 3122 134 
Q 2881 22 2623 -34 
Q 2366 -91 2075 -91 
Q 1284 -91 818 406 
Q 353 903 353 1747 
Q 353 2603 823 3093 
Q 1294 3584 2113 3584 
Q 2378 3584 2631 3529 
Q 2884 3475 3122 3366 
z
" transform="scale(0.015625)"/>
       <path id="DejaVuSans-65" d="M 3597 1894 
L 3597 1613 
L 953 1613 
Q 991 1019 1311 708 
Q 1631 397 2203 397 
Q 2534 397 2845 478 
Q 3156 559 3463 722 
L 3463 178 
Q 3153 47 2828 -22 
Q 2503 -91 2169 -91 
Q 1331 -91 842 396 
Q 353 884 353 1716 
Q 353 2575 817 3079 
Q 1281 3584 2069 3584 
Q 2775 3584 3186 3129 
Q 3597 2675 3597 1894 
z
M 3022 2063 
Q 3016 2534 2758 2815 
Q 2500 3097 2075 3097 
Q 1594 3097 1305 2825 
Q 1016 2553 972 2059 
L 3022 2063 
z
" transform="scale(0.015625)"/>
       <path id="DejaVuSans-6e" d="M 3513 2113 
L 3513 0 
L 2938 0 
L 2938 2094 
Q 2938 2591 2744 2837 
Q 2550 3084 2163 3084 
Q 1697 3084 1428 2787 
Q 1159 2491 1159 1978 
L 1159 0 
L 581 0 
L 581 3500 
L 1159 3500 
L 1159 2956 
Q 1366 3272 1645 3428 
Q 1925 3584 2291 3584 
Q 2894 3584 3203 3211 
Q 3513 2838 3513 2113 
z
" transform="scale(0.015625)"/>
       <path id="DejaVuSans-61" d="M 2194 1759 
Q 1497 1759 1228 1600 
Q 959 1441 959 1056 
Q 959 750 1161 570 
Q 1363 391 1709 391 
Q 2188 391 2477 730 
Q 2766 1069 2766 1631 
L 2766 1759 
L 2194 1759 
z
M 3341 1997 
L 3341 0 
L 2766 0 
L 2766 531 
Q 2569 213 2275 61 
Q 1981 -91 1556 -91 
Q 1019 -91 701 211 
Q 384 513 384 1019 
Q 384 1609 779 1909 
Q 1175 2209 1959 2209 
L 2766 2209 
L 2766 2266 
Q 2766 2663 2505 2880 
Q 2244 3097 1772 3097 
Q 1472 3097 1187 3025 
Q 903 2953 641 2809 
L 641 3341 
Q 956 3463 1253 3523 
Q 1550 3584 1831 3584 
Q 2591 3584 2966 3190 
Q 3341 2797 3341 1997 
z
" transform="scale(0.015625)"/>
       <path id="DejaVuSans-69" d="M 603 3500 
L 1178 3500 
L 1178 0 
L 603 0 
L 603 3500 
z
M 603 4863 
L 1178 4863 
L 1178 4134 
L 603 4134 
L 603 4863 
z
" transform="scale(0.015625)"/>
       <path id="DejaVuSans-73" d="M 2834 3397 
L 2834 2853 
Q 2591 2978 2328 3040 
Q 2066 3103 1784 3103 
Q 1356 3103 1142 2972 
Q 928 2841 928 2578 
Q 928 2378 1081 2264 
Q 1234 2150 1697 2047 
L 1894 2003 
Q 2506 1872 2764 1633 
Q 3022 1394 3022 966 
Q 3022 478 2636 193 
Q 2250 -91 1575 -91 
Q 1294 -91 989 -36 
Q 684 19 347 128 
L 347 722 
Q 666 556 975 473 
Q 1284 391 1588 391 
Q 1994 391 2212 530 
Q 2431 669 2431 922 
Q 2431 1156 2273 1281 
Q 2116 1406 1581 1522 
L 1381 1569 
Q 847 1681 609 1914 
Q 372 2147 372 2553 
Q 372 3047 722 3315 
Q 1072 3584 1716 3584 
Q 2034 3584 2315 3537 
Q 2597 3491 2834 3397 
z
" transform="scale(0.015625)"/>
      </defs>
      <use xlink:href="#DejaVuSans-53"/>
      <use xlink:href="#DejaVuSans-63" x="63.476562"/>
      <use xlink:href="#DejaVuSans-65" x="118.457031"/>
      <use xlink:href="#DejaVuSans-6e" x="179.980469"/>
      <use xlink:href="#DejaVuSans-61" x="243.359375"/>
      <use xlink:href="#DejaVuSans-72" x="304.638672"/>
      <use xlink:href="#DejaVuSans-69" x="345.751953"/>
      <use xlink:href="#DejaVuSans-6f" x="373.535156"/>
      <use xlink:href="#DejaVuSans-73" x="434.716797"/>
     </g>
    </g>
   </g>
   <g id="matplotlib.axis_2">
    <g id="ytick_1">
     <g id="line2d_6">
      <defs>
       <path id="mf1d860e929" d="M 0 0 
L -3.5 0 
" style="stroke: #000000; stroke-width: 0.8"/>
      </defs>
      <g>
       <use xlink:href="#mf1d860e929" x="53.328125" y="283.62572" style="stroke: #000000; stroke-width: 0.8"/>
      </g>
     </g>
     <g id="text_7">
      <!-- 0 -->
      <g transform="translate(39.965625 287.424939)scale(0.1 -0.1)">
       <use xlink:href="#DejaVuSans-30"/>
      </g>
     </g>
    </g>
    <g id="ytick_2">
     <g id="line2d_7">
      <g>
       <use xlink:href="#mf1d860e929" x="53.328125" y="246.382906" style="stroke: #000000; stroke-width: 0.8"/>
      </g>
     </g>
     <g id="text_8">
      <!-- 200 -->
      <g transform="translate(27.240625 250.182124)scale(0.1 -0.1)">
       <defs>
        <path id="DejaVuSans-32" d="M 1228 531 
L 3431 531 
L 3431 0 
L 469 0 
L 469 531 
Q 828 903 1448 1529 
Q 2069 2156 2228 2338 
Q 2531 2678 2651 2914 
Q 2772 3150 2772 3378 
Q 2772 3750 2511 3984 
Q 2250 4219 1831 4219 
Q 1534 4219 1204 4116 
Q 875 4013 500 3803 
L 500 4441 
Q 881 4594 1212 4672 
Q 1544 4750 1819 4750 
Q 2544 4750 2975 4387 
Q 3406 4025 3406 3419 
Q 3406 3131 3298 2873 
Q 3191 2616 2906 2266 
Q 2828 2175 2409 1742 
Q 1991 1309 1228 531 
z
" transform="scale(0.015625)"/>
       </defs>
       <use xlink:href="#DejaVuSans-32"/>
       <use xlink:href="#DejaVuSans-30" x="63.623047"/>
       <use xlink:href="#DejaVuSans-30" x="127.246094"/>
      </g>
     </g>
    </g>
    <g id="ytick_3">
     <g id="line2d_8">
      <g>
       <use xlink:href="#mf1d860e929" x="53.328125" y="209.140091" style="stroke: #000000; stroke-width: 0.8"/>
      </g>
     </g>
     <g id="text_9">
      <!-- 400 -->
      <g transform="translate(27.240625 212.93931)scale(0.1 -0.1)">
       <defs>
        <path id="DejaVuSans-34" d="M 2419 4116 
L 825 1625 
L 2419 1625 
L 2419 4116 
z
M 2253 4666 
L 3047 4666 
L 3047 1625 
L 3713 1625 
L 3713 1100 
L 3047 1100 
L 3047 0 
L 2419 0 
L 2419 1100 
L 313 1100 
L 313 1709 
L 2253 4666 
z
" transform="scale(0.015625)"/>
       </defs>
       <use xlink:href="#DejaVuSans-34"/>
       <use xlink:href="#DejaVuSans-30" x="63.623047"/>
       <use xlink:href="#DejaVuSans-30" x="127.246094"/>
      </g>
     </g>
    </g>
    <g id="ytick_4">
     <g id="line2d_9">
      <g>
       <use xlink:href="#mf1d860e929" x="53.328125" y="171.897276" style="stroke: #000000; stroke-width: 0.8"/>
      </g>
     </g>
     <g id="text_10">
      <!-- 600 -->
      <g transform="translate(27.240625 175.696495)scale(0.1 -0.1)">
       <defs>
        <path id="DejaVuSans-36" d="M 2113 2584 
Q 1688 2584 1439 2293 
Q 1191 2003 1191 1497 
Q 1191 994 1439 701 
Q 1688 409 2113 409 
Q 2538 409 2786 701 
Q 3034 994 3034 1497 
Q 3034 2003 2786 2293 
Q 2538 2584 2113 2584 
z
M 3366 4563 
L 3366 3988 
Q 3128 4100 2886 4159 
Q 2644 4219 2406 4219 
Q 1781 4219 1451 3797 
Q 1122 3375 1075 2522 
Q 1259 2794 1537 2939 
Q 1816 3084 2150 3084 
Q 2853 3084 3261 2657 
Q 3669 2231 3669 1497 
Q 3669 778 3244 343 
Q 2819 -91 2113 -91 
Q 1303 -91 875 529 
Q 447 1150 447 2328 
Q 447 3434 972 4092 
Q 1497 4750 2381 4750 
Q 2619 4750 2861 4703 
Q 3103 4656 3366 4563 
z
" transform="scale(0.015625)"/>
       </defs>
       <use xlink:href="#DejaVuSans-36"/>
       <use xlink:href="#DejaVuSans-30" x="63.623047"/>
       <use xlink:href="#DejaVuSans-30" x="127.246094"/>
      </g>
     </g>
    </g>
    <g id="ytick_5">
     <g id="line2d_10">
      <g>
       <use xlink:href="#mf1d860e929" x="53.328125" y="134.654462" style="stroke: #000000; stroke-width: 0.8"/>
      </g>
     </g>
     <g id="text_11">
      <!-- 800 -->
      <g transform="translate(27.240625 138.45368)scale(0.1 -0.1)">
       <use xlink:href="#DejaVuSans-38"/>
       <use xlink:href="#DejaVuSans-30" x="63.623047"/>
       <use xlink:href="#DejaVuSans-30" x="127.246094"/>
      </g>
     </g>
    </g>
    <g id="ytick_6">
     <g id="line2d_11">
      <g>
       <use xlink:href="#mf1d860e929" x="53.328125" y="97.411647" style="stroke: #000000; stroke-width: 0.8"/>
      </g>
     </g>
     <g id="text_12">
      <!-- 1000 -->
      <g transform="translate(20.878125 101.210866)scale(0.1 -0.1)">
       <use xlink:href="#DejaVuSans-31"/>
       <use xlink:href="#DejaVuSans-30" x="63.623047"/>
       <use xlink:href="#DejaVuSans-30" x="127.246094"/>
       <use xlink:href="#DejaVuSans-30" x="190.869141"/>
      </g>
     </g>
    </g>
    <g id="ytick_7">
     <g id="line2d_12">
      <g>
       <use xlink:href="#mf1d860e929" x="53.328125" y="60.168832" style="stroke: #000000; stroke-width: 0.8"/>
      </g>
     </g>
     <g id="text_13">
      <!-- 1200 -->
      <g transform="translate(20.878125 63.968051)scale(0.1 -0.1)">
       <use xlink:href="#DejaVuSans-31"/>
       <use xlink:href="#DejaVuSans-32" x="63.623047"/>
       <use xlink:href="#DejaVuSans-30" x="127.246094"/>
       <use xlink:href="#DejaVuSans-30" x="190.869141"/>
      </g>
     </g>
    </g>
    <g id="ytick_8">
     <g id="line2d_13">
      <g>
       <use xlink:href="#mf1d860e929" x="53.328125" y="22.926018" style="stroke: #000000; stroke-width: 0.8"/>
      </g>
     </g>
     <g id="text_14">
      <!-- 1400 -->
      <g transform="translate(20.878125 26.725237)scale(0.1 -0.1)">
       <use xlink:href="#DejaVuSans-31"/>
       <use xlink:href="#DejaVuSans-34" x="63.623047"/>
       <use xlink:href="#DejaVuSans-30" x="127.246094"/>
       <use xlink:href="#DejaVuSans-30" x="190.869141"/>
      </g>
     </g>
    </g>
    <g id="text_15">
     <!-- Avg. Jitter buffer delay (ms) -->
     <g transform="translate(14.798437 227.375156)rotate(-90)scale(0.1 -0.1)">
      <defs>
       <path id="DejaVuSans-41" d="M 2188 4044 
L 1331 1722 
L 3047 1722 
L 2188 4044 
z
M 1831 4666 
L 2547 4666 
L 4325 0 
L 3669 0 
L 3244 1197 
L 1141 1197 
L 716 0 
L 50 0 
L 1831 4666 
z
" transform="scale(0.015625)"/>
       <path id="DejaVuSans-76" d="M 191 3500 
L 800 3500 
L 1894 563 
L 2988 3500 
L 3597 3500 
L 2284 0 
L 1503 0 
L 191 3500 
z
" transform="scale(0.015625)"/>
       <path id="DejaVuSans-67" d="M 2906 1791 
Q 2906 2416 2648 2759 
Q 2391 3103 1925 3103 
Q 1463 3103 1205 2759 
Q 947 2416 947 1791 
Q 947 1169 1205 825 
Q 1463 481 1925 481 
Q 2391 481 2648 825 
Q 2906 1169 2906 1791 
z
M 3481 434 
Q 3481 -459 3084 -895 
Q 2688 -1331 1869 -1331 
Q 1566 -1331 1297 -1286 
Q 1028 -1241 775 -1147 
L 775 -588 
Q 1028 -725 1275 -790 
Q 1522 -856 1778 -856 
Q 2344 -856 2625 -561 
Q 2906 -266 2906 331 
L 2906 616 
Q 2728 306 2450 153 
Q 2172 0 1784 0 
Q 1141 0 747 490 
Q 353 981 353 1791 
Q 353 2603 747 3093 
Q 1141 3584 1784 3584 
Q 2172 3584 2450 3431 
Q 2728 3278 2906 2969 
L 2906 3500 
L 3481 3500 
L 3481 434 
z
" transform="scale(0.015625)"/>
       <path id="DejaVuSans-2e" d="M 684 794 
L 1344 794 
L 1344 0 
L 684 0 
L 684 794 
z
" transform="scale(0.015625)"/>
       <path id="DejaVuSans-4a" d="M 628 4666 
L 1259 4666 
L 1259 325 
Q 1259 -519 939 -900 
Q 619 -1281 -91 -1281 
L -331 -1281 
L -331 -750 
L -134 -750 
Q 284 -750 456 -515 
Q 628 -281 628 325 
L 628 4666 
z
" transform="scale(0.015625)"/>
       <path id="DejaVuSans-74" d="M 1172 4494 
L 1172 3500 
L 2356 3500 
L 2356 3053 
L 1172 3053 
L 1172 1153 
Q 1172 725 1289 603 
Q 1406 481 1766 481 
L 2356 481 
L 2356 0 
L 1766 0 
Q 1100 0 847 248 
Q 594 497 594 1153 
L 594 3053 
L 172 3053 
L 172 3500 
L 594 3500 
L 594 4494 
L 1172 4494 
z
" transform="scale(0.015625)"/>
       <path id="DejaVuSans-62" d="M 3116 1747 
Q 3116 2381 2855 2742 
Q 2594 3103 2138 3103 
Q 1681 3103 1420 2742 
Q 1159 2381 1159 1747 
Q 1159 1113 1420 752 
Q 1681 391 2138 391 
Q 2594 391 2855 752 
Q 3116 1113 3116 1747 
z
M 1159 2969 
Q 1341 3281 1617 3432 
Q 1894 3584 2278 3584 
Q 2916 3584 3314 3078 
Q 3713 2572 3713 1747 
Q 3713 922 3314 415 
Q 2916 -91 2278 -91 
Q 1894 -91 1617 61 
Q 1341 213 1159 525 
L 1159 0 
L 581 0 
L 581 4863 
L 1159 4863 
L 1159 2969 
z
" transform="scale(0.015625)"/>
       <path id="DejaVuSans-75" d="M 544 1381 
L 544 3500 
L 1119 3500 
L 1119 1403 
Q 1119 906 1312 657 
Q 1506 409 1894 409 
Q 2359 409 2629 706 
Q 2900 1003 2900 1516 
L 2900 3500 
L 3475 3500 
L 3475 0 
L 2900 0 
L 2900 538 
Q 2691 219 2414 64 
Q 2138 -91 1772 -91 
Q 1169 -91 856 284 
Q 544 659 544 1381 
z
M 1991 3584 
L 1991 3584 
z
" transform="scale(0.015625)"/>
       <path id="DejaVuSans-66" d="M 2375 4863 
L 2375 4384 
L 1825 4384 
Q 1516 4384 1395 4259 
Q 1275 4134 1275 3809 
L 1275 3500 
L 2222 3500 
L 2222 3053 
L 1275 3053 
L 1275 0 
L 697 0 
L 697 3053 
L 147 3053 
L 147 3500 
L 697 3500 
L 697 3744 
Q 697 4328 969 4595 
Q 1241 4863 1831 4863 
L 2375 4863 
z
" transform="scale(0.015625)"/>
       <path id="DejaVuSans-64" d="M 2906 2969 
L 2906 4863 
L 3481 4863 
L 3481 0 
L 2906 0 
L 2906 525 
Q 2725 213 2448 61 
Q 2172 -91 1784 -91 
Q 1150 -91 751 415 
Q 353 922 353 1747 
Q 353 2572 751 3078 
Q 1150 3584 1784 3584 
Q 2172 3584 2448 3432 
Q 2725 3281 2906 2969 
z
M 947 1747 
Q 947 1113 1208 752 
Q 1469 391 1925 391 
Q 2381 391 2643 752 
Q 2906 1113 2906 1747 
Q 2906 2381 2643 2742 
Q 2381 3103 1925 3103 
Q 1469 3103 1208 2742 
Q 947 2381 947 1747 
z
" transform="scale(0.015625)"/>
       <path id="DejaVuSans-6c" d="M 603 4863 
L 1178 4863 
L 1178 0 
L 603 0 
L 603 4863 
z
" transform="scale(0.015625)"/>
       <path id="DejaVuSans-79" d="M 2059 -325 
Q 1816 -950 1584 -1140 
Q 1353 -1331 966 -1331 
L 506 -1331 
L 506 -850 
L 844 -850 
Q 1081 -850 1212 -737 
Q 1344 -625 1503 -206 
L 1606 56 
L 191 3500 
L 800 3500 
L 1894 763 
L 2988 3500 
L 3597 3500 
L 2059 -325 
z
" transform="scale(0.015625)"/>
       <path id="DejaVuSans-28" d="M 1984 4856 
Q 1566 4138 1362 3434 
Q 1159 2731 1159 2009 
Q 1159 1288 1364 580 
Q 1569 -128 1984 -844 
L 1484 -844 
Q 1016 -109 783 600 
Q 550 1309 550 2009 
Q 550 2706 781 3412 
Q 1013 4119 1484 4856 
L 1984 4856 
z
" transform="scale(0.015625)"/>
       <path id="DejaVuSans-29" d="M 513 4856 
L 1013 4856 
Q 1481 4119 1714 3412 
Q 1947 2706 1947 2009 
Q 1947 1309 1714 600 
Q 1481 -109 1013 -844 
L 513 -844 
Q 928 -128 1133 580 
Q 1338 1288 1338 2009 
Q 1338 2731 1133 3434 
Q 928 4138 513 4856 
z
" transform="scale(0.015625)"/>
      </defs>
      <use xlink:href="#DejaVuSans-41"/>
      <use xlink:href="#DejaVuSans-76" x="62.533203"/>
      <use xlink:href="#DejaVuSans-67" x="121.712891"/>
      <use xlink:href="#DejaVuSans-2e" x="185.189453"/>
      <use xlink:href="#DejaVuSans-20" x="216.976562"/>
      <use xlink:href="#DejaVuSans-4a" x="248.763672"/>
      <use xlink:href="#DejaVuSans-69" x="278.255859"/>
      <use xlink:href="#DejaVuSans-74" x="306.039062"/>
      <use xlink:href="#DejaVuSans-74" x="345.248047"/>
      <use xlink:href="#DejaVuSans-65" x="384.457031"/>
      <use xlink:href="#DejaVuSans-72" x="445.980469"/>
      <use xlink:href="#DejaVuSans-20" x="487.09375"/>
      <use xlink:href="#DejaVuSans-62" x="518.880859"/>
      <use xlink:href="#DejaVuSans-75" x="582.357422"/>
      <use xlink:href="#DejaVuSans-66" x="645.736328"/>
      <use xlink:href="#DejaVuSans-66" x="680.941406"/>
      <use xlink:href="#DejaVuSans-65" x="716.146484"/>
      <use xlink:href="#DejaVuSans-72" x="777.669922"/>
      <use xlink:href="#DejaVuSans-20" x="818.783203"/>
      <use xlink:href="#DejaVuSans-64" x="850.570312"/>
      <use xlink:href="#DejaVuSans-65" x="914.046875"/>
      <use xlink:href="#DejaVuSans-6c" x="975.570312"/>
      <use xlink:href="#DejaVuSans-61" x="1003.353516"/>
      <use xlink:href="#DejaVuSans-79" x="1064.632812"/>
      <use xlink:href="#DejaVuSans-20" x="1123.8125"/>
      <use xlink:href="#DejaVuSans-28" x="1155.599609"/>
      <use xlink:href="#DejaVuSans-6d" x="1194.613281"/>
      <use xlink:href="#DejaVuSans-73" x="1292.025391"/>
      <use xlink:href="#DejaVuSans-29" x="1344.125"/>
     </g>
    </g>
   </g>
   <g id="line2d_14">
    <path d="M 174.228125 256.631657 
L 230.028125 256.631657 
L 230.028125 247.86843 
L 174.228125 247.86843 
L 174.228125 256.631657 
" clip-path="url(#p005e689ea4)" style="fill: none; stroke: #d7191c; stroke-linecap: square"/>
   </g>
   <g id="line2d_15">
    <path d="M 202.128125 256.631657 
L 202.128125 269.768139 
" clip-path="url(#p005e689ea4)" style="fill: none; stroke: #d7191c; stroke-linecap: square"/>
   </g>
   <g id="line2d_16">
    <path d="M 202.128125 247.86843 
L 202.128125 234.745988 
" clip-path="url(#p005e689ea4)" style="fill: none; stroke: #d7191c; stroke-linecap: square"/>
   </g>
   <g id="line2d_17">
    <path d="M 188.178125 269.768139 
L 216.078125 269.768139 
" clip-path="url(#p005e689ea4)" style="fill: none; stroke: #d7191c; stroke-linecap: square"/>
   </g>
   <g id="line2d_18">
    <path d="M 188.178125 234.745988 
L 216.078125 234.745988 
" clip-path="url(#p005e689ea4)" style="fill: none; stroke: #d7191c; stroke-linecap: square"/>
   </g>
   <g id="line2d_19">
    <path d="M 360.228125 253.187673 
L 416.028125 253.187673 
L 416.028125 215.605201 
L 360.228125 215.605201 
L 360.228125 253.187673 
" clip-path="url(#p005e689ea4)" style="fill: none; stroke: #d7191c; stroke-linecap: square"/>
   </g>
   <g id="line2d_20">
    <path d="M 388.128125 253.187673 
L 388.128125 281.76358 
" clip-path="url(#p005e689ea4)" style="fill: none; stroke: #d7191c; stroke-linecap: square"/>
   </g>
   <g id="line2d_21">
    <path d="M 388.128125 215.605201 
L 388.128125 159.29964 
" clip-path="url(#p005e689ea4)" style="fill: none; stroke: #d7191c; stroke-linecap: square"/>
   </g>
   <g id="line2d_22">
    <path d="M 374.178125 281.76358 
L 402.078125 281.76358 
" clip-path="url(#p005e689ea4)" style="fill: none; stroke: #d7191c; stroke-linecap: square"/>
   </g>
   <g id="line2d_23">
    <path d="M 374.178125 159.29964 
L 402.078125 159.29964 
" clip-path="url(#p005e689ea4)" style="fill: none; stroke: #d7191c; stroke-linecap: square"/>
   </g>
   <g id="line2d_24">
    <path d="M 546.228125 254.403894 
L 602.028125 254.403894 
L 602.028125 223.618454 
L 546.228125 223.618454 
L 546.228125 254.403894 
" clip-path="url(#p005e689ea4)" style="fill: none; stroke: #d7191c; stroke-linecap: square"/>
   </g>
   <g id="line2d_25">
    <path d="M 574.128125 254.403894 
L 574.128125 281.76358 
" clip-path="url(#p005e689ea4)" style="fill: none; stroke: #d7191c; stroke-linecap: square"/>
   </g>
   <g id="line2d_26">
    <path d="M 574.128125 223.618454 
L 574.128125 177.473325 
" clip-path="url(#p005e689ea4)" style="fill: none; stroke: #d7191c; stroke-linecap: square"/>
   </g>
   <g id="line2d_27">
    <path d="M 560.178125 281.76358 
L 588.078125 281.76358 
" clip-path="url(#p005e689ea4)" style="fill: none; stroke: #d7191c; stroke-linecap: square"/>
   </g>
   <g id="line2d_28">
    <path d="M 560.178125 177.473325 
L 588.078125 177.473325 
" clip-path="url(#p005e689ea4)" style="fill: none; stroke: #d7191c; stroke-linecap: square"/>
   </g>
   <g id="line2d_29">
    <path d="M 732.228125 254.101558 
L 788.028125 254.101558 
L 788.028125 166.460492 
L 732.228125 166.460492 
L 732.228125 254.101558 
" clip-path="url(#p005e689ea4)" style="fill: none; stroke: #d7191c; stroke-linecap: square"/>
   </g>
   <g id="line2d_30">
    <path d="M 760.128125 254.101558 
L 760.128125 281.76358 
" clip-path="url(#p005e689ea4)" style="fill: none; stroke: #d7191c; stroke-linecap: square"/>
   </g>
   <g id="line2d_31">
    <path d="M 760.128125 166.460492 
L 760.128125 35.099665 
" clip-path="url(#p005e689ea4)" style="fill: none; stroke: #d7191c; stroke-linecap: square"/>
   </g>
   <g id="line2d_32">
    <path d="M 746.178125 281.76358 
L 774.078125 281.76358 
" clip-path="url(#p005e689ea4)" style="fill: none; stroke: #d7191c; stroke-linecap: square"/>
   </g>
   <g id="line2d_33">
    <path d="M 746.178125 35.099665 
L 774.078125 35.099665 
" clip-path="url(#p005e689ea4)" style="fill: none; stroke: #d7191c; stroke-linecap: square"/>
   </g>
   <g id="line2d_34">
    <path d="M 918.228125 239.426794 
L 974.028125 239.426794 
L 974.028125 164.512645 
L 918.228125 164.512645 
L 918.228125 239.426794 
" clip-path="url(#p005e689ea4)" style="fill: none; stroke: #d7191c; stroke-linecap: square"/>
   </g>
   <g id="line2d_35">
    <path d="M 946.128125 239.426794 
L 946.128125 281.76358 
" clip-path="url(#p005e689ea4)" style="fill: none; stroke: #d7191c; stroke-linecap: square"/>
   </g>
   <g id="line2d_36">
    <path d="M 946.128125 164.512645 
L 946.128125 52.267777 
" clip-path="url(#p005e689ea4)" style="fill: none; stroke: #d7191c; stroke-linecap: square"/>
   </g>
   <g id="line2d_37">
    <path d="M 932.178125 281.76358 
L 960.078125 281.76358 
" clip-path="url(#p005e689ea4)" style="fill: none; stroke: #d7191c; stroke-linecap: square"/>
   </g>
   <g id="line2d_38">
    <path d="M 932.178125 52.267777 
L 960.078125 52.267777 
" clip-path="url(#p005e689ea4)" style="fill: none; stroke: #d7191c; stroke-linecap: square"/>
   </g>
   <g id="line2d_39">
    <path d="M 248.628125 256.633498 
L 304.428125 256.633498 
L 304.428125 247.730325 
L 248.628125 247.730325 
L 248.628125 256.633498 
" clip-path="url(#p005e689ea4)" style="fill: none; stroke: #2c7bb6; stroke-linecap: square"/>
   </g>
   <g id="line2d_40">
    <path d="M 276.528125 256.633498 
L 276.528125 269.916818 
" clip-path="url(#p005e689ea4)" style="fill: none; stroke: #2c7bb6; stroke-linecap: square"/>
   </g>
   <g id="line2d_41">
    <path d="M 276.528125 247.730325 
L 276.528125 234.394226 
" clip-path="url(#p005e689ea4)" style="fill: none; stroke: #2c7bb6; stroke-linecap: square"/>
   </g>
   <g id="line2d_42">
    <path d="M 262.578125 269.916818 
L 290.478125 269.916818 
" clip-path="url(#p005e689ea4)" style="fill: none; stroke: #2c7bb6; stroke-linecap: square"/>
   </g>
   <g id="line2d_43">
    <path d="M 262.578125 234.394226 
L 290.478125 234.394226 
" clip-path="url(#p005e689ea4)" style="fill: none; stroke: #2c7bb6; stroke-linecap: square"/>
   </g>
   <g id="line2d_44">
    <path d="M 434.628125 253.013982 
L 490.428125 253.013982 
L 490.428125 216.903509 
L 434.628125 216.903509 
L 434.628125 253.013982 
" clip-path="url(#p005e689ea4)" style="fill: none; stroke: #2c7bb6; stroke-linecap: square"/>
   </g>
   <g id="line2d_45">
    <path d="M 462.528125 253.013982 
L 462.528125 281.76358 
" clip-path="url(#p005e689ea4)" style="fill: none; stroke: #2c7bb6; stroke-linecap: square"/>
   </g>
   <g id="line2d_46">
    <path d="M 462.528125 216.903509 
L 462.528125 162.879455 
" clip-path="url(#p005e689ea4)" style="fill: none; stroke: #2c7bb6; stroke-linecap: square"/>
   </g>
   <g id="line2d_47">
    <path d="M 448.578125 281.76358 
L 476.478125 281.76358 
" clip-path="url(#p005e689ea4)" style="fill: none; stroke: #2c7bb6; stroke-linecap: square"/>
   </g>
   <g id="line2d_48">
    <path d="M 448.578125 162.879455 
L 476.478125 162.879455 
" clip-path="url(#p005e689ea4)" style="fill: none; stroke: #2c7bb6; stroke-linecap: square"/>
   </g>
   <g id="line2d_49">
    <path d="M 620.628125 254.662181 
L 676.428125 254.662181 
L 676.428125 224.590471 
L 620.628125 224.590471 
L 620.628125 254.662181 
" clip-path="url(#p005e689ea4)" style="fill: none; stroke: #2c7bb6; stroke-linecap: square"/>
   </g>
   <g id="line2d_50">
    <path d="M 648.528125 254.662181 
L 648.528125 281.76358 
" clip-path="url(#p005e689ea4)" style="fill: none; stroke: #2c7bb6; stroke-linecap: square"/>
   </g>
   <g id="line2d_51">
    <path d="M 648.528125 224.590471 
L 648.528125 179.515125 
" clip-path="url(#p005e689ea4)" style="fill: none; stroke: #2c7bb6; stroke-linecap: square"/>
   </g>
   <g id="line2d_52">
    <path d="M 634.578125 281.76358 
L 662.478125 281.76358 
" clip-path="url(#p005e689ea4)" style="fill: none; stroke: #2c7bb6; stroke-linecap: square"/>
   </g>
   <g id="line2d_53">
    <path d="M 634.578125 179.515125 
L 662.478125 179.515125 
" clip-path="url(#p005e689ea4)" style="fill: none; stroke: #2c7bb6; stroke-linecap: square"/>
   </g>
   <g id="line2d_54">
    <path d="M 806.628125 254.39506 
L 862.428125 254.39506 
L 862.428125 171.049748 
L 806.628125 171.049748 
L 806.628125 254.39506 
" clip-path="url(#p005e689ea4)" style="fill: none; stroke: #2c7bb6; stroke-linecap: square"/>
   </g>
   <g id="line2d_55">
    <path d="M 834.528125 254.39506 
L 834.528125 281.76358 
" clip-path="url(#p005e689ea4)" style="fill: none; stroke: #2c7bb6; stroke-linecap: square"/>
   </g>
   <g id="line2d_56">
    <path d="M 834.528125 171.049748 
L 834.528125 46.145205 
" clip-path="url(#p005e689ea4)" style="fill: none; stroke: #2c7bb6; stroke-linecap: square"/>
   </g>
   <g id="line2d_57">
    <path d="M 820.578125 281.76358 
L 848.478125 281.76358 
" clip-path="url(#p005e689ea4)" style="fill: none; stroke: #2c7bb6; stroke-linecap: square"/>
   </g>
   <g id="line2d_58">
    <path d="M 820.578125 46.145205 
L 848.478125 46.145205 
" clip-path="url(#p005e689ea4)" style="fill: none; stroke: #2c7bb6; stroke-linecap: square"/>
   </g>
   <g id="line2d_59">
    <path d="M 992.628125 240.411101 
L 1048.428125 240.411101 
L 1048.428125 158.051985 
L 992.628125 158.051985 
L 992.628125 240.411101 
" clip-path="url(#p005e689ea4)" style="fill: none; stroke: #2c7bb6; stroke-linecap: square"/>
   </g>
   <g id="line2d_60">
    <path d="M 1020.528125 240.411101 
L 1020.528125 281.76358 
" clip-path="url(#p005e689ea4)" style="fill: none; stroke: #2c7bb6; stroke-linecap: square"/>
   </g>
   <g id="line2d_61">
    <path d="M 1020.528125 158.051985 
L 1020.528125 34.67267 
" clip-path="url(#p005e689ea4)" style="fill: none; stroke: #2c7bb6; stroke-linecap: square"/>
   </g>
   <g id="line2d_62">
    <path d="M 1006.578125 281.76358 
L 1034.478125 281.76358 
" clip-path="url(#p005e689ea4)" style="fill: none; stroke: #2c7bb6; stroke-linecap: square"/>
   </g>
   <g id="line2d_63">
    <path d="M 1006.578125 34.67267 
L 1034.478125 34.67267 
" clip-path="url(#p005e689ea4)" style="fill: none; stroke: #2c7bb6; stroke-linecap: square"/>
   </g>
   <g id="line2d_64"/>
   <g id="line2d_65"/>
   <g id="line2d_66">
    <path d="M 174.228125 253.051784 
L 230.028125 253.051784 
" clip-path="url(#p005e689ea4)" style="fill: none; stroke: #d7191c; stroke-linecap: square"/>
   </g>
   <g id="line2d_67">
    <path d="M 360.228125 242.51013 
L 416.028125 242.51013 
" clip-path="url(#p005e689ea4)" style="fill: none; stroke: #d7191c; stroke-linecap: square"/>
   </g>
   <g id="line2d_68">
    <path d="M 546.228125 246.094608 
L 602.028125 246.094608 
" clip-path="url(#p005e689ea4)" style="fill: none; stroke: #d7191c; stroke-linecap: square"/>
   </g>
   <g id="line2d_69">
    <path d="M 732.228125 240.807923 
L 788.028125 240.807923 
" clip-path="url(#p005e689ea4)" style="fill: none; stroke: #d7191c; stroke-linecap: square"/>
   </g>
   <g id="line2d_70">
    <path d="M 918.228125 221.463759 
L 974.028125 221.463759 
" clip-path="url(#p005e689ea4)" style="fill: none; stroke: #d7191c; stroke-linecap: square"/>
   </g>
   <g id="line2d_71">
    <path d="M 248.628125 252.881746 
L 304.428125 252.881746 
" clip-path="url(#p005e689ea4)" style="fill: none; stroke: #2c7bb6; stroke-linecap: square"/>
   </g>
   <g id="line2d_72">
    <path d="M 434.628125 242.485773 
L 490.428125 242.485773 
" clip-path="url(#p005e689ea4)" style="fill: none; stroke: #2c7bb6; stroke-linecap: square"/>
   </g>
   <g id="line2d_73">
    <path d="M 620.628125 246.447117 
L 676.428125 246.447117 
" clip-path="url(#p005e689ea4)" style="fill: none; stroke: #2c7bb6; stroke-linecap: square"/>
   </g>
   <g id="line2d_74">
    <path d="M 806.628125 241.564287 
L 862.428125 241.564287 
" clip-path="url(#p005e689ea4)" style="fill: none; stroke: #2c7bb6; stroke-linecap: square"/>
   </g>
   <g id="line2d_75">
    <path d="M 992.628125 221.137278 
L 1048.428125 221.137278 
" clip-path="url(#p005e689ea4)" style="fill: none; stroke: #2c7bb6; stroke-linecap: square"/>
   </g>
   <g id="patch_3">
    <path d="M 53.328125 294.118125 
L 53.328125 22.318125 
" style="fill: none; stroke: #000000; stroke-width: 0.8; stroke-linejoin: miter; stroke-linecap: square"/>
   </g>
   <g id="patch_4">
    <path d="M 1169.328125 294.118125 
L 1169.328125 22.318125 
" style="fill: none; stroke: #000000; stroke-width: 0.8; stroke-linejoin: miter; stroke-linecap: square"/>
   </g>
   <g id="patch_5">
    <path d="M 53.328125 294.118125 
L 1169.328125 294.118125 
" style="fill: none; stroke: #000000; stroke-width: 0.8; stroke-linejoin: miter; stroke-linecap: square"/>
   </g>
   <g id="patch_6">
    <path d="M 53.328125 22.318125 
L 1169.328125 22.318125 
" style="fill: none; stroke: #000000; stroke-width: 0.8; stroke-linejoin: miter; stroke-linecap: square"/>
   </g>
   <g id="text_16">
    <!-- Avg. Jitter Buffer Delay of audio data in calls (Close up) -->
    <g transform="translate(445.963437 16.318125)scale(0.12 -0.12)">
     <defs>
      <path id="DejaVuSans-42" d="M 1259 2228 
L 1259 519 
L 2272 519 
Q 2781 519 3026 730 
Q 3272 941 3272 1375 
Q 3272 1813 3026 2020 
Q 2781 2228 2272 2228 
L 1259 2228 
z
M 1259 4147 
L 1259 2741 
L 2194 2741 
Q 2656 2741 2882 2914 
Q 3109 3088 3109 3444 
Q 3109 3797 2882 3972 
Q 2656 4147 2194 4147 
L 1259 4147 
z
M 628 4666 
L 2241 4666 
Q 2963 4666 3353 4366 
Q 3744 4066 3744 3513 
Q 3744 3084 3544 2831 
Q 3344 2578 2956 2516 
Q 3422 2416 3680 2098 
Q 3938 1781 3938 1306 
Q 3938 681 3513 340 
Q 3088 0 2303 0 
L 628 0 
L 628 4666 
z
" transform="scale(0.015625)"/>
      <path id="DejaVuSans-44" d="M 1259 4147 
L 1259 519 
L 2022 519 
Q 2988 519 3436 956 
Q 3884 1394 3884 2338 
Q 3884 3275 3436 3711 
Q 2988 4147 2022 4147 
L 1259 4147 
z
M 628 4666 
L 1925 4666 
Q 3281 4666 3915 4102 
Q 4550 3538 4550 2338 
Q 4550 1131 3912 565 
Q 3275 0 1925 0 
L 628 0 
L 628 4666 
z
" transform="scale(0.015625)"/>
      <path id="DejaVuSans-43" d="M 4122 4306 
L 4122 3641 
Q 3803 3938 3442 4084 
Q 3081 4231 2675 4231 
Q 1875 4231 1450 3742 
Q 1025 3253 1025 2328 
Q 1025 1406 1450 917 
Q 1875 428 2675 428 
Q 3081 428 3442 575 
Q 3803 722 4122 1019 
L 4122 359 
Q 3791 134 3420 21 
Q 3050 -91 2638 -91 
Q 1578 -91 968 557 
Q 359 1206 359 2328 
Q 359 3453 968 4101 
Q 1578 4750 2638 4750 
Q 3056 4750 3426 4639 
Q 3797 4528 4122 4306 
z
" transform="scale(0.015625)"/>
      <path id="DejaVuSans-70" d="M 1159 525 
L 1159 -1331 
L 581 -1331 
L 581 3500 
L 1159 3500 
L 1159 2969 
Q 1341 3281 1617 3432 
Q 1894 3584 2278 3584 
Q 2916 3584 3314 3078 
Q 3713 2572 3713 1747 
Q 3713 922 3314 415 
Q 2916 -91 2278 -91 
Q 1894 -91 1617 61 
Q 1341 213 1159 525 
z
M 3116 1747 
Q 3116 2381 2855 2742 
Q 2594 3103 2138 3103 
Q 1681 3103 1420 2742 
Q 1159 2381 1159 1747 
Q 1159 1113 1420 752 
Q 1681 391 2138 391 
Q 2594 391 2855 752 
Q 3116 1113 3116 1747 
z
" transform="scale(0.015625)"/>
     </defs>
     <use xlink:href="#DejaVuSans-41"/>
     <use xlink:href="#DejaVuSans-76" x="62.533203"/>
     <use xlink:href="#DejaVuSans-67" x="121.712891"/>
     <use xlink:href="#DejaVuSans-2e" x="185.189453"/>
     <use xlink:href="#DejaVuSans-20" x="216.976562"/>
     <use xlink:href="#DejaVuSans-4a" x="248.763672"/>
     <use xlink:href="#DejaVuSans-69" x="278.255859"/>
     <use xlink:href="#DejaVuSans-74" x="306.039062"/>
     <use xlink:href="#DejaVuSans-74" x="345.248047"/>
     <use xlink:href="#DejaVuSans-65" x="384.457031"/>
     <use xlink:href="#DejaVuSans-72" x="445.980469"/>
     <use xlink:href="#DejaVuSans-20" x="487.09375"/>
     <use xlink:href="#DejaVuSans-42" x="518.880859"/>
     <use xlink:href="#DejaVuSans-75" x="587.484375"/>
     <use xlink:href="#DejaVuSans-66" x="650.863281"/>
     <use xlink:href="#DejaVuSans-66" x="686.068359"/>
     <use xlink:href="#DejaVuSans-65" x="721.273438"/>
     <use xlink:href="#DejaVuSans-72" x="782.796875"/>
     <use xlink:href="#DejaVuSans-20" x="823.910156"/>
     <use xlink:href="#DejaVuSans-44" x="855.697266"/>
     <use xlink:href="#DejaVuSans-65" x="932.699219"/>
     <use xlink:href="#DejaVuSans-6c" x="994.222656"/>
     <use xlink:href="#DejaVuSans-61" x="1022.005859"/>
     <use xlink:href="#DejaVuSans-79" x="1083.285156"/>
     <use xlink:href="#DejaVuSans-20" x="1142.464844"/>
     <use xlink:href="#DejaVuSans-6f" x="1174.251953"/>
     <use xlink:href="#DejaVuSans-66" x="1235.433594"/>
     <use xlink:href="#DejaVuSans-20" x="1270.638672"/>
     <use xlink:href="#DejaVuSans-61" x="1302.425781"/>
     <use xlink:href="#DejaVuSans-75" x="1363.705078"/>
     <use xlink:href="#DejaVuSans-64" x="1427.083984"/>
     <use xlink:href="#DejaVuSans-69" x="1490.560547"/>
     <use xlink:href="#DejaVuSans-6f" x="1518.34375"/>
     <use xlink:href="#DejaVuSans-20" x="1579.525391"/>
     <use xlink:href="#DejaVuSans-64" x="1611.3125"/>
     <use xlink:href="#DejaVuSans-61" x="1674.789062"/>
     <use xlink:href="#DejaVuSans-74" x="1736.068359"/>
     <use xlink:href="#DejaVuSans-61" x="1775.277344"/>
     <use xlink:href="#DejaVuSans-20" x="1836.556641"/>
     <use xlink:href="#DejaVuSans-69" x="1868.34375"/>
     <use xlink:href="#DejaVuSans-6e" x="1896.126953"/>
     <use xlink:href="#DejaVuSans-20" x="1959.505859"/>
     <use xlink:href="#DejaVuSans-63" x="1991.292969"/>
     <use xlink:href="#DejaVuSans-61" x="2046.273438"/>
     <use xlink:href="#DejaVuSans-6c" x="2107.552734"/>
     <use xlink:href="#DejaVuSans-6c" x="2135.335938"/>
     <use xlink:href="#DejaVuSans-73" x="2163.119141"/>
     <use xlink:href="#DejaVuSans-20" x="2215.21875"/>
     <use xlink:href="#DejaVuSans-28" x="2247.005859"/>
     <use xlink:href="#DejaVuSans-43" x="2286.019531"/>
     <use xlink:href="#DejaVuSans-6c" x="2355.84375"/>
     <use xlink:href="#DejaVuSans-6f" x="2383.626953"/>
     <use xlink:href="#DejaVuSans-73" x="2444.808594"/>
     <use xlink:href="#DejaVuSans-65" x="2496.908203"/>
     <use xlink:href="#DejaVuSans-20" x="2558.431641"/>
     <use xlink:href="#DejaVuSans-75" x="2590.21875"/>
     <use xlink:href="#DejaVuSans-70" x="2653.597656"/>
     <use xlink:href="#DejaVuSans-29" x="2717.074219"/>
    </g>
   </g>
   <g id="legend_1">
    <g id="patch_7">
     <path d="M 60.328125 59.674375 
L 116.376563 59.674375 
Q 118.376563 59.674375 118.376563 57.674375 
L 118.376563 29.318125 
Q 118.376563 27.318125 116.376563 27.318125 
L 60.328125 27.318125 
Q 58.328125 27.318125 58.328125 29.318125 
L 58.328125 57.674375 
Q 58.328125 59.674375 60.328125 59.674375 
z
" style="fill: #ffffff; opacity: 0.8; stroke: #cccccc; stroke-linejoin: miter"/>
    </g>
    <g id="line2d_76">
     <path d="M 62.328125 35.416562 
L 72.328125 35.416562 
L 82.328125 35.416562 
" style="fill: none; stroke: #d7191c; stroke-width: 1.5; stroke-linecap: square"/>
    </g>
    <g id="text_17">
     <!-- Alice -->
     <g transform="translate(90.328125 38.916562)scale(0.1 -0.1)">
      <use xlink:href="#DejaVuSans-41"/>
      <use xlink:href="#DejaVuSans-6c" x="68.408203"/>
      <use xlink:href="#DejaVuSans-69" x="96.191406"/>
      <use xlink:href="#DejaVuSans-63" x="123.974609"/>
      <use xlink:href="#DejaVuSans-65" x="178.955078"/>
     </g>
    </g>
    <g id="line2d_77">
     <path d="M 62.328125 50.094688 
L 72.328125 50.094688 
L 82.328125 50.094688 
" style="fill: none; stroke: #2c7bb6; stroke-width: 1.5; stroke-linecap: square"/>
    </g>
    <g id="text_18">
     <!-- Bob -->
     <g transform="translate(90.328125 53.594688)scale(0.1 -0.1)">
      <use xlink:href="#DejaVuSans-42"/>
      <use xlink:href="#DejaVuSans-6f" x="68.603516"/>
      <use xlink:href="#DejaVuSans-62" x="129.785156"/>
     </g>
    </g>
   </g>
  </g>
 </g>
 <defs>
  <clipPath id="p005e689ea4">
   <rect x="53.328125" y="22.318125" width="1116" height="271.8"/>
  </clipPath>
 </defs>
</svg>
