<?xml version="1.0" encoding="utf-8" standalone="no"?>
<!DOCTYPE svg PUBLIC "-//W3C//DTD SVG 1.1//EN"
  "http://www.w3.org/Graphics/SVG/1.1/DTD/svg11.dtd">
<svg xmlns:xlink="http://www.w3.org/1999/xlink" width="1285.229688pt" height="331.674375pt" viewBox="0 0 1285.229688 331.674375" xmlns="http://www.w3.org/2000/svg" version="1.1">
 <metadata>
  <rdf:RDF xmlns:dc="http://purl.org/dc/elements/1.1/" xmlns:cc="http://creativecommons.org/ns#" xmlns:rdf="http://www.w3.org/1999/02/22-rdf-syntax-ns#">
   <cc:Work>
    <dc:type rdf:resource="http://purl.org/dc/dcmitype/StillImage"/>
    <dc:date>2023-02-13T10:40:26.701267</dc:date>
    <dc:format>image/svg+xml</dc:format>
    <dc:creator>
     <cc:Agent>
      <dc:title>Matplotlib v3.5.2, https://matplotlib.org/</dc:title>
     </cc:Agent>
    </dc:creator>
   </cc:Work>
  </rdf:RDF>
 </metadata>
 <defs>
  <style type="text/css">*{stroke-linejoin: round; stroke-linecap: butt}</style>
 </defs>
 <g id="figure_1">
  <g id="patch_1">
   <path d="M 0 331.674375 
L 1285.229688 331.674375 
L 1285.229688 0 
L 0 0 
z
" style="fill: #ffffff"/>
  </g>
  <g id="axes_1">
   <g id="patch_2">
    <path d="M 46.965625 294.118125 
L 1162.965625 294.118125 
L 1162.965625 22.318125 
L 46.965625 22.318125 
z
" style="fill: #ffffff"/>
   </g>
   <g id="matplotlib.axis_1">
    <g id="xtick_1">
     <g id="line2d_1">
      <path d="M 118.965625 294.118125 
L 118.965625 22.318125 
" clip-path="url(#p6faa5e6f11)" style="fill: none; stroke-dasharray: 1.85,0.8; stroke-dashoffset: 0; stroke: #b0b0b0; stroke-width: 0.5"/>
     </g>
     <g id="line2d_2">
      <defs>
       <path id="m5490e07a89" d="M 0 0 
L 0 3.5 
" style="stroke: #000000; stroke-width: 0.8"/>
      </defs>
      <g>
       <use xlink:href="#m5490e07a89" x="118.965625" y="294.118125" style="stroke: #000000; stroke-width: 0.8"/>
      </g>
     </g>
     <g id="text_1">
      <!-- 2022-12-25 -->
      <g transform="translate(89.907812 308.716563)scale(0.1 -0.1)">
       <defs>
        <path id="DejaVuSans-32" d="M 1228 531 
L 3431 531 
L 3431 0 
L 469 0 
L 469 531 
Q 828 903 1448 1529 
Q 2069 2156 2228 2338 
Q 2531 2678 2651 2914 
Q 2772 3150 2772 3378 
Q 2772 3750 2511 3984 
Q 2250 4219 1831 4219 
Q 1534 4219 1204 4116 
Q 875 4013 500 3803 
L 500 4441 
Q 881 4594 1212 4672 
Q 1544 4750 1819 4750 
Q 2544 4750 2975 4387 
Q 3406 4025 3406 3419 
Q 3406 3131 3298 2873 
Q 3191 2616 2906 2266 
Q 2828 2175 2409 1742 
Q 1991 1309 1228 531 
z
" transform="scale(0.015625)"/>
        <path id="DejaVuSans-30" d="M 2034 4250 
Q 1547 4250 1301 3770 
Q 1056 3291 1056 2328 
Q 1056 1369 1301 889 
Q 1547 409 2034 409 
Q 2525 409 2770 889 
Q 3016 1369 3016 2328 
Q 3016 3291 2770 3770 
Q 2525 4250 2034 4250 
z
M 2034 4750 
Q 2819 4750 3233 4129 
Q 3647 3509 3647 2328 
Q 3647 1150 3233 529 
Q 2819 -91 2034 -91 
Q 1250 -91 836 529 
Q 422 1150 422 2328 
Q 422 3509 836 4129 
Q 1250 4750 2034 4750 
z
" transform="scale(0.015625)"/>
        <path id="DejaVuSans-2d" d="M 313 2009 
L 1997 2009 
L 1997 1497 
L 313 1497 
L 313 2009 
z
" transform="scale(0.015625)"/>
        <path id="DejaVuSans-31" d="M 794 531 
L 1825 531 
L 1825 4091 
L 703 3866 
L 703 4441 
L 1819 4666 
L 2450 4666 
L 2450 531 
L 3481 531 
L 3481 0 
L 794 0 
L 794 531 
z
" transform="scale(0.015625)"/>
        <path id="DejaVuSans-35" d="M 691 4666 
L 3169 4666 
L 3169 4134 
L 1269 4134 
L 1269 2991 
Q 1406 3038 1543 3061 
Q 1681 3084 1819 3084 
Q 2600 3084 3056 2656 
Q 3513 2228 3513 1497 
Q 3513 744 3044 326 
Q 2575 -91 1722 -91 
Q 1428 -91 1123 -41 
Q 819 9 494 109 
L 494 744 
Q 775 591 1075 516 
Q 1375 441 1709 441 
Q 2250 441 2565 725 
Q 2881 1009 2881 1497 
Q 2881 1984 2565 2268 
Q 2250 2553 1709 2553 
Q 1456 2553 1204 2497 
Q 953 2441 691 2322 
L 691 4666 
z
" transform="scale(0.015625)"/>
       </defs>
       <use xlink:href="#DejaVuSans-32"/>
       <use xlink:href="#DejaVuSans-30" x="63.623047"/>
       <use xlink:href="#DejaVuSans-32" x="127.246094"/>
       <use xlink:href="#DejaVuSans-32" x="190.869141"/>
       <use xlink:href="#DejaVuSans-2d" x="254.492188"/>
       <use xlink:href="#DejaVuSans-31" x="290.576172"/>
       <use xlink:href="#DejaVuSans-32" x="354.199219"/>
       <use xlink:href="#DejaVuSans-2d" x="417.822266"/>
       <use xlink:href="#DejaVuSans-32" x="453.90625"/>
       <use xlink:href="#DejaVuSans-35" x="517.529297"/>
      </g>
     </g>
    </g>
    <g id="xtick_2">
     <g id="line2d_3">
      <path d="M 262.965625 294.118125 
L 262.965625 22.318125 
" clip-path="url(#p6faa5e6f11)" style="fill: none; stroke-dasharray: 1.85,0.8; stroke-dashoffset: 0; stroke: #b0b0b0; stroke-width: 0.5"/>
     </g>
     <g id="line2d_4">
      <g>
       <use xlink:href="#m5490e07a89" x="262.965625" y="294.118125" style="stroke: #000000; stroke-width: 0.8"/>
      </g>
     </g>
     <g id="text_2">
      <!-- 2022-12-29 -->
      <g transform="translate(233.907812 308.716563)scale(0.1 -0.1)">
       <defs>
        <path id="DejaVuSans-39" d="M 703 97 
L 703 672 
Q 941 559 1184 500 
Q 1428 441 1663 441 
Q 2288 441 2617 861 
Q 2947 1281 2994 2138 
Q 2813 1869 2534 1725 
Q 2256 1581 1919 1581 
Q 1219 1581 811 2004 
Q 403 2428 403 3163 
Q 403 3881 828 4315 
Q 1253 4750 1959 4750 
Q 2769 4750 3195 4129 
Q 3622 3509 3622 2328 
Q 3622 1225 3098 567 
Q 2575 -91 1691 -91 
Q 1453 -91 1209 -44 
Q 966 3 703 97 
z
M 1959 2075 
Q 2384 2075 2632 2365 
Q 2881 2656 2881 3163 
Q 2881 3666 2632 3958 
Q 2384 4250 1959 4250 
Q 1534 4250 1286 3958 
Q 1038 3666 1038 3163 
Q 1038 2656 1286 2365 
Q 1534 2075 1959 2075 
z
" transform="scale(0.015625)"/>
       </defs>
       <use xlink:href="#DejaVuSans-32"/>
       <use xlink:href="#DejaVuSans-30" x="63.623047"/>
       <use xlink:href="#DejaVuSans-32" x="127.246094"/>
       <use xlink:href="#DejaVuSans-32" x="190.869141"/>
       <use xlink:href="#DejaVuSans-2d" x="254.492188"/>
       <use xlink:href="#DejaVuSans-31" x="290.576172"/>
       <use xlink:href="#DejaVuSans-32" x="354.199219"/>
       <use xlink:href="#DejaVuSans-2d" x="417.822266"/>
       <use xlink:href="#DejaVuSans-32" x="453.90625"/>
       <use xlink:href="#DejaVuSans-39" x="517.529297"/>
      </g>
     </g>
    </g>
    <g id="xtick_3">
     <g id="line2d_5">
      <path d="M 370.965625 294.118125 
L 370.965625 22.318125 
" clip-path="url(#p6faa5e6f11)" style="fill: none; stroke-dasharray: 1.85,0.8; stroke-dashoffset: 0; stroke: #b0b0b0; stroke-width: 0.5"/>
     </g>
     <g id="line2d_6">
      <g>
       <use xlink:href="#m5490e07a89" x="370.965625" y="294.118125" style="stroke: #000000; stroke-width: 0.8"/>
      </g>
     </g>
     <g id="text_3">
      <!-- 2023-01-01 -->
      <g transform="translate(341.907812 308.716563)scale(0.1 -0.1)">
       <defs>
        <path id="DejaVuSans-33" d="M 2597 2516 
Q 3050 2419 3304 2112 
Q 3559 1806 3559 1356 
Q 3559 666 3084 287 
Q 2609 -91 1734 -91 
Q 1441 -91 1130 -33 
Q 819 25 488 141 
L 488 750 
Q 750 597 1062 519 
Q 1375 441 1716 441 
Q 2309 441 2620 675 
Q 2931 909 2931 1356 
Q 2931 1769 2642 2001 
Q 2353 2234 1838 2234 
L 1294 2234 
L 1294 2753 
L 1863 2753 
Q 2328 2753 2575 2939 
Q 2822 3125 2822 3475 
Q 2822 3834 2567 4026 
Q 2313 4219 1838 4219 
Q 1578 4219 1281 4162 
Q 984 4106 628 3988 
L 628 4550 
Q 988 4650 1302 4700 
Q 1616 4750 1894 4750 
Q 2613 4750 3031 4423 
Q 3450 4097 3450 3541 
Q 3450 3153 3228 2886 
Q 3006 2619 2597 2516 
z
" transform="scale(0.015625)"/>
       </defs>
       <use xlink:href="#DejaVuSans-32"/>
       <use xlink:href="#DejaVuSans-30" x="63.623047"/>
       <use xlink:href="#DejaVuSans-32" x="127.246094"/>
       <use xlink:href="#DejaVuSans-33" x="190.869141"/>
       <use xlink:href="#DejaVuSans-2d" x="254.492188"/>
       <use xlink:href="#DejaVuSans-30" x="290.576172"/>
       <use xlink:href="#DejaVuSans-31" x="354.199219"/>
       <use xlink:href="#DejaVuSans-2d" x="417.822266"/>
       <use xlink:href="#DejaVuSans-30" x="453.90625"/>
       <use xlink:href="#DejaVuSans-31" x="517.529297"/>
      </g>
     </g>
    </g>
    <g id="xtick_4">
     <g id="line2d_7">
      <path d="M 514.965625 294.118125 
L 514.965625 22.318125 
" clip-path="url(#p6faa5e6f11)" style="fill: none; stroke-dasharray: 1.85,0.8; stroke-dashoffset: 0; stroke: #b0b0b0; stroke-width: 0.5"/>
     </g>
     <g id="line2d_8">
      <g>
       <use xlink:href="#m5490e07a89" x="514.965625" y="294.118125" style="stroke: #000000; stroke-width: 0.8"/>
      </g>
     </g>
     <g id="text_4">
      <!-- 2023-01-05 -->
      <g transform="translate(485.907812 308.716563)scale(0.1 -0.1)">
       <use xlink:href="#DejaVuSans-32"/>
       <use xlink:href="#DejaVuSans-30" x="63.623047"/>
       <use xlink:href="#DejaVuSans-32" x="127.246094"/>
       <use xlink:href="#DejaVuSans-33" x="190.869141"/>
       <use xlink:href="#DejaVuSans-2d" x="254.492188"/>
       <use xlink:href="#DejaVuSans-30" x="290.576172"/>
       <use xlink:href="#DejaVuSans-31" x="354.199219"/>
       <use xlink:href="#DejaVuSans-2d" x="417.822266"/>
       <use xlink:href="#DejaVuSans-30" x="453.90625"/>
       <use xlink:href="#DejaVuSans-35" x="517.529297"/>
      </g>
     </g>
    </g>
    <g id="xtick_5">
     <g id="line2d_9">
      <path d="M 658.965625 294.118125 
L 658.965625 22.318125 
" clip-path="url(#p6faa5e6f11)" style="fill: none; stroke-dasharray: 1.85,0.8; stroke-dashoffset: 0; stroke: #b0b0b0; stroke-width: 0.5"/>
     </g>
     <g id="line2d_10">
      <g>
       <use xlink:href="#m5490e07a89" x="658.965625" y="294.118125" style="stroke: #000000; stroke-width: 0.8"/>
      </g>
     </g>
     <g id="text_5">
      <!-- 2023-01-09 -->
      <g transform="translate(629.907812 308.716563)scale(0.1 -0.1)">
       <use xlink:href="#DejaVuSans-32"/>
       <use xlink:href="#DejaVuSans-30" x="63.623047"/>
       <use xlink:href="#DejaVuSans-32" x="127.246094"/>
       <use xlink:href="#DejaVuSans-33" x="190.869141"/>
       <use xlink:href="#DejaVuSans-2d" x="254.492188"/>
       <use xlink:href="#DejaVuSans-30" x="290.576172"/>
       <use xlink:href="#DejaVuSans-31" x="354.199219"/>
       <use xlink:href="#DejaVuSans-2d" x="417.822266"/>
       <use xlink:href="#DejaVuSans-30" x="453.90625"/>
       <use xlink:href="#DejaVuSans-39" x="517.529297"/>
      </g>
     </g>
    </g>
    <g id="xtick_6">
     <g id="line2d_11">
      <path d="M 802.965625 294.118125 
L 802.965625 22.318125 
" clip-path="url(#p6faa5e6f11)" style="fill: none; stroke-dasharray: 1.85,0.8; stroke-dashoffset: 0; stroke: #b0b0b0; stroke-width: 0.5"/>
     </g>
     <g id="line2d_12">
      <g>
       <use xlink:href="#m5490e07a89" x="802.965625" y="294.118125" style="stroke: #000000; stroke-width: 0.8"/>
      </g>
     </g>
     <g id="text_6">
      <!-- 2023-01-13 -->
      <g transform="translate(773.907812 308.716563)scale(0.1 -0.1)">
       <use xlink:href="#DejaVuSans-32"/>
       <use xlink:href="#DejaVuSans-30" x="63.623047"/>
       <use xlink:href="#DejaVuSans-32" x="127.246094"/>
       <use xlink:href="#DejaVuSans-33" x="190.869141"/>
       <use xlink:href="#DejaVuSans-2d" x="254.492188"/>
       <use xlink:href="#DejaVuSans-30" x="290.576172"/>
       <use xlink:href="#DejaVuSans-31" x="354.199219"/>
       <use xlink:href="#DejaVuSans-2d" x="417.822266"/>
       <use xlink:href="#DejaVuSans-31" x="453.90625"/>
       <use xlink:href="#DejaVuSans-33" x="517.529297"/>
      </g>
     </g>
    </g>
    <g id="xtick_7">
     <g id="line2d_13">
      <path d="M 946.965625 294.118125 
L 946.965625 22.318125 
" clip-path="url(#p6faa5e6f11)" style="fill: none; stroke-dasharray: 1.85,0.8; stroke-dashoffset: 0; stroke: #b0b0b0; stroke-width: 0.5"/>
     </g>
     <g id="line2d_14">
      <g>
       <use xlink:href="#m5490e07a89" x="946.965625" y="294.118125" style="stroke: #000000; stroke-width: 0.8"/>
      </g>
     </g>
     <g id="text_7">
      <!-- 2023-01-17 -->
      <g transform="translate(917.907812 308.716563)scale(0.1 -0.1)">
       <defs>
        <path id="DejaVuSans-37" d="M 525 4666 
L 3525 4666 
L 3525 4397 
L 1831 0 
L 1172 0 
L 2766 4134 
L 525 4134 
L 525 4666 
z
" transform="scale(0.015625)"/>
       </defs>
       <use xlink:href="#DejaVuSans-32"/>
       <use xlink:href="#DejaVuSans-30" x="63.623047"/>
       <use xlink:href="#DejaVuSans-32" x="127.246094"/>
       <use xlink:href="#DejaVuSans-33" x="190.869141"/>
       <use xlink:href="#DejaVuSans-2d" x="254.492188"/>
       <use xlink:href="#DejaVuSans-30" x="290.576172"/>
       <use xlink:href="#DejaVuSans-31" x="354.199219"/>
       <use xlink:href="#DejaVuSans-2d" x="417.822266"/>
       <use xlink:href="#DejaVuSans-31" x="453.90625"/>
       <use xlink:href="#DejaVuSans-37" x="517.529297"/>
      </g>
     </g>
    </g>
    <g id="xtick_8">
     <g id="line2d_15">
      <path d="M 1090.965625 294.118125 
L 1090.965625 22.318125 
" clip-path="url(#p6faa5e6f11)" style="fill: none; stroke-dasharray: 1.85,0.8; stroke-dashoffset: 0; stroke: #b0b0b0; stroke-width: 0.5"/>
     </g>
     <g id="line2d_16">
      <g>
       <use xlink:href="#m5490e07a89" x="1090.965625" y="294.118125" style="stroke: #000000; stroke-width: 0.8"/>
      </g>
     </g>
     <g id="text_8">
      <!-- 2023-01-21 -->
      <g transform="translate(1061.907812 308.716563)scale(0.1 -0.1)">
       <use xlink:href="#DejaVuSans-32"/>
       <use xlink:href="#DejaVuSans-30" x="63.623047"/>
       <use xlink:href="#DejaVuSans-32" x="127.246094"/>
       <use xlink:href="#DejaVuSans-33" x="190.869141"/>
       <use xlink:href="#DejaVuSans-2d" x="254.492188"/>
       <use xlink:href="#DejaVuSans-30" x="290.576172"/>
       <use xlink:href="#DejaVuSans-31" x="354.199219"/>
       <use xlink:href="#DejaVuSans-2d" x="417.822266"/>
       <use xlink:href="#DejaVuSans-32" x="453.90625"/>
       <use xlink:href="#DejaVuSans-31" x="517.529297"/>
      </g>
     </g>
    </g>
    <g id="text_9">
     <!-- Date -->
     <g transform="translate(593.014844 322.394687)scale(0.1 -0.1)">
      <defs>
       <path id="DejaVuSans-44" d="M 1259 4147 
L 1259 519 
L 2022 519 
Q 2988 519 3436 956 
Q 3884 1394 3884 2338 
Q 3884 3275 3436 3711 
Q 2988 4147 2022 4147 
L 1259 4147 
z
M 628 4666 
L 1925 4666 
Q 3281 4666 3915 4102 
Q 4550 3538 4550 2338 
Q 4550 1131 3912 565 
Q 3275 0 1925 0 
L 628 0 
L 628 4666 
z
" transform="scale(0.015625)"/>
       <path id="DejaVuSans-61" d="M 2194 1759 
Q 1497 1759 1228 1600 
Q 959 1441 959 1056 
Q 959 750 1161 570 
Q 1363 391 1709 391 
Q 2188 391 2477 730 
Q 2766 1069 2766 1631 
L 2766 1759 
L 2194 1759 
z
M 3341 1997 
L 3341 0 
L 2766 0 
L 2766 531 
Q 2569 213 2275 61 
Q 1981 -91 1556 -91 
Q 1019 -91 701 211 
Q 384 513 384 1019 
Q 384 1609 779 1909 
Q 1175 2209 1959 2209 
L 2766 2209 
L 2766 2266 
Q 2766 2663 2505 2880 
Q 2244 3097 1772 3097 
Q 1472 3097 1187 3025 
Q 903 2953 641 2809 
L 641 3341 
Q 956 3463 1253 3523 
Q 1550 3584 1831 3584 
Q 2591 3584 2966 3190 
Q 3341 2797 3341 1997 
z
" transform="scale(0.015625)"/>
       <path id="DejaVuSans-74" d="M 1172 4494 
L 1172 3500 
L 2356 3500 
L 2356 3053 
L 1172 3053 
L 1172 1153 
Q 1172 725 1289 603 
Q 1406 481 1766 481 
L 2356 481 
L 2356 0 
L 1766 0 
Q 1100 0 847 248 
Q 594 497 594 1153 
L 594 3053 
L 172 3053 
L 172 3500 
L 594 3500 
L 594 4494 
L 1172 4494 
z
" transform="scale(0.015625)"/>
       <path id="DejaVuSans-65" d="M 3597 1894 
L 3597 1613 
L 953 1613 
Q 991 1019 1311 708 
Q 1631 397 2203 397 
Q 2534 397 2845 478 
Q 3156 559 3463 722 
L 3463 178 
Q 3153 47 2828 -22 
Q 2503 -91 2169 -91 
Q 1331 -91 842 396 
Q 353 884 353 1716 
Q 353 2575 817 3079 
Q 1281 3584 2069 3584 
Q 2775 3584 3186 3129 
Q 3597 2675 3597 1894 
z
M 3022 2063 
Q 3016 2534 2758 2815 
Q 2500 3097 2075 3097 
Q 1594 3097 1305 2825 
Q 1016 2553 972 2059 
L 3022 2063 
z
" transform="scale(0.015625)"/>
      </defs>
      <use xlink:href="#DejaVuSans-44"/>
      <use xlink:href="#DejaVuSans-61" x="77.001953"/>
      <use xlink:href="#DejaVuSans-74" x="138.28125"/>
      <use xlink:href="#DejaVuSans-65" x="177.490234"/>
     </g>
    </g>
   </g>
   <g id="matplotlib.axis_2">
    <g id="ytick_1">
     <g id="line2d_17">
      <path d="M 46.965625 294.118125 
L 1162.965625 294.118125 
" clip-path="url(#p6faa5e6f11)" style="fill: none; stroke-dasharray: 1.85,0.8; stroke-dashoffset: 0; stroke: #b0b0b0; stroke-width: 0.5"/>
     </g>
     <g id="line2d_18">
      <defs>
       <path id="mf433047db2" d="M 0 0 
L -3.5 0 
" style="stroke: #000000; stroke-width: 0.8"/>
      </defs>
      <g>
       <use xlink:href="#mf433047db2" x="46.965625" y="294.118125" style="stroke: #000000; stroke-width: 0.8"/>
      </g>
     </g>
     <g id="text_10">
      <!-- 65 -->
      <g transform="translate(27.240625 297.917344)scale(0.1 -0.1)">
       <defs>
        <path id="DejaVuSans-36" d="M 2113 2584 
Q 1688 2584 1439 2293 
Q 1191 2003 1191 1497 
Q 1191 994 1439 701 
Q 1688 409 2113 409 
Q 2538 409 2786 701 
Q 3034 994 3034 1497 
Q 3034 2003 2786 2293 
Q 2538 2584 2113 2584 
z
M 3366 4563 
L 3366 3988 
Q 3128 4100 2886 4159 
Q 2644 4219 2406 4219 
Q 1781 4219 1451 3797 
Q 1122 3375 1075 2522 
Q 1259 2794 1537 2939 
Q 1816 3084 2150 3084 
Q 2853 3084 3261 2657 
Q 3669 2231 3669 1497 
Q 3669 778 3244 343 
Q 2819 -91 2113 -91 
Q 1303 -91 875 529 
Q 447 1150 447 2328 
Q 447 3434 972 4092 
Q 1497 4750 2381 4750 
Q 2619 4750 2861 4703 
Q 3103 4656 3366 4563 
z
" transform="scale(0.015625)"/>
       </defs>
       <use xlink:href="#DejaVuSans-36"/>
       <use xlink:href="#DejaVuSans-35" x="63.623047"/>
      </g>
     </g>
    </g>
    <g id="ytick_2">
     <g id="line2d_19">
      <path d="M 46.965625 257.054489 
L 1162.965625 257.054489 
" clip-path="url(#p6faa5e6f11)" style="fill: none; stroke-dasharray: 1.85,0.8; stroke-dashoffset: 0; stroke: #b0b0b0; stroke-width: 0.5"/>
     </g>
     <g id="line2d_20">
      <g>
       <use xlink:href="#mf433047db2" x="46.965625" y="257.054489" style="stroke: #000000; stroke-width: 0.8"/>
      </g>
     </g>
     <g id="text_11">
      <!-- 70 -->
      <g transform="translate(27.240625 260.853707)scale(0.1 -0.1)">
       <use xlink:href="#DejaVuSans-37"/>
       <use xlink:href="#DejaVuSans-30" x="63.623047"/>
      </g>
     </g>
    </g>
    <g id="ytick_3">
     <g id="line2d_21">
      <path d="M 46.965625 219.990852 
L 1162.965625 219.990852 
" clip-path="url(#p6faa5e6f11)" style="fill: none; stroke-dasharray: 1.85,0.8; stroke-dashoffset: 0; stroke: #b0b0b0; stroke-width: 0.5"/>
     </g>
     <g id="line2d_22">
      <g>
       <use xlink:href="#mf433047db2" x="46.965625" y="219.990852" style="stroke: #000000; stroke-width: 0.8"/>
      </g>
     </g>
     <g id="text_12">
      <!-- 75 -->
      <g transform="translate(27.240625 223.790071)scale(0.1 -0.1)">
       <use xlink:href="#DejaVuSans-37"/>
       <use xlink:href="#DejaVuSans-35" x="63.623047"/>
      </g>
     </g>
    </g>
    <g id="ytick_4">
     <g id="line2d_23">
      <path d="M 46.965625 182.927216 
L 1162.965625 182.927216 
" clip-path="url(#p6faa5e6f11)" style="fill: none; stroke-dasharray: 1.85,0.8; stroke-dashoffset: 0; stroke: #b0b0b0; stroke-width: 0.5"/>
     </g>
     <g id="line2d_24">
      <g>
       <use xlink:href="#mf433047db2" x="46.965625" y="182.927216" style="stroke: #000000; stroke-width: 0.8"/>
      </g>
     </g>
     <g id="text_13">
      <!-- 80 -->
      <g transform="translate(27.240625 186.726435)scale(0.1 -0.1)">
       <defs>
        <path id="DejaVuSans-38" d="M 2034 2216 
Q 1584 2216 1326 1975 
Q 1069 1734 1069 1313 
Q 1069 891 1326 650 
Q 1584 409 2034 409 
Q 2484 409 2743 651 
Q 3003 894 3003 1313 
Q 3003 1734 2745 1975 
Q 2488 2216 2034 2216 
z
M 1403 2484 
Q 997 2584 770 2862 
Q 544 3141 544 3541 
Q 544 4100 942 4425 
Q 1341 4750 2034 4750 
Q 2731 4750 3128 4425 
Q 3525 4100 3525 3541 
Q 3525 3141 3298 2862 
Q 3072 2584 2669 2484 
Q 3125 2378 3379 2068 
Q 3634 1759 3634 1313 
Q 3634 634 3220 271 
Q 2806 -91 2034 -91 
Q 1263 -91 848 271 
Q 434 634 434 1313 
Q 434 1759 690 2068 
Q 947 2378 1403 2484 
z
M 1172 3481 
Q 1172 3119 1398 2916 
Q 1625 2713 2034 2713 
Q 2441 2713 2670 2916 
Q 2900 3119 2900 3481 
Q 2900 3844 2670 4047 
Q 2441 4250 2034 4250 
Q 1625 4250 1398 4047 
Q 1172 3844 1172 3481 
z
" transform="scale(0.015625)"/>
       </defs>
       <use xlink:href="#DejaVuSans-38"/>
       <use xlink:href="#DejaVuSans-30" x="63.623047"/>
      </g>
     </g>
    </g>
    <g id="ytick_5">
     <g id="line2d_25">
      <path d="M 46.965625 145.86358 
L 1162.965625 145.86358 
" clip-path="url(#p6faa5e6f11)" style="fill: none; stroke-dasharray: 1.85,0.8; stroke-dashoffset: 0; stroke: #b0b0b0; stroke-width: 0.5"/>
     </g>
     <g id="line2d_26">
      <g>
       <use xlink:href="#mf433047db2" x="46.965625" y="145.86358" style="stroke: #000000; stroke-width: 0.8"/>
      </g>
     </g>
     <g id="text_14">
      <!-- 85 -->
      <g transform="translate(27.240625 149.662798)scale(0.1 -0.1)">
       <use xlink:href="#DejaVuSans-38"/>
       <use xlink:href="#DejaVuSans-35" x="63.623047"/>
      </g>
     </g>
    </g>
    <g id="ytick_6">
     <g id="line2d_27">
      <path d="M 46.965625 108.799943 
L 1162.965625 108.799943 
" clip-path="url(#p6faa5e6f11)" style="fill: none; stroke-dasharray: 1.85,0.8; stroke-dashoffset: 0; stroke: #b0b0b0; stroke-width: 0.5"/>
     </g>
     <g id="line2d_28">
      <g>
       <use xlink:href="#mf433047db2" x="46.965625" y="108.799943" style="stroke: #000000; stroke-width: 0.8"/>
      </g>
     </g>
     <g id="text_15">
      <!-- 90 -->
      <g transform="translate(27.240625 112.599162)scale(0.1 -0.1)">
       <use xlink:href="#DejaVuSans-39"/>
       <use xlink:href="#DejaVuSans-30" x="63.623047"/>
      </g>
     </g>
    </g>
    <g id="ytick_7">
     <g id="line2d_29">
      <path d="M 46.965625 71.736307 
L 1162.965625 71.736307 
" clip-path="url(#p6faa5e6f11)" style="fill: none; stroke-dasharray: 1.85,0.8; stroke-dashoffset: 0; stroke: #b0b0b0; stroke-width: 0.5"/>
     </g>
     <g id="line2d_30">
      <g>
       <use xlink:href="#mf433047db2" x="46.965625" y="71.736307" style="stroke: #000000; stroke-width: 0.8"/>
      </g>
     </g>
     <g id="text_16">
      <!-- 95 -->
      <g transform="translate(27.240625 75.535526)scale(0.1 -0.1)">
       <use xlink:href="#DejaVuSans-39"/>
       <use xlink:href="#DejaVuSans-35" x="63.623047"/>
      </g>
     </g>
    </g>
    <g id="ytick_8">
     <g id="line2d_31">
      <path d="M 46.965625 34.67267 
L 1162.965625 34.67267 
" clip-path="url(#p6faa5e6f11)" style="fill: none; stroke-dasharray: 1.85,0.8; stroke-dashoffset: 0; stroke: #b0b0b0; stroke-width: 0.5"/>
     </g>
     <g id="line2d_32">
      <g>
       <use xlink:href="#mf433047db2" x="46.965625" y="34.67267" style="stroke: #000000; stroke-width: 0.8"/>
      </g>
     </g>
     <g id="text_17">
      <!-- 100 -->
      <g transform="translate(20.878125 38.471889)scale(0.1 -0.1)">
       <use xlink:href="#DejaVuSans-31"/>
       <use xlink:href="#DejaVuSans-30" x="63.623047"/>
       <use xlink:href="#DejaVuSans-30" x="127.246094"/>
      </g>
     </g>
    </g>
    <g id="text_18">
     <!-- Success rate -->
     <g transform="translate(14.798438 190.090781)rotate(-90)scale(0.1 -0.1)">
      <defs>
       <path id="DejaVuSans-53" d="M 3425 4513 
L 3425 3897 
Q 3066 4069 2747 4153 
Q 2428 4238 2131 4238 
Q 1616 4238 1336 4038 
Q 1056 3838 1056 3469 
Q 1056 3159 1242 3001 
Q 1428 2844 1947 2747 
L 2328 2669 
Q 3034 2534 3370 2195 
Q 3706 1856 3706 1288 
Q 3706 609 3251 259 
Q 2797 -91 1919 -91 
Q 1588 -91 1214 -16 
Q 841 59 441 206 
L 441 856 
Q 825 641 1194 531 
Q 1563 422 1919 422 
Q 2459 422 2753 634 
Q 3047 847 3047 1241 
Q 3047 1584 2836 1778 
Q 2625 1972 2144 2069 
L 1759 2144 
Q 1053 2284 737 2584 
Q 422 2884 422 3419 
Q 422 4038 858 4394 
Q 1294 4750 2059 4750 
Q 2388 4750 2728 4690 
Q 3069 4631 3425 4513 
z
" transform="scale(0.015625)"/>
       <path id="DejaVuSans-75" d="M 544 1381 
L 544 3500 
L 1119 3500 
L 1119 1403 
Q 1119 906 1312 657 
Q 1506 409 1894 409 
Q 2359 409 2629 706 
Q 2900 1003 2900 1516 
L 2900 3500 
L 3475 3500 
L 3475 0 
L 2900 0 
L 2900 538 
Q 2691 219 2414 64 
Q 2138 -91 1772 -91 
Q 1169 -91 856 284 
Q 544 659 544 1381 
z
M 1991 3584 
L 1991 3584 
z
" transform="scale(0.015625)"/>
       <path id="DejaVuSans-63" d="M 3122 3366 
L 3122 2828 
Q 2878 2963 2633 3030 
Q 2388 3097 2138 3097 
Q 1578 3097 1268 2742 
Q 959 2388 959 1747 
Q 959 1106 1268 751 
Q 1578 397 2138 397 
Q 2388 397 2633 464 
Q 2878 531 3122 666 
L 3122 134 
Q 2881 22 2623 -34 
Q 2366 -91 2075 -91 
Q 1284 -91 818 406 
Q 353 903 353 1747 
Q 353 2603 823 3093 
Q 1294 3584 2113 3584 
Q 2378 3584 2631 3529 
Q 2884 3475 3122 3366 
z
" transform="scale(0.015625)"/>
       <path id="DejaVuSans-73" d="M 2834 3397 
L 2834 2853 
Q 2591 2978 2328 3040 
Q 2066 3103 1784 3103 
Q 1356 3103 1142 2972 
Q 928 2841 928 2578 
Q 928 2378 1081 2264 
Q 1234 2150 1697 2047 
L 1894 2003 
Q 2506 1872 2764 1633 
Q 3022 1394 3022 966 
Q 3022 478 2636 193 
Q 2250 -91 1575 -91 
Q 1294 -91 989 -36 
Q 684 19 347 128 
L 347 722 
Q 666 556 975 473 
Q 1284 391 1588 391 
Q 1994 391 2212 530 
Q 2431 669 2431 922 
Q 2431 1156 2273 1281 
Q 2116 1406 1581 1522 
L 1381 1569 
Q 847 1681 609 1914 
Q 372 2147 372 2553 
Q 372 3047 722 3315 
Q 1072 3584 1716 3584 
Q 2034 3584 2315 3537 
Q 2597 3491 2834 3397 
z
" transform="scale(0.015625)"/>
       <path id="DejaVuSans-20" transform="scale(0.015625)"/>
       <path id="DejaVuSans-72" d="M 2631 2963 
Q 2534 3019 2420 3045 
Q 2306 3072 2169 3072 
Q 1681 3072 1420 2755 
Q 1159 2438 1159 1844 
L 1159 0 
L 581 0 
L 581 3500 
L 1159 3500 
L 1159 2956 
Q 1341 3275 1631 3429 
Q 1922 3584 2338 3584 
Q 2397 3584 2469 3576 
Q 2541 3569 2628 3553 
L 2631 2963 
z
" transform="scale(0.015625)"/>
      </defs>
      <use xlink:href="#DejaVuSans-53"/>
      <use xlink:href="#DejaVuSans-75" x="63.476562"/>
      <use xlink:href="#DejaVuSans-63" x="126.855469"/>
      <use xlink:href="#DejaVuSans-63" x="181.835938"/>
      <use xlink:href="#DejaVuSans-65" x="236.816406"/>
      <use xlink:href="#DejaVuSans-73" x="298.339844"/>
      <use xlink:href="#DejaVuSans-73" x="350.439453"/>
      <use xlink:href="#DejaVuSans-20" x="402.539062"/>
      <use xlink:href="#DejaVuSans-72" x="434.326172"/>
      <use xlink:href="#DejaVuSans-61" x="475.439453"/>
      <use xlink:href="#DejaVuSans-74" x="536.71875"/>
      <use xlink:href="#DejaVuSans-65" x="575.927734"/>
     </g>
    </g>
   </g>
   <g id="line2d_33">
    <path d="M 46.965625 34.67267 
L 82.965625 34.67267 
L 118.965625 34.67267 
L 154.965625 34.67267 
L 190.965625 34.67267 
L 226.965625 34.67267 
L 262.965625 34.67267 
L 298.965625 34.67267 
L 334.965625 34.67267 
L 370.965625 34.67267 
L 406.965625 34.67267 
L 442.965625 34.67267 
L 478.965625 34.67267 
L 514.965625 34.67267 
L 550.965625 34.67267 
L 586.965625 34.67267 
L 622.965625 34.67267 
L 658.965625 34.67267 
L 694.965625 34.67267 
L 730.965625 34.67267 
L 766.965625 34.67267 
L 802.965625 53.204489 
L 838.965625 34.67267 
L 874.965625 34.67267 
L 910.965625 34.67267 
L 946.965625 34.67267 
L 982.965625 34.67267 
L 1018.965625 34.67267 
L 1054.965625 34.67267 
L 1090.965625 34.67267 
L 1126.965625 34.67267 
L 1162.965625 34.67267 
" clip-path="url(#p6faa5e6f11)" style="fill: none; stroke: #1f77b4; stroke-width: 1.5; stroke-linecap: square"/>
   </g>
   <g id="line2d_34">
    <path d="M 46.965625 182.927216 
L 82.965625 110.700642 
L 118.965625 106.991961 
L 154.965625 90.268125 
L 190.965625 145.86358 
L 226.965625 105.270073 
L 262.965625 88.912138 
L 298.965625 140.568774 
L 334.965625 122.919424 
L 370.965625 86.389372 
L 406.965625 106.991961 
L 442.965625 70.832316 
L 478.965625 53.679663 
L 514.965625 182.927216 
L 550.965625 182.927216 
L 586.965625 161.231429 
L 622.965625 127.331761 
L 658.965625 70.832316 
L 694.965625 108.799943 
L 730.965625 164.395398 
L 766.965625 164.395398 
L 802.965625 108.799943 
L 838.965625 151.715733 
L 874.965625 182.927216 
L 910.965625 204.106437 
L 946.965625 98.210333 
L 982.965625 124.52391 
L 1018.965625 75.854489 
L 1054.965625 119.389554 
L 1090.965625 143.683366 
L 1126.965625 98.210333 
L 1162.965625 77.031112 
" clip-path="url(#p6faa5e6f11)" style="fill: none; stroke: #ff7f0e; stroke-width: 1.5; stroke-linecap: square"/>
   </g>
   <g id="line2d_35">
    <path d="M 46.965625 34.67267 
L 82.965625 129.707635 
L 118.965625 108.799943 
L 154.965625 108.799943 
L 190.965625 108.799943 
L 226.965625 69.971372 
L 262.965625 52.752493 
L 298.965625 52.322021 
L 334.965625 105.270073 
L 370.965625 51.911571 
L 406.965625 88.912138 
L 442.965625 88.912138 
L 478.965625 90.268125 
L 514.965625 127.331761 
L 550.965625 71.736307 
L 586.965625 143.151606 
L 622.965625 70.832316 
L 658.965625 161.231429 
L 694.965625 108.799943 
L 730.965625 72.686656 
L 766.965625 90.268125 
L 802.965625 127.331761 
L 838.965625 54.179847 
L 874.965625 34.67267 
L 910.965625 143.683366 
L 946.965625 77.031112 
L 982.965625 79.59829 
L 1018.965625 96.445398 
L 1054.965625 78.276949 
L 1090.965625 56.474809 
L 1126.965625 75.854489 
L 1162.965625 34.67267 
" clip-path="url(#p6faa5e6f11)" style="fill: none; stroke: #2ca02c; stroke-width: 1.5; stroke-linecap: square"/>
   </g>
   <g id="line2d_36">
    <path d="M 46.965625 117.036307 
L 82.965625 34.67267 
L 118.965625 53.204489 
L 154.965625 90.268125 
L 190.965625 34.67267 
L 226.965625 69.971372 
L 262.965625 52.752493 
L 298.965625 34.67267 
L 334.965625 52.322021 
L 370.965625 52.322021 
L 406.965625 52.322021 
L 442.965625 88.912138 
L 478.965625 90.268125 
L 514.965625 71.736307 
L 550.965625 90.268125 
L 586.965625 71.736307 
L 622.965625 52.752493 
L 658.965625 71.736307 
L 694.965625 127.331761 
L 730.965625 88.912138 
L 766.965625 71.736307 
L 802.965625 71.736307 
L 838.965625 94.775865 
L 874.965625 56.474809 
L 910.965625 119.389554 
L 946.965625 55.851891 
L 982.965625 119.389554 
L 1018.965625 55.26358 
L 1054.965625 77.031112 
L 1090.965625 34.67267 
L 1126.965625 55.851891 
L 1162.965625 55.26358 
" clip-path="url(#p6faa5e6f11)" style="fill: none; stroke: #d62728; stroke-width: 1.5; stroke-linecap: square"/>
   </g>
   <g id="line2d_37">
    <path d="M 46.965625 199.399943 
L 82.965625 90.268125 
L 118.965625 88.912138 
L 154.965625 71.736307 
L 190.965625 90.268125 
L 226.965625 52.752493 
L 262.965625 87.620722 
L 298.965625 158.218125 
L 334.965625 125.071784 
L 370.965625 34.67267 
L 406.965625 69.971372 
L 442.965625 106.991961 
L 478.965625 108.799943 
L 514.965625 112.701379 
L 550.965625 108.799943 
L 586.965625 88.912138 
L 622.965625 70.832316 
L 658.965625 53.204489 
L 694.965625 53.204489 
L 730.965625 125.071784 
L 766.965625 90.268125 
L 802.965625 72.686656 
L 838.965625 34.67267 
L 874.965625 140.568774 
L 910.965625 98.210333 
L 946.965625 77.031112 
L 982.965625 119.389554 
L 1018.965625 75.854489 
L 1054.965625 34.67267 
L 1090.965625 121.881227 
L 1126.965625 55.851891 
L 1162.965625 96.445398 
" clip-path="url(#p6faa5e6f11)" style="fill: none; stroke: #9467bd; stroke-width: 1.5; stroke-linecap: square"/>
   </g>
   <g id="line2d_38">
    <path d="M 46.965625 34.67267 
L 82.965625 71.736307 
L 118.965625 106.991961 
L 154.965625 34.67267 
L 190.965625 71.736307 
L 226.965625 70.832316 
L 262.965625 69.971372 
L 298.965625 52.322021 
L 334.965625 87.620722 
L 370.965625 69.971372 
L 406.965625 105.270073 
L 442.965625 88.912138 
L 478.965625 71.736307 
L 514.965625 91.693649 
L 550.965625 70.832316 
L 586.965625 70.832316 
L 622.965625 70.832316 
L 658.965625 53.204489 
L 694.965625 90.268125 
L 730.965625 125.071784 
L 766.965625 72.686656 
L 802.965625 72.686656 
L 838.965625 129.707635 
L 874.965625 119.389554 
L 910.965625 77.031112 
L 946.965625 55.851891 
L 982.965625 55.851891 
L 1018.965625 55.26358 
L 1054.965625 143.683366 
L 1090.965625 77.031112 
L 1126.965625 55.851891 
L 1162.965625 55.851891 
" clip-path="url(#p6faa5e6f11)" style="fill: none; stroke: #8c564b; stroke-width: 1.5; stroke-linecap: square"/>
   </g>
   <g id="line2d_39">
    <path d="M 46.965625 34.67267 
L 82.965625 53.204489 
L 118.965625 34.67267 
L 154.965625 53.679663 
L 190.965625 70.832316 
L 226.965625 52.752493 
L 262.965625 34.67267 
L 298.965625 53.204489 
L 334.965625 51.911571 
L 370.965625 34.67267 
L 406.965625 52.322021 
L 442.965625 34.67267 
L 478.965625 71.736307 
L 514.965625 34.67267 
L 550.965625 125.071784 
L 586.965625 34.67267 
L 622.965625 71.736307 
L 658.965625 34.67267 
L 694.965625 72.686656 
L 730.965625 70.832316 
L 766.965625 53.204489 
L 802.965625 53.679663 
L 838.965625 53.679663 
L 874.965625 77.031112 
L 910.965625 77.031112 
L 946.965625 34.67267 
L 982.965625 34.67267 
L 1018.965625 55.26358 
L 1054.965625 100.079088 
L 1090.965625 55.851891 
L 1126.965625 34.67267 
L 1162.965625 34.67267 
" clip-path="url(#p6faa5e6f11)" style="fill: none; stroke: #e377c2; stroke-width: 1.5; stroke-linecap: square"/>
   </g>
   <g id="line2d_40">
    <path d="M 46.965625 117.036307 
L 82.965625 90.268125 
L 118.965625 52.752493 
L 154.965625 34.67267 
L 190.965625 70.832316 
L 226.965625 106.991961 
L 262.965625 87.620722 
L 298.965625 34.67267 
L 334.965625 103.628273 
L 370.965625 52.322021 
L 406.965625 87.620722 
L 442.965625 70.832316 
L 478.965625 53.204489 
L 514.965625 72.686656 
L 550.965625 52.752493 
L 586.965625 34.67267 
L 622.965625 71.736307 
L 658.965625 125.071784 
L 694.965625 71.736307 
L 730.965625 34.67267 
L 766.965625 52.752493 
L 802.965625 34.67267 
L 838.965625 93.194202 
L 874.965625 55.851891 
L 910.965625 55.851891 
L 946.965625 119.389554 
L 982.965625 77.031112 
L 1018.965625 55.26358 
L 1054.965625 56.474809 
L 1090.965625 98.210333 
L 1126.965625 77.031112 
L 1162.965625 34.67267 
" clip-path="url(#p6faa5e6f11)" style="fill: none; stroke: #7f7f7f; stroke-width: 1.5; stroke-linecap: square"/>
   </g>
   <g id="line2d_41">
    <path d="M 46.965625 34.67267 
L 82.965625 71.736307 
L 118.965625 53.204489 
L 154.965625 53.204489 
L 190.965625 70.832316 
L 226.965625 52.752493 
L 262.965625 34.67267 
L 298.965625 88.912138 
L 334.965625 51.911571 
L 370.965625 34.67267 
L 406.965625 87.620722 
L 442.965625 88.912138 
L 478.965625 72.686656 
L 514.965625 53.679663 
L 550.965625 70.832316 
L 586.965625 70.832316 
L 622.965625 34.67267 
L 658.965625 70.832316 
L 694.965625 53.204489 
L 730.965625 90.268125 
L 766.965625 52.752493 
L 802.965625 72.686656 
L 838.965625 53.679663 
L 874.965625 55.851891 
L 910.965625 140.568774 
L 946.965625 55.851891 
L 982.965625 34.67267 
L 1018.965625 34.67267 
L 1054.965625 56.474809 
L 1090.965625 55.851891 
L 1126.965625 55.851891 
L 1162.965625 34.67267 
" clip-path="url(#p6faa5e6f11)" style="fill: none; stroke: #bcbd22; stroke-width: 1.5; stroke-linecap: square"/>
   </g>
   <g id="line2d_42">
    <path d="M 46.965625 34.67267 
L 82.965625 90.268125 
L 118.965625 34.67267 
L 154.965625 53.204489 
L 190.965625 52.752493 
L 226.965625 52.752493 
L 262.965625 52.752493 
L 298.965625 34.67267 
L 334.965625 34.67267 
L 370.965625 52.322021 
L 406.965625 52.322021 
L 442.965625 70.832316 
L 478.965625 53.204489 
L 514.965625 72.686656 
L 550.965625 53.204489 
L 586.965625 34.67267 
L 622.965625 34.67267 
L 658.965625 34.67267 
L 694.965625 90.268125 
L 730.965625 71.736307 
L 766.965625 70.832316 
L 802.965625 72.686656 
L 838.965625 54.179847 
L 874.965625 55.26358 
L 910.965625 98.210333 
L 946.965625 56.474809 
L 982.965625 55.26358 
L 1018.965625 55.26358 
L 1054.965625 100.079088 
L 1090.965625 55.851891 
L 1126.965625 34.67267 
L 1162.965625 55.26358 
" clip-path="url(#p6faa5e6f11)" style="fill: none; stroke: #17becf; stroke-width: 1.5; stroke-linecap: square"/>
   </g>
   <g id="line2d_43">
    <path d="M 46.965625 281.76358 
L 82.965625 91.693649 
L 118.965625 71.736307 
L 154.965625 108.799943 
L 190.965625 143.151606 
L 226.965625 70.832316 
L 262.965625 108.799943 
L 298.965625 105.270073 
L 334.965625 86.389372 
L 370.965625 69.971372 
L 406.965625 69.971372 
L 442.965625 143.151606 
L 478.965625 148.714628 
L 514.965625 186.728615 
L 550.965625 125.071784 
L 586.965625 91.693649 
L 622.965625 88.912138 
L 658.965625 125.071784 
L 694.965625 145.86358 
L 730.965625 164.395398 
L 766.965625 106.991961 
L 802.965625 53.679663 
L 838.965625 112.701379 
L 874.965625 119.389554 
L 910.965625 121.881227 
L 946.965625 57.13548 
L 982.965625 96.445398 
L 1018.965625 77.031112 
L 1054.965625 56.474809 
L 1090.965625 140.568774 
L 1126.965625 98.210333 
L 1162.965625 100.079088 
" clip-path="url(#p6faa5e6f11)" style="fill: none; stroke: #1f77b4; stroke-width: 1.5; stroke-linecap: square"/>
   </g>
   <g id="line2d_44">
    <path d="M 46.965625 117.036307 
L 82.965625 127.331761 
L 118.965625 129.707635 
L 154.965625 148.714628 
L 190.965625 132.208556 
L 226.965625 87.620722 
L 262.965625 90.268125 
L 298.965625 69.971372 
L 334.965625 69.971372 
L 370.965625 69.150472 
L 406.965625 87.620722 
L 442.965625 70.832316 
L 478.965625 167.721622 
L 514.965625 167.721622 
L 550.965625 179.311251 
L 586.965625 129.707635 
L 622.965625 88.912138 
L 658.965625 125.071784 
L 694.965625 90.268125 
L 730.965625 91.693649 
L 766.965625 70.832316 
L 802.965625 94.775865 
L 838.965625 74.741467 
L 874.965625 98.210333 
L 910.965625 55.851891 
L 946.965625 140.568774 
L 982.965625 140.568774 
L 1018.965625 161.747995 
L 1054.965625 140.568774 
L 1090.965625 140.568774 
L 1126.965625 100.079088 
L 1162.965625 143.683366 
" clip-path="url(#p6faa5e6f11)" style="fill: none; stroke: #ff7f0e; stroke-width: 1.5; stroke-linecap: square"/>
   </g>
   <g id="patch_3">
    <path d="M 46.965625 294.118125 
L 46.965625 22.318125 
" style="fill: none; stroke: #000000; stroke-width: 0.8; stroke-linejoin: miter; stroke-linecap: square"/>
   </g>
   <g id="patch_4">
    <path d="M 1162.965625 294.118125 
L 1162.965625 22.318125 
" style="fill: none; stroke: #000000; stroke-width: 0.8; stroke-linejoin: miter; stroke-linecap: square"/>
   </g>
   <g id="patch_5">
    <path d="M 46.965625 294.118125 
L 1162.965625 294.118125 
" style="fill: none; stroke: #000000; stroke-width: 0.8; stroke-linejoin: miter; stroke-linecap: square"/>
   </g>
   <g id="patch_6">
    <path d="M 46.965625 22.318125 
L 1162.965625 22.318125 
" style="fill: none; stroke: #000000; stroke-width: 0.8; stroke-linejoin: miter; stroke-linecap: square"/>
   </g>
   <g id="text_19">
    <!-- Success rate per scenario (High success rate) -->
    <g transform="translate(467.686563 16.318125)scale(0.12 -0.12)">
     <defs>
      <path id="DejaVuSans-70" d="M 1159 525 
L 1159 -1331 
L 581 -1331 
L 581 3500 
L 1159 3500 
L 1159 2969 
Q 1341 3281 1617 3432 
Q 1894 3584 2278 3584 
Q 2916 3584 3314 3078 
Q 3713 2572 3713 1747 
Q 3713 922 3314 415 
Q 2916 -91 2278 -91 
Q 1894 -91 1617 61 
Q 1341 213 1159 525 
z
M 3116 1747 
Q 3116 2381 2855 2742 
Q 2594 3103 2138 3103 
Q 1681 3103 1420 2742 
Q 1159 2381 1159 1747 
Q 1159 1113 1420 752 
Q 1681 391 2138 391 
Q 2594 391 2855 752 
Q 3116 1113 3116 1747 
z
" transform="scale(0.015625)"/>
      <path id="DejaVuSans-6e" d="M 3513 2113 
L 3513 0 
L 2938 0 
L 2938 2094 
Q 2938 2591 2744 2837 
Q 2550 3084 2163 3084 
Q 1697 3084 1428 2787 
Q 1159 2491 1159 1978 
L 1159 0 
L 581 0 
L 581 3500 
L 1159 3500 
L 1159 2956 
Q 1366 3272 1645 3428 
Q 1925 3584 2291 3584 
Q 2894 3584 3203 3211 
Q 3513 2838 3513 2113 
z
" transform="scale(0.015625)"/>
      <path id="DejaVuSans-69" d="M 603 3500 
L 1178 3500 
L 1178 0 
L 603 0 
L 603 3500 
z
M 603 4863 
L 1178 4863 
L 1178 4134 
L 603 4134 
L 603 4863 
z
" transform="scale(0.015625)"/>
      <path id="DejaVuSans-6f" d="M 1959 3097 
Q 1497 3097 1228 2736 
Q 959 2375 959 1747 
Q 959 1119 1226 758 
Q 1494 397 1959 397 
Q 2419 397 2687 759 
Q 2956 1122 2956 1747 
Q 2956 2369 2687 2733 
Q 2419 3097 1959 3097 
z
M 1959 3584 
Q 2709 3584 3137 3096 
Q 3566 2609 3566 1747 
Q 3566 888 3137 398 
Q 2709 -91 1959 -91 
Q 1206 -91 779 398 
Q 353 888 353 1747 
Q 353 2609 779 3096 
Q 1206 3584 1959 3584 
z
" transform="scale(0.015625)"/>
      <path id="DejaVuSans-28" d="M 1984 4856 
Q 1566 4138 1362 3434 
Q 1159 2731 1159 2009 
Q 1159 1288 1364 580 
Q 1569 -128 1984 -844 
L 1484 -844 
Q 1016 -109 783 600 
Q 550 1309 550 2009 
Q 550 2706 781 3412 
Q 1013 4119 1484 4856 
L 1984 4856 
z
" transform="scale(0.015625)"/>
      <path id="DejaVuSans-48" d="M 628 4666 
L 1259 4666 
L 1259 2753 
L 3553 2753 
L 3553 4666 
L 4184 4666 
L 4184 0 
L 3553 0 
L 3553 2222 
L 1259 2222 
L 1259 0 
L 628 0 
L 628 4666 
z
" transform="scale(0.015625)"/>
      <path id="DejaVuSans-67" d="M 2906 1791 
Q 2906 2416 2648 2759 
Q 2391 3103 1925 3103 
Q 1463 3103 1205 2759 
Q 947 2416 947 1791 
Q 947 1169 1205 825 
Q 1463 481 1925 481 
Q 2391 481 2648 825 
Q 2906 1169 2906 1791 
z
M 3481 434 
Q 3481 -459 3084 -895 
Q 2688 -1331 1869 -1331 
Q 1566 -1331 1297 -1286 
Q 1028 -1241 775 -1147 
L 775 -588 
Q 1028 -725 1275 -790 
Q 1522 -856 1778 -856 
Q 2344 -856 2625 -561 
Q 2906 -266 2906 331 
L 2906 616 
Q 2728 306 2450 153 
Q 2172 0 1784 0 
Q 1141 0 747 490 
Q 353 981 353 1791 
Q 353 2603 747 3093 
Q 1141 3584 1784 3584 
Q 2172 3584 2450 3431 
Q 2728 3278 2906 2969 
L 2906 3500 
L 3481 3500 
L 3481 434 
z
" transform="scale(0.015625)"/>
      <path id="DejaVuSans-68" d="M 3513 2113 
L 3513 0 
L 2938 0 
L 2938 2094 
Q 2938 2591 2744 2837 
Q 2550 3084 2163 3084 
Q 1697 3084 1428 2787 
Q 1159 2491 1159 1978 
L 1159 0 
L 581 0 
L 581 4863 
L 1159 4863 
L 1159 2956 
Q 1366 3272 1645 3428 
Q 1925 3584 2291 3584 
Q 2894 3584 3203 3211 
Q 3513 2838 3513 2113 
z
" transform="scale(0.015625)"/>
      <path id="DejaVuSans-29" d="M 513 4856 
L 1013 4856 
Q 1481 4119 1714 3412 
Q 1947 2706 1947 2009 
Q 1947 1309 1714 600 
Q 1481 -109 1013 -844 
L 513 -844 
Q 928 -128 1133 580 
Q 1338 1288 1338 2009 
Q 1338 2731 1133 3434 
Q 928 4138 513 4856 
z
" transform="scale(0.015625)"/>
     </defs>
     <use xlink:href="#DejaVuSans-53"/>
     <use xlink:href="#DejaVuSans-75" x="63.476562"/>
     <use xlink:href="#DejaVuSans-63" x="126.855469"/>
     <use xlink:href="#DejaVuSans-63" x="181.835938"/>
     <use xlink:href="#DejaVuSans-65" x="236.816406"/>
     <use xlink:href="#DejaVuSans-73" x="298.339844"/>
     <use xlink:href="#DejaVuSans-73" x="350.439453"/>
     <use xlink:href="#DejaVuSans-20" x="402.539062"/>
     <use xlink:href="#DejaVuSans-72" x="434.326172"/>
     <use xlink:href="#DejaVuSans-61" x="475.439453"/>
     <use xlink:href="#DejaVuSans-74" x="536.71875"/>
     <use xlink:href="#DejaVuSans-65" x="575.927734"/>
     <use xlink:href="#DejaVuSans-20" x="637.451172"/>
     <use xlink:href="#DejaVuSans-70" x="669.238281"/>
     <use xlink:href="#DejaVuSans-65" x="732.714844"/>
     <use xlink:href="#DejaVuSans-72" x="794.238281"/>
     <use xlink:href="#DejaVuSans-20" x="835.351562"/>
     <use xlink:href="#DejaVuSans-73" x="867.138672"/>
     <use xlink:href="#DejaVuSans-63" x="919.238281"/>
     <use xlink:href="#DejaVuSans-65" x="974.21875"/>
     <use xlink:href="#DejaVuSans-6e" x="1035.742188"/>
     <use xlink:href="#DejaVuSans-61" x="1099.121094"/>
     <use xlink:href="#DejaVuSans-72" x="1160.400391"/>
     <use xlink:href="#DejaVuSans-69" x="1201.513672"/>
     <use xlink:href="#DejaVuSans-6f" x="1229.296875"/>
     <use xlink:href="#DejaVuSans-20" x="1290.478516"/>
     <use xlink:href="#DejaVuSans-28" x="1322.265625"/>
     <use xlink:href="#DejaVuSans-48" x="1361.279297"/>
     <use xlink:href="#DejaVuSans-69" x="1436.474609"/>
     <use xlink:href="#DejaVuSans-67" x="1464.257812"/>
     <use xlink:href="#DejaVuSans-68" x="1527.734375"/>
     <use xlink:href="#DejaVuSans-20" x="1591.113281"/>
     <use xlink:href="#DejaVuSans-73" x="1622.900391"/>
     <use xlink:href="#DejaVuSans-75" x="1675"/>
     <use xlink:href="#DejaVuSans-63" x="1738.378906"/>
     <use xlink:href="#DejaVuSans-63" x="1793.359375"/>
     <use xlink:href="#DejaVuSans-65" x="1848.339844"/>
     <use xlink:href="#DejaVuSans-73" x="1909.863281"/>
     <use xlink:href="#DejaVuSans-73" x="1961.962891"/>
     <use xlink:href="#DejaVuSans-20" x="2014.0625"/>
     <use xlink:href="#DejaVuSans-72" x="2045.849609"/>
     <use xlink:href="#DejaVuSans-61" x="2086.962891"/>
     <use xlink:href="#DejaVuSans-74" x="2148.242188"/>
     <use xlink:href="#DejaVuSans-65" x="2187.451172"/>
     <use xlink:href="#DejaVuSans-29" x="2248.974609"/>
    </g>
   </g>
   <g id="legend_1">
    <g id="patch_7">
     <path d="M 1169.965625 247.786875 
L 1276.029688 247.786875 
Q 1278.029688 247.786875 1278.029688 245.786875 
L 1278.029688 70.649375 
Q 1278.029688 68.649375 1276.029688 68.649375 
L 1169.965625 68.649375 
Q 1167.965625 68.649375 1167.965625 70.649375 
L 1167.965625 245.786875 
Q 1167.965625 247.786875 1169.965625 247.786875 
z
" style="fill: #ffffff; opacity: 0.8; stroke: #cccccc; stroke-linejoin: miter"/>
    </g>
    <g id="line2d_45">
     <path d="M 1171.965625 76.747813 
L 1181.965625 76.747813 
L 1191.965625 76.747813 
" style="fill: none; stroke: #1f77b4; stroke-width: 1.5; stroke-linecap: square"/>
    </g>
    <g id="text_20">
     <!-- 01 Norm-Norm -->
     <g transform="translate(1199.965625 80.247813)scale(0.1 -0.1)">
      <defs>
       <path id="DejaVuSans-4e" d="M 628 4666 
L 1478 4666 
L 3547 763 
L 3547 4666 
L 4159 4666 
L 4159 0 
L 3309 0 
L 1241 3903 
L 1241 0 
L 628 0 
L 628 4666 
z
" transform="scale(0.015625)"/>
       <path id="DejaVuSans-6d" d="M 3328 2828 
Q 3544 3216 3844 3400 
Q 4144 3584 4550 3584 
Q 5097 3584 5394 3201 
Q 5691 2819 5691 2113 
L 5691 0 
L 5113 0 
L 5113 2094 
Q 5113 2597 4934 2840 
Q 4756 3084 4391 3084 
Q 3944 3084 3684 2787 
Q 3425 2491 3425 1978 
L 3425 0 
L 2847 0 
L 2847 2094 
Q 2847 2600 2669 2842 
Q 2491 3084 2119 3084 
Q 1678 3084 1418 2786 
Q 1159 2488 1159 1978 
L 1159 0 
L 581 0 
L 581 3500 
L 1159 3500 
L 1159 2956 
Q 1356 3278 1631 3431 
Q 1906 3584 2284 3584 
Q 2666 3584 2933 3390 
Q 3200 3197 3328 2828 
z
" transform="scale(0.015625)"/>
      </defs>
      <use xlink:href="#DejaVuSans-30"/>
      <use xlink:href="#DejaVuSans-31" x="63.623047"/>
      <use xlink:href="#DejaVuSans-20" x="127.246094"/>
      <use xlink:href="#DejaVuSans-4e" x="159.033203"/>
      <use xlink:href="#DejaVuSans-6f" x="233.837891"/>
      <use xlink:href="#DejaVuSans-72" x="295.019531"/>
      <use xlink:href="#DejaVuSans-6d" x="334.382812"/>
      <use xlink:href="#DejaVuSans-2d" x="431.794922"/>
      <use xlink:href="#DejaVuSans-4e" x="467.878906"/>
      <use xlink:href="#DejaVuSans-6f" x="542.683594"/>
      <use xlink:href="#DejaVuSans-72" x="603.865234"/>
      <use xlink:href="#DejaVuSans-6d" x="643.228516"/>
     </g>
    </g>
    <g id="line2d_46">
     <path d="M 1171.965625 91.425938 
L 1181.965625 91.425938 
L 1191.965625 91.425938 
" style="fill: none; stroke: #ff7f0e; stroke-width: 1.5; stroke-linecap: square"/>
    </g>
    <g id="text_21">
     <!-- 02 TorN-TorN -->
     <g transform="translate(1199.965625 94.925938)scale(0.1 -0.1)">
      <defs>
       <path id="DejaVuSans-54" d="M -19 4666 
L 3928 4666 
L 3928 4134 
L 2272 4134 
L 2272 0 
L 1638 0 
L 1638 4134 
L -19 4134 
L -19 4666 
z
" transform="scale(0.015625)"/>
      </defs>
      <use xlink:href="#DejaVuSans-30"/>
      <use xlink:href="#DejaVuSans-32" x="63.623047"/>
      <use xlink:href="#DejaVuSans-20" x="127.246094"/>
      <use xlink:href="#DejaVuSans-54" x="159.033203"/>
      <use xlink:href="#DejaVuSans-6f" x="203.117188"/>
      <use xlink:href="#DejaVuSans-72" x="264.298828"/>
      <use xlink:href="#DejaVuSans-4e" x="305.412109"/>
      <use xlink:href="#DejaVuSans-2d" x="380.216797"/>
      <use xlink:href="#DejaVuSans-54" x="407.175781"/>
      <use xlink:href="#DejaVuSans-6f" x="451.259766"/>
      <use xlink:href="#DejaVuSans-72" x="512.441406"/>
      <use xlink:href="#DejaVuSans-4e" x="553.554688"/>
     </g>
    </g>
    <g id="line2d_47">
     <path d="M 1171.965625 106.104063 
L 1181.965625 106.104063 
L 1191.965625 106.104063 
" style="fill: none; stroke: #2ca02c; stroke-width: 1.5; stroke-linecap: square"/>
    </g>
    <g id="text_22">
     <!-- 03 TorE-TorE -->
     <g transform="translate(1199.965625 109.604063)scale(0.1 -0.1)">
      <defs>
       <path id="DejaVuSans-45" d="M 628 4666 
L 3578 4666 
L 3578 4134 
L 1259 4134 
L 1259 2753 
L 3481 2753 
L 3481 2222 
L 1259 2222 
L 1259 531 
L 3634 531 
L 3634 0 
L 628 0 
L 628 4666 
z
" transform="scale(0.015625)"/>
      </defs>
      <use xlink:href="#DejaVuSans-30"/>
      <use xlink:href="#DejaVuSans-33" x="63.623047"/>
      <use xlink:href="#DejaVuSans-20" x="127.246094"/>
      <use xlink:href="#DejaVuSans-54" x="159.033203"/>
      <use xlink:href="#DejaVuSans-6f" x="203.117188"/>
      <use xlink:href="#DejaVuSans-72" x="264.298828"/>
      <use xlink:href="#DejaVuSans-45" x="305.412109"/>
      <use xlink:href="#DejaVuSans-2d" x="368.595703"/>
      <use xlink:href="#DejaVuSans-54" x="395.554688"/>
      <use xlink:href="#DejaVuSans-6f" x="439.638672"/>
      <use xlink:href="#DejaVuSans-72" x="500.820312"/>
      <use xlink:href="#DejaVuSans-45" x="541.933594"/>
     </g>
    </g>
    <g id="line2d_48">
     <path d="M 1171.965625 120.782188 
L 1181.965625 120.782188 
L 1191.965625 120.782188 
" style="fill: none; stroke: #d62728; stroke-width: 1.5; stroke-linecap: square"/>
    </g>
    <g id="text_23">
     <!-- 05 Loki-Loki -->
     <g transform="translate(1199.965625 124.282188)scale(0.1 -0.1)">
      <defs>
       <path id="DejaVuSans-4c" d="M 628 4666 
L 1259 4666 
L 1259 531 
L 3531 531 
L 3531 0 
L 628 0 
L 628 4666 
z
" transform="scale(0.015625)"/>
       <path id="DejaVuSans-6b" d="M 581 4863 
L 1159 4863 
L 1159 1991 
L 2875 3500 
L 3609 3500 
L 1753 1863 
L 3688 0 
L 2938 0 
L 1159 1709 
L 1159 0 
L 581 0 
L 581 4863 
z
" transform="scale(0.015625)"/>
      </defs>
      <use xlink:href="#DejaVuSans-30"/>
      <use xlink:href="#DejaVuSans-35" x="63.623047"/>
      <use xlink:href="#DejaVuSans-20" x="127.246094"/>
      <use xlink:href="#DejaVuSans-4c" x="159.033203"/>
      <use xlink:href="#DejaVuSans-6f" x="212.996094"/>
      <use xlink:href="#DejaVuSans-6b" x="274.177734"/>
      <use xlink:href="#DejaVuSans-69" x="332.087891"/>
      <use xlink:href="#DejaVuSans-2d" x="359.871094"/>
      <use xlink:href="#DejaVuSans-4c" x="395.955078"/>
      <use xlink:href="#DejaVuSans-6f" x="449.917969"/>
      <use xlink:href="#DejaVuSans-6b" x="511.099609"/>
      <use xlink:href="#DejaVuSans-69" x="569.009766"/>
     </g>
    </g>
    <g id="line2d_49">
     <path d="M 1171.965625 135.460313 
L 1181.965625 135.460313 
L 1191.965625 135.460313 
" style="fill: none; stroke: #9467bd; stroke-width: 1.5; stroke-linecap: square"/>
    </g>
    <g id="text_24">
     <!-- 06 Norm-TorN -->
     <g transform="translate(1199.965625 138.960313)scale(0.1 -0.1)">
      <use xlink:href="#DejaVuSans-30"/>
      <use xlink:href="#DejaVuSans-36" x="63.623047"/>
      <use xlink:href="#DejaVuSans-20" x="127.246094"/>
      <use xlink:href="#DejaVuSans-4e" x="159.033203"/>
      <use xlink:href="#DejaVuSans-6f" x="233.837891"/>
      <use xlink:href="#DejaVuSans-72" x="295.019531"/>
      <use xlink:href="#DejaVuSans-6d" x="334.382812"/>
      <use xlink:href="#DejaVuSans-2d" x="431.794922"/>
      <use xlink:href="#DejaVuSans-54" x="458.753906"/>
      <use xlink:href="#DejaVuSans-6f" x="502.837891"/>
      <use xlink:href="#DejaVuSans-72" x="564.019531"/>
      <use xlink:href="#DejaVuSans-4e" x="605.132812"/>
     </g>
    </g>
    <g id="line2d_50">
     <path d="M 1171.965625 150.138438 
L 1181.965625 150.138438 
L 1191.965625 150.138438 
" style="fill: none; stroke: #8c564b; stroke-width: 1.5; stroke-linecap: square"/>
    </g>
    <g id="text_25">
     <!-- 07 TorN-Norm -->
     <g transform="translate(1199.965625 153.638438)scale(0.1 -0.1)">
      <use xlink:href="#DejaVuSans-30"/>
      <use xlink:href="#DejaVuSans-37" x="63.623047"/>
      <use xlink:href="#DejaVuSans-20" x="127.246094"/>
      <use xlink:href="#DejaVuSans-54" x="159.033203"/>
      <use xlink:href="#DejaVuSans-6f" x="203.117188"/>
      <use xlink:href="#DejaVuSans-72" x="264.298828"/>
      <use xlink:href="#DejaVuSans-4e" x="305.412109"/>
      <use xlink:href="#DejaVuSans-2d" x="380.216797"/>
      <use xlink:href="#DejaVuSans-4e" x="416.300781"/>
      <use xlink:href="#DejaVuSans-6f" x="491.105469"/>
      <use xlink:href="#DejaVuSans-72" x="552.287109"/>
      <use xlink:href="#DejaVuSans-6d" x="591.650391"/>
     </g>
    </g>
    <g id="line2d_51">
     <path d="M 1171.965625 164.816563 
L 1181.965625 164.816563 
L 1191.965625 164.816563 
" style="fill: none; stroke: #e377c2; stroke-width: 1.5; stroke-linecap: square"/>
    </g>
    <g id="text_26">
     <!-- 08 Norm-TorE -->
     <g transform="translate(1199.965625 168.316563)scale(0.1 -0.1)">
      <use xlink:href="#DejaVuSans-30"/>
      <use xlink:href="#DejaVuSans-38" x="63.623047"/>
      <use xlink:href="#DejaVuSans-20" x="127.246094"/>
      <use xlink:href="#DejaVuSans-4e" x="159.033203"/>
      <use xlink:href="#DejaVuSans-6f" x="233.837891"/>
      <use xlink:href="#DejaVuSans-72" x="295.019531"/>
      <use xlink:href="#DejaVuSans-6d" x="334.382812"/>
      <use xlink:href="#DejaVuSans-2d" x="431.794922"/>
      <use xlink:href="#DejaVuSans-54" x="458.753906"/>
      <use xlink:href="#DejaVuSans-6f" x="502.837891"/>
      <use xlink:href="#DejaVuSans-72" x="564.019531"/>
      <use xlink:href="#DejaVuSans-45" x="605.132812"/>
     </g>
    </g>
    <g id="line2d_52">
     <path d="M 1171.965625 179.494687 
L 1181.965625 179.494687 
L 1191.965625 179.494687 
" style="fill: none; stroke: #7f7f7f; stroke-width: 1.5; stroke-linecap: square"/>
    </g>
    <g id="text_27">
     <!-- 09 TorE-Norm -->
     <g transform="translate(1199.965625 182.994687)scale(0.1 -0.1)">
      <use xlink:href="#DejaVuSans-30"/>
      <use xlink:href="#DejaVuSans-39" x="63.623047"/>
      <use xlink:href="#DejaVuSans-20" x="127.246094"/>
      <use xlink:href="#DejaVuSans-54" x="159.033203"/>
      <use xlink:href="#DejaVuSans-6f" x="203.117188"/>
      <use xlink:href="#DejaVuSans-72" x="264.298828"/>
      <use xlink:href="#DejaVuSans-45" x="305.412109"/>
      <use xlink:href="#DejaVuSans-2d" x="368.595703"/>
      <use xlink:href="#DejaVuSans-4e" x="404.679688"/>
      <use xlink:href="#DejaVuSans-6f" x="479.484375"/>
      <use xlink:href="#DejaVuSans-72" x="540.666016"/>
      <use xlink:href="#DejaVuSans-6d" x="580.029297"/>
     </g>
    </g>
    <g id="line2d_53">
     <path d="M 1171.965625 194.172813 
L 1181.965625 194.172813 
L 1191.965625 194.172813 
" style="fill: none; stroke: #bcbd22; stroke-width: 1.5; stroke-linecap: square"/>
    </g>
    <g id="text_28">
     <!-- 12 Norm-Loki -->
     <g transform="translate(1199.965625 197.672813)scale(0.1 -0.1)">
      <use xlink:href="#DejaVuSans-31"/>
      <use xlink:href="#DejaVuSans-32" x="63.623047"/>
      <use xlink:href="#DejaVuSans-20" x="127.246094"/>
      <use xlink:href="#DejaVuSans-4e" x="159.033203"/>
      <use xlink:href="#DejaVuSans-6f" x="233.837891"/>
      <use xlink:href="#DejaVuSans-72" x="295.019531"/>
      <use xlink:href="#DejaVuSans-6d" x="334.382812"/>
      <use xlink:href="#DejaVuSans-2d" x="431.794922"/>
      <use xlink:href="#DejaVuSans-4c" x="467.878906"/>
      <use xlink:href="#DejaVuSans-6f" x="521.841797"/>
      <use xlink:href="#DejaVuSans-6b" x="583.023438"/>
      <use xlink:href="#DejaVuSans-69" x="640.933594"/>
     </g>
    </g>
    <g id="line2d_54">
     <path d="M 1171.965625 208.850937 
L 1181.965625 208.850937 
L 1191.965625 208.850937 
" style="fill: none; stroke: #17becf; stroke-width: 1.5; stroke-linecap: square"/>
    </g>
    <g id="text_29">
     <!-- 13 Loki-Norm -->
     <g transform="translate(1199.965625 212.350937)scale(0.1 -0.1)">
      <use xlink:href="#DejaVuSans-31"/>
      <use xlink:href="#DejaVuSans-33" x="63.623047"/>
      <use xlink:href="#DejaVuSans-20" x="127.246094"/>
      <use xlink:href="#DejaVuSans-4c" x="159.033203"/>
      <use xlink:href="#DejaVuSans-6f" x="212.996094"/>
      <use xlink:href="#DejaVuSans-6b" x="274.177734"/>
      <use xlink:href="#DejaVuSans-69" x="332.087891"/>
      <use xlink:href="#DejaVuSans-2d" x="359.871094"/>
      <use xlink:href="#DejaVuSans-4e" x="395.955078"/>
      <use xlink:href="#DejaVuSans-6f" x="470.759766"/>
      <use xlink:href="#DejaVuSans-72" x="531.941406"/>
      <use xlink:href="#DejaVuSans-6d" x="571.304688"/>
     </g>
    </g>
    <g id="line2d_55">
     <path d="M 1171.965625 223.529062 
L 1181.965625 223.529062 
L 1191.965625 223.529062 
" style="fill: none; stroke: #1f77b4; stroke-width: 1.5; stroke-linecap: square"/>
    </g>
    <g id="text_30">
     <!-- 14 TorN-TorE -->
     <g transform="translate(1199.965625 227.029062)scale(0.1 -0.1)">
      <defs>
       <path id="DejaVuSans-34" d="M 2419 4116 
L 825 1625 
L 2419 1625 
L 2419 4116 
z
M 2253 4666 
L 3047 4666 
L 3047 1625 
L 3713 1625 
L 3713 1100 
L 3047 1100 
L 3047 0 
L 2419 0 
L 2419 1100 
L 313 1100 
L 313 1709 
L 2253 4666 
z
" transform="scale(0.015625)"/>
      </defs>
      <use xlink:href="#DejaVuSans-31"/>
      <use xlink:href="#DejaVuSans-34" x="63.623047"/>
      <use xlink:href="#DejaVuSans-20" x="127.246094"/>
      <use xlink:href="#DejaVuSans-54" x="159.033203"/>
      <use xlink:href="#DejaVuSans-6f" x="203.117188"/>
      <use xlink:href="#DejaVuSans-72" x="264.298828"/>
      <use xlink:href="#DejaVuSans-4e" x="305.412109"/>
      <use xlink:href="#DejaVuSans-2d" x="380.216797"/>
      <use xlink:href="#DejaVuSans-54" x="407.175781"/>
      <use xlink:href="#DejaVuSans-6f" x="451.259766"/>
      <use xlink:href="#DejaVuSans-72" x="512.441406"/>
      <use xlink:href="#DejaVuSans-45" x="553.554688"/>
     </g>
    </g>
    <g id="line2d_56">
     <path d="M 1171.965625 238.207187 
L 1181.965625 238.207187 
L 1191.965625 238.207187 
" style="fill: none; stroke: #ff7f0e; stroke-width: 1.5; stroke-linecap: square"/>
    </g>
    <g id="text_31">
     <!-- 15 TorE-TorN -->
     <g transform="translate(1199.965625 241.707187)scale(0.1 -0.1)">
      <use xlink:href="#DejaVuSans-31"/>
      <use xlink:href="#DejaVuSans-35" x="63.623047"/>
      <use xlink:href="#DejaVuSans-20" x="127.246094"/>
      <use xlink:href="#DejaVuSans-54" x="159.033203"/>
      <use xlink:href="#DejaVuSans-6f" x="203.117188"/>
      <use xlink:href="#DejaVuSans-72" x="264.298828"/>
      <use xlink:href="#DejaVuSans-45" x="305.412109"/>
      <use xlink:href="#DejaVuSans-2d" x="368.595703"/>
      <use xlink:href="#DejaVuSans-54" x="395.554688"/>
      <use xlink:href="#DejaVuSans-6f" x="439.638672"/>
      <use xlink:href="#DejaVuSans-72" x="500.820312"/>
      <use xlink:href="#DejaVuSans-4e" x="541.933594"/>
     </g>
    </g>
   </g>
  </g>
 </g>
 <defs>
  <clipPath id="p6faa5e6f11">
   <rect x="46.965625" y="22.318125" width="1116" height="271.8"/>
  </clipPath>
 </defs>
</svg>
