<?xml version="1.0" encoding="utf-8" standalone="no"?>
<!DOCTYPE svg PUBLIC "-//W3C//DTD SVG 1.1//EN"
  "http://www.w3.org/Graphics/SVG/1.1/DTD/svg11.dtd">
<svg xmlns:xlink="http://www.w3.org/1999/xlink" width="1396.671875pt" height="331.674375pt" viewBox="0 0 1396.671875 331.674375" xmlns="http://www.w3.org/2000/svg" version="1.1">
 <metadata>
  <rdf:RDF xmlns:dc="http://purl.org/dc/elements/1.1/" xmlns:cc="http://creativecommons.org/ns#" xmlns:rdf="http://www.w3.org/1999/02/22-rdf-syntax-ns#">
   <cc:Work>
    <dc:type rdf:resource="http://purl.org/dc/dcmitype/StillImage"/>
    <dc:date>2023-01-25T10:32:02.930227</dc:date>
    <dc:format>image/svg+xml</dc:format>
    <dc:creator>
     <cc:Agent>
      <dc:title>Matplotlib v3.5.2, https://matplotlib.org/</dc:title>
     </cc:Agent>
    </dc:creator>
   </cc:Work>
  </rdf:RDF>
 </metadata>
 <defs>
  <style type="text/css">*{stroke-linejoin: round; stroke-linecap: butt}</style>
 </defs>
 <g id="figure_1">
  <g id="patch_1">
   <path d="M 0 331.674375 
L 1396.671875 331.674375 
L 1396.671875 0 
L 0 0 
z
" style="fill: #ffffff"/>
  </g>
  <g id="axes_1">
   <g id="patch_2">
    <path d="M 53.328125 294.118125 
L 1169.328125 294.118125 
L 1169.328125 22.318125 
L 53.328125 22.318125 
z
" style="fill: #ffffff"/>
   </g>
   <g id="patch_3">
    <path d="M 68.012336 294.118125 
L 77.801809 294.118125 
L 77.801809 293.908863 
L 68.012336 293.908863 
z
" clip-path="url(#p567a292101)" style="fill: #ff0000"/>
   </g>
   <g id="patch_4">
    <path d="M 126.749178 294.118125 
L 136.538651 294.118125 
L 136.538651 224.015342 
L 126.749178 224.015342 
z
" clip-path="url(#p567a292101)" style="fill: #ff0000"/>
   </g>
   <g id="patch_5">
    <path d="M 185.48602 294.118125 
L 195.275493 294.118125 
L 195.275493 183.83703 
L 185.48602 183.83703 
z
" clip-path="url(#p567a292101)" style="fill: #ff0000"/>
   </g>
   <g id="patch_6">
    <path d="M 244.222862 294.118125 
L 254.012336 294.118125 
L 254.012336 284.701333 
L 244.222862 284.701333 
z
" clip-path="url(#p567a292101)" style="fill: #ff0000"/>
   </g>
   <g id="patch_7">
    <path d="M 302.959704 294.118125 
L 312.749178 294.118125 
L 312.749178 286.37543 
L 302.959704 286.37543 
z
" clip-path="url(#p567a292101)" style="fill: #ff0000"/>
   </g>
   <g id="patch_8">
    <path d="M 361.696546 294.118125 
L 371.48602 294.118125 
L 371.48602 268.797418 
L 361.696546 268.797418 
z
" clip-path="url(#p567a292101)" style="fill: #ff0000"/>
   </g>
   <g id="patch_9">
    <path d="M 420.433388 294.118125 
L 430.222862 294.118125 
L 430.222862 267.332584 
L 420.433388 267.332584 
z
" clip-path="url(#p567a292101)" style="fill: #ff0000"/>
   </g>
   <g id="patch_10">
    <path d="M 479.17023 294.118125 
L 488.959704 294.118125 
L 488.959704 206.646592 
L 479.17023 206.646592 
z
" clip-path="url(#p567a292101)" style="fill: #ff0000"/>
   </g>
   <g id="patch_11">
    <path d="M 537.907072 294.118125 
L 547.696546 294.118125 
L 547.696546 181.116624 
L 537.907072 181.116624 
z
" clip-path="url(#p567a292101)" style="fill: #ff0000"/>
   </g>
   <g id="patch_12">
    <path d="M 596.643914 294.118125 
L 606.433388 294.118125 
L 606.433388 210.831833 
L 596.643914 210.831833 
z
" clip-path="url(#p567a292101)" style="fill: #ff0000"/>
   </g>
   <g id="patch_13">
    <path d="M 655.380757 294.118125 
L 665.17023 294.118125 
L 665.17023 177.140645 
L 655.380757 177.140645 
z
" clip-path="url(#p567a292101)" style="fill: #ff0000"/>
   </g>
   <g id="patch_14">
    <path d="M 714.117599 294.118125 
L 723.907072 294.118125 
L 723.907072 263.775129 
L 714.117599 263.775129 
z
" clip-path="url(#p567a292101)" style="fill: #ff0000"/>
   </g>
   <g id="patch_15">
    <path d="M 772.854441 294.118125 
L 782.643914 294.118125 
L 782.643914 275.284541 
L 772.854441 275.284541 
z
" clip-path="url(#p567a292101)" style="fill: #ff0000"/>
   </g>
   <g id="patch_16">
    <path d="M 831.591283 294.118125 
L 841.380757 294.118125 
L 841.380757 161.027468 
L 831.591283 161.027468 
z
" clip-path="url(#p567a292101)" style="fill: #ff0000"/>
   </g>
   <g id="patch_17">
    <path d="M 890.328125 294.118125 
L 900.117599 294.118125 
L 900.117599 281.980927 
L 890.328125 281.980927 
z
" clip-path="url(#p567a292101)" style="fill: #ff0000"/>
   </g>
   <g id="patch_18">
    <path d="M 949.064967 294.118125 
L 958.854441 294.118125 
L 958.854441 275.493803 
L 949.064967 275.493803 
z
" clip-path="url(#p567a292101)" style="fill: #ff0000"/>
   </g>
   <g id="patch_19">
    <path d="M 1007.801809 294.118125 
L 1017.591283 294.118125 
L 1017.591283 278.841996 
L 1007.801809 278.841996 
z
" clip-path="url(#p567a292101)" style="fill: #ff0000"/>
   </g>
   <g id="patch_20">
    <path d="M 1066.538651 294.118125 
L 1076.328125 294.118125 
L 1076.328125 287.212478 
L 1066.538651 287.212478 
z
" clip-path="url(#p567a292101)" style="fill: #ff0000"/>
   </g>
   <g id="patch_21">
    <path d="M 1125.275493 294.118125 
L 1135.064967 294.118125 
L 1135.064967 281.980927 
L 1125.275493 281.980927 
z
" clip-path="url(#p567a292101)" style="fill: #ff0000"/>
   </g>
   <g id="patch_22">
    <path d="M 77.801809 294.118125 
L 87.591283 294.118125 
L 87.591283 294.118125 
L 77.801809 294.118125 
z
" clip-path="url(#p567a292101)" style="fill: #0000ff"/>
   </g>
   <g id="patch_23">
    <path d="M 136.538651 294.118125 
L 146.328125 294.118125 
L 146.328125 291.816243 
L 136.538651 291.816243 
z
" clip-path="url(#p567a292101)" style="fill: #0000ff"/>
   </g>
   <g id="patch_24">
    <path d="M 195.275493 294.118125 
L 205.064967 294.118125 
L 205.064967 291.816243 
L 195.275493 291.816243 
z
" clip-path="url(#p567a292101)" style="fill: #0000ff"/>
   </g>
   <g id="patch_25">
    <path d="M 254.012336 294.118125 
L 263.801809 294.118125 
L 263.801809 293.699601 
L 254.012336 293.699601 
z
" clip-path="url(#p567a292101)" style="fill: #0000ff"/>
   </g>
   <g id="patch_26">
    <path d="M 312.749178 294.118125 
L 322.538651 294.118125 
L 322.538651 293.699601 
L 312.749178 293.699601 
z
" clip-path="url(#p567a292101)" style="fill: #0000ff"/>
   </g>
   <g id="patch_27">
    <path d="M 371.48602 294.118125 
L 381.275493 294.118125 
L 381.275493 292.234767 
L 371.48602 292.234767 
z
" clip-path="url(#p567a292101)" style="fill: #0000ff"/>
   </g>
   <g id="patch_28">
    <path d="M 430.222862 294.118125 
L 440.012336 294.118125 
L 440.012336 291.188456 
L 430.222862 291.188456 
z
" clip-path="url(#p567a292101)" style="fill: #0000ff"/>
   </g>
   <g id="patch_29">
    <path d="M 488.959704 294.118125 
L 498.749178 294.118125 
L 498.749178 289.723622 
L 488.959704 289.723622 
z
" clip-path="url(#p567a292101)" style="fill: #0000ff"/>
   </g>
   <g id="patch_30">
    <path d="M 547.696546 294.118125 
L 557.48602 294.118125 
L 557.48602 290.56067 
L 547.696546 290.56067 
z
" clip-path="url(#p567a292101)" style="fill: #0000ff"/>
   </g>
   <g id="patch_31">
    <path d="M 606.433388 294.118125 
L 616.222862 294.118125 
L 616.222862 291.816243 
L 606.433388 291.816243 
z
" clip-path="url(#p567a292101)" style="fill: #0000ff"/>
   </g>
   <g id="patch_32">
    <path d="M 665.17023 294.118125 
L 674.959704 294.118125 
L 674.959704 293.071815 
L 665.17023 293.071815 
z
" clip-path="url(#p567a292101)" style="fill: #0000ff"/>
   </g>
   <g id="patch_33">
    <path d="M 723.907072 294.118125 
L 733.696546 294.118125 
L 733.696546 293.071815 
L 723.907072 293.071815 
z
" clip-path="url(#p567a292101)" style="fill: #0000ff"/>
   </g>
   <g id="patch_34">
    <path d="M 782.643914 294.118125 
L 792.433388 294.118125 
L 792.433388 292.653291 
L 782.643914 292.653291 
z
" clip-path="url(#p567a292101)" style="fill: #0000ff"/>
   </g>
   <g id="patch_35">
    <path d="M 841.380757 294.118125 
L 851.17023 294.118125 
L 851.17023 288.677312 
L 841.380757 288.677312 
z
" clip-path="url(#p567a292101)" style="fill: #0000ff"/>
   </g>
   <g id="patch_36">
    <path d="M 900.117599 294.118125 
L 909.907072 294.118125 
L 909.907072 293.281077 
L 900.117599 293.281077 
z
" clip-path="url(#p567a292101)" style="fill: #0000ff"/>
   </g>
   <g id="patch_37">
    <path d="M 958.854441 294.118125 
L 968.643914 294.118125 
L 968.643914 293.281077 
L 958.854441 293.281077 
z
" clip-path="url(#p567a292101)" style="fill: #0000ff"/>
   </g>
   <g id="patch_38">
    <path d="M 1017.591283 294.118125 
L 1027.380757 294.118125 
L 1027.380757 293.490339 
L 1017.591283 293.490339 
z
" clip-path="url(#p567a292101)" style="fill: #0000ff"/>
   </g>
   <g id="patch_39">
    <path d="M 1076.328125 294.118125 
L 1086.117599 294.118125 
L 1086.117599 293.281077 
L 1076.328125 293.281077 
z
" clip-path="url(#p567a292101)" style="fill: #0000ff"/>
   </g>
   <g id="patch_40">
    <path d="M 1135.064967 294.118125 
L 1144.854441 294.118125 
L 1144.854441 293.699601 
L 1135.064967 293.699601 
z
" clip-path="url(#p567a292101)" style="fill: #0000ff"/>
   </g>
   <g id="patch_41">
    <path d="M 87.591283 294.118125 
L 97.380757 294.118125 
L 97.380757 35.260982 
L 87.591283 35.260982 
z
" clip-path="url(#p567a292101)" style="fill: #008000"/>
   </g>
   <g id="patch_42">
    <path d="M 146.328125 294.118125 
L 156.117599 294.118125 
L 156.117599 107.456386 
L 146.328125 107.456386 
z
" clip-path="url(#p567a292101)" style="fill: #008000"/>
   </g>
   <g id="patch_43">
    <path d="M 205.064967 294.118125 
L 214.854441 294.118125 
L 214.854441 147.843959 
L 205.064967 147.843959 
z
" clip-path="url(#p567a292101)" style="fill: #008000"/>
   </g>
   <g id="patch_44">
    <path d="M 263.801809 294.118125 
L 273.591283 294.118125 
L 273.591283 45.096298 
L 263.801809 45.096298 
z
" clip-path="url(#p567a292101)" style="fill: #008000"/>
   </g>
   <g id="patch_45">
    <path d="M 322.538651 294.118125 
L 332.328125 294.118125 
L 332.328125 43.422202 
L 322.538651 43.422202 
z
" clip-path="url(#p567a292101)" style="fill: #008000"/>
   </g>
   <g id="patch_46">
    <path d="M 381.275493 294.118125 
L 391.064967 294.118125 
L 391.064967 62.465047 
L 381.275493 62.465047 
z
" clip-path="url(#p567a292101)" style="fill: #008000"/>
   </g>
   <g id="patch_47">
    <path d="M 440.012336 294.118125 
L 449.801809 294.118125 
L 449.801809 64.976192 
L 440.012336 64.976192 
z
" clip-path="url(#p567a292101)" style="fill: #008000"/>
   </g>
   <g id="patch_48">
    <path d="M 498.749178 294.118125 
L 508.538651 294.118125 
L 508.538651 127.127017 
L 498.749178 127.127017 
z
" clip-path="url(#p567a292101)" style="fill: #008000"/>
   </g>
   <g id="patch_49">
    <path d="M 557.48602 294.118125 
L 567.275493 294.118125 
L 567.275493 151.819938 
L 557.48602 151.819938 
z
" clip-path="url(#p567a292101)" style="fill: #008000"/>
   </g>
   <g id="patch_50">
    <path d="M 616.222862 294.118125 
L 626.012336 294.118125 
L 626.012336 120.849156 
L 616.222862 120.849156 
z
" clip-path="url(#p567a292101)" style="fill: #008000"/>
   </g>
   <g id="patch_51">
    <path d="M 674.959704 294.118125 
L 684.749178 294.118125 
L 684.749178 153.284772 
L 674.959704 153.284772 
z
" clip-path="url(#p567a292101)" style="fill: #008000"/>
   </g>
   <g id="patch_52">
    <path d="M 733.696546 294.118125 
L 743.48602 294.118125 
L 743.48602 66.441026 
L 733.696546 66.441026 
z
" clip-path="url(#p567a292101)" style="fill: #008000"/>
   </g>
   <g id="patch_53">
    <path d="M 792.433388 294.118125 
L 802.222862 294.118125 
L 802.222862 55.350138 
L 792.433388 55.350138 
z
" clip-path="url(#p567a292101)" style="fill: #008000"/>
   </g>
   <g id="patch_54">
    <path d="M 851.17023 294.118125 
L 860.959704 294.118125 
L 860.959704 173.58319 
L 851.17023 173.58319 
z
" clip-path="url(#p567a292101)" style="fill: #008000"/>
   </g>
   <g id="patch_55">
    <path d="M 909.907072 294.118125 
L 919.696546 294.118125 
L 919.696546 48.025967 
L 909.907072 48.025967 
z
" clip-path="url(#p567a292101)" style="fill: #008000"/>
   </g>
   <g id="patch_56">
    <path d="M 968.643914 294.118125 
L 978.433388 294.118125 
L 978.433388 54.51309 
L 968.643914 54.51309 
z
" clip-path="url(#p567a292101)" style="fill: #008000"/>
   </g>
   <g id="patch_57">
    <path d="M 1027.380757 294.118125 
L 1037.17023 294.118125 
L 1037.17023 50.955635 
L 1027.380757 50.955635 
z
" clip-path="url(#p567a292101)" style="fill: #008000"/>
   </g>
   <g id="patch_58">
    <path d="M 1086.117599 294.118125 
L 1095.907072 294.118125 
L 1095.907072 42.794416 
L 1086.117599 42.794416 
z
" clip-path="url(#p567a292101)" style="fill: #008000"/>
   </g>
   <g id="patch_59">
    <path d="M 1144.854441 294.118125 
L 1154.643914 294.118125 
L 1154.643914 47.607442 
L 1144.854441 47.607442 
z
" clip-path="url(#p567a292101)" style="fill: #008000"/>
   </g>
   <g id="matplotlib.axis_1">
    <g id="xtick_1">
     <g id="line2d_1">
      <defs>
       <path id="m7b8b82bc2e" d="M 0 0 
L 0 3.5 
" style="stroke: #000000; stroke-width: 0.8"/>
      </defs>
      <g>
       <use xlink:href="#m7b8b82bc2e" x="82.696546" y="294.118125" style="stroke: #000000; stroke-width: 0.8"/>
      </g>
     </g>
     <g id="text_1">
      <!-- 1 -->
      <g transform="translate(79.515296 308.716563)scale(0.1 -0.1)">
       <defs>
        <path id="DejaVuSans-31" d="M 794 531 
L 1825 531 
L 1825 4091 
L 703 3866 
L 703 4441 
L 1819 4666 
L 2450 4666 
L 2450 531 
L 3481 531 
L 3481 0 
L 794 0 
L 794 531 
z
" transform="scale(0.015625)"/>
       </defs>
       <use xlink:href="#DejaVuSans-31"/>
      </g>
     </g>
    </g>
    <g id="xtick_2">
     <g id="line2d_2">
      <g>
       <use xlink:href="#m7b8b82bc2e" x="141.433388" y="294.118125" style="stroke: #000000; stroke-width: 0.8"/>
      </g>
     </g>
     <g id="text_2">
      <!-- 2 -->
      <g transform="translate(138.252138 308.716563)scale(0.1 -0.1)">
       <defs>
        <path id="DejaVuSans-32" d="M 1228 531 
L 3431 531 
L 3431 0 
L 469 0 
L 469 531 
Q 828 903 1448 1529 
Q 2069 2156 2228 2338 
Q 2531 2678 2651 2914 
Q 2772 3150 2772 3378 
Q 2772 3750 2511 3984 
Q 2250 4219 1831 4219 
Q 1534 4219 1204 4116 
Q 875 4013 500 3803 
L 500 4441 
Q 881 4594 1212 4672 
Q 1544 4750 1819 4750 
Q 2544 4750 2975 4387 
Q 3406 4025 3406 3419 
Q 3406 3131 3298 2873 
Q 3191 2616 2906 2266 
Q 2828 2175 2409 1742 
Q 1991 1309 1228 531 
z
" transform="scale(0.015625)"/>
       </defs>
       <use xlink:href="#DejaVuSans-32"/>
      </g>
     </g>
    </g>
    <g id="xtick_3">
     <g id="line2d_3">
      <g>
       <use xlink:href="#m7b8b82bc2e" x="200.17023" y="294.118125" style="stroke: #000000; stroke-width: 0.8"/>
      </g>
     </g>
     <g id="text_3">
      <!-- 3 -->
      <g transform="translate(196.98898 308.716563)scale(0.1 -0.1)">
       <defs>
        <path id="DejaVuSans-33" d="M 2597 2516 
Q 3050 2419 3304 2112 
Q 3559 1806 3559 1356 
Q 3559 666 3084 287 
Q 2609 -91 1734 -91 
Q 1441 -91 1130 -33 
Q 819 25 488 141 
L 488 750 
Q 750 597 1062 519 
Q 1375 441 1716 441 
Q 2309 441 2620 675 
Q 2931 909 2931 1356 
Q 2931 1769 2642 2001 
Q 2353 2234 1838 2234 
L 1294 2234 
L 1294 2753 
L 1863 2753 
Q 2328 2753 2575 2939 
Q 2822 3125 2822 3475 
Q 2822 3834 2567 4026 
Q 2313 4219 1838 4219 
Q 1578 4219 1281 4162 
Q 984 4106 628 3988 
L 628 4550 
Q 988 4650 1302 4700 
Q 1616 4750 1894 4750 
Q 2613 4750 3031 4423 
Q 3450 4097 3450 3541 
Q 3450 3153 3228 2886 
Q 3006 2619 2597 2516 
z
" transform="scale(0.015625)"/>
       </defs>
       <use xlink:href="#DejaVuSans-33"/>
      </g>
     </g>
    </g>
    <g id="xtick_4">
     <g id="line2d_4">
      <g>
       <use xlink:href="#m7b8b82bc2e" x="258.907072" y="294.118125" style="stroke: #000000; stroke-width: 0.8"/>
      </g>
     </g>
     <g id="text_4">
      <!-- 4 -->
      <g transform="translate(255.725822 308.716563)scale(0.1 -0.1)">
       <defs>
        <path id="DejaVuSans-34" d="M 2419 4116 
L 825 1625 
L 2419 1625 
L 2419 4116 
z
M 2253 4666 
L 3047 4666 
L 3047 1625 
L 3713 1625 
L 3713 1100 
L 3047 1100 
L 3047 0 
L 2419 0 
L 2419 1100 
L 313 1100 
L 313 1709 
L 2253 4666 
z
" transform="scale(0.015625)"/>
       </defs>
       <use xlink:href="#DejaVuSans-34"/>
      </g>
     </g>
    </g>
    <g id="xtick_5">
     <g id="line2d_5">
      <g>
       <use xlink:href="#m7b8b82bc2e" x="317.643914" y="294.118125" style="stroke: #000000; stroke-width: 0.8"/>
      </g>
     </g>
     <g id="text_5">
      <!-- 5 -->
      <g transform="translate(314.462664 308.716563)scale(0.1 -0.1)">
       <defs>
        <path id="DejaVuSans-35" d="M 691 4666 
L 3169 4666 
L 3169 4134 
L 1269 4134 
L 1269 2991 
Q 1406 3038 1543 3061 
Q 1681 3084 1819 3084 
Q 2600 3084 3056 2656 
Q 3513 2228 3513 1497 
Q 3513 744 3044 326 
Q 2575 -91 1722 -91 
Q 1428 -91 1123 -41 
Q 819 9 494 109 
L 494 744 
Q 775 591 1075 516 
Q 1375 441 1709 441 
Q 2250 441 2565 725 
Q 2881 1009 2881 1497 
Q 2881 1984 2565 2268 
Q 2250 2553 1709 2553 
Q 1456 2553 1204 2497 
Q 953 2441 691 2322 
L 691 4666 
z
" transform="scale(0.015625)"/>
       </defs>
       <use xlink:href="#DejaVuSans-35"/>
      </g>
     </g>
    </g>
    <g id="xtick_6">
     <g id="line2d_6">
      <g>
       <use xlink:href="#m7b8b82bc2e" x="376.380757" y="294.118125" style="stroke: #000000; stroke-width: 0.8"/>
      </g>
     </g>
     <g id="text_6">
      <!-- 6 -->
      <g transform="translate(373.199507 308.716563)scale(0.1 -0.1)">
       <defs>
        <path id="DejaVuSans-36" d="M 2113 2584 
Q 1688 2584 1439 2293 
Q 1191 2003 1191 1497 
Q 1191 994 1439 701 
Q 1688 409 2113 409 
Q 2538 409 2786 701 
Q 3034 994 3034 1497 
Q 3034 2003 2786 2293 
Q 2538 2584 2113 2584 
z
M 3366 4563 
L 3366 3988 
Q 3128 4100 2886 4159 
Q 2644 4219 2406 4219 
Q 1781 4219 1451 3797 
Q 1122 3375 1075 2522 
Q 1259 2794 1537 2939 
Q 1816 3084 2150 3084 
Q 2853 3084 3261 2657 
Q 3669 2231 3669 1497 
Q 3669 778 3244 343 
Q 2819 -91 2113 -91 
Q 1303 -91 875 529 
Q 447 1150 447 2328 
Q 447 3434 972 4092 
Q 1497 4750 2381 4750 
Q 2619 4750 2861 4703 
Q 3103 4656 3366 4563 
z
" transform="scale(0.015625)"/>
       </defs>
       <use xlink:href="#DejaVuSans-36"/>
      </g>
     </g>
    </g>
    <g id="xtick_7">
     <g id="line2d_7">
      <g>
       <use xlink:href="#m7b8b82bc2e" x="435.117599" y="294.118125" style="stroke: #000000; stroke-width: 0.8"/>
      </g>
     </g>
     <g id="text_7">
      <!-- 7 -->
      <g transform="translate(431.936349 308.716563)scale(0.1 -0.1)">
       <defs>
        <path id="DejaVuSans-37" d="M 525 4666 
L 3525 4666 
L 3525 4397 
L 1831 0 
L 1172 0 
L 2766 4134 
L 525 4134 
L 525 4666 
z
" transform="scale(0.015625)"/>
       </defs>
       <use xlink:href="#DejaVuSans-37"/>
      </g>
     </g>
    </g>
    <g id="xtick_8">
     <g id="line2d_8">
      <g>
       <use xlink:href="#m7b8b82bc2e" x="493.854441" y="294.118125" style="stroke: #000000; stroke-width: 0.8"/>
      </g>
     </g>
     <g id="text_8">
      <!-- 8 -->
      <g transform="translate(490.673191 308.716563)scale(0.1 -0.1)">
       <defs>
        <path id="DejaVuSans-38" d="M 2034 2216 
Q 1584 2216 1326 1975 
Q 1069 1734 1069 1313 
Q 1069 891 1326 650 
Q 1584 409 2034 409 
Q 2484 409 2743 651 
Q 3003 894 3003 1313 
Q 3003 1734 2745 1975 
Q 2488 2216 2034 2216 
z
M 1403 2484 
Q 997 2584 770 2862 
Q 544 3141 544 3541 
Q 544 4100 942 4425 
Q 1341 4750 2034 4750 
Q 2731 4750 3128 4425 
Q 3525 4100 3525 3541 
Q 3525 3141 3298 2862 
Q 3072 2584 2669 2484 
Q 3125 2378 3379 2068 
Q 3634 1759 3634 1313 
Q 3634 634 3220 271 
Q 2806 -91 2034 -91 
Q 1263 -91 848 271 
Q 434 634 434 1313 
Q 434 1759 690 2068 
Q 947 2378 1403 2484 
z
M 1172 3481 
Q 1172 3119 1398 2916 
Q 1625 2713 2034 2713 
Q 2441 2713 2670 2916 
Q 2900 3119 2900 3481 
Q 2900 3844 2670 4047 
Q 2441 4250 2034 4250 
Q 1625 4250 1398 4047 
Q 1172 3844 1172 3481 
z
" transform="scale(0.015625)"/>
       </defs>
       <use xlink:href="#DejaVuSans-38"/>
      </g>
     </g>
    </g>
    <g id="xtick_9">
     <g id="line2d_9">
      <g>
       <use xlink:href="#m7b8b82bc2e" x="552.591283" y="294.118125" style="stroke: #000000; stroke-width: 0.8"/>
      </g>
     </g>
     <g id="text_9">
      <!-- 9 -->
      <g transform="translate(549.410033 308.716563)scale(0.1 -0.1)">
       <defs>
        <path id="DejaVuSans-39" d="M 703 97 
L 703 672 
Q 941 559 1184 500 
Q 1428 441 1663 441 
Q 2288 441 2617 861 
Q 2947 1281 2994 2138 
Q 2813 1869 2534 1725 
Q 2256 1581 1919 1581 
Q 1219 1581 811 2004 
Q 403 2428 403 3163 
Q 403 3881 828 4315 
Q 1253 4750 1959 4750 
Q 2769 4750 3195 4129 
Q 3622 3509 3622 2328 
Q 3622 1225 3098 567 
Q 2575 -91 1691 -91 
Q 1453 -91 1209 -44 
Q 966 3 703 97 
z
M 1959 2075 
Q 2384 2075 2632 2365 
Q 2881 2656 2881 3163 
Q 2881 3666 2632 3958 
Q 2384 4250 1959 4250 
Q 1534 4250 1286 3958 
Q 1038 3666 1038 3163 
Q 1038 2656 1286 2365 
Q 1534 2075 1959 2075 
z
" transform="scale(0.015625)"/>
       </defs>
       <use xlink:href="#DejaVuSans-39"/>
      </g>
     </g>
    </g>
    <g id="xtick_10">
     <g id="line2d_10">
      <g>
       <use xlink:href="#m7b8b82bc2e" x="611.328125" y="294.118125" style="stroke: #000000; stroke-width: 0.8"/>
      </g>
     </g>
     <g id="text_10">
      <!-- 10 -->
      <g transform="translate(604.965625 308.716563)scale(0.1 -0.1)">
       <defs>
        <path id="DejaVuSans-30" d="M 2034 4250 
Q 1547 4250 1301 3770 
Q 1056 3291 1056 2328 
Q 1056 1369 1301 889 
Q 1547 409 2034 409 
Q 2525 409 2770 889 
Q 3016 1369 3016 2328 
Q 3016 3291 2770 3770 
Q 2525 4250 2034 4250 
z
M 2034 4750 
Q 2819 4750 3233 4129 
Q 3647 3509 3647 2328 
Q 3647 1150 3233 529 
Q 2819 -91 2034 -91 
Q 1250 -91 836 529 
Q 422 1150 422 2328 
Q 422 3509 836 4129 
Q 1250 4750 2034 4750 
z
" transform="scale(0.015625)"/>
       </defs>
       <use xlink:href="#DejaVuSans-31"/>
       <use xlink:href="#DejaVuSans-30" x="63.623047"/>
      </g>
     </g>
    </g>
    <g id="xtick_11">
     <g id="line2d_11">
      <g>
       <use xlink:href="#m7b8b82bc2e" x="670.064967" y="294.118125" style="stroke: #000000; stroke-width: 0.8"/>
      </g>
     </g>
     <g id="text_11">
      <!-- 11 -->
      <g transform="translate(663.702467 308.716563)scale(0.1 -0.1)">
       <use xlink:href="#DejaVuSans-31"/>
       <use xlink:href="#DejaVuSans-31" x="63.623047"/>
      </g>
     </g>
    </g>
    <g id="xtick_12">
     <g id="line2d_12">
      <g>
       <use xlink:href="#m7b8b82bc2e" x="728.801809" y="294.118125" style="stroke: #000000; stroke-width: 0.8"/>
      </g>
     </g>
     <g id="text_12">
      <!-- 12 -->
      <g transform="translate(722.439309 308.716563)scale(0.1 -0.1)">
       <use xlink:href="#DejaVuSans-31"/>
       <use xlink:href="#DejaVuSans-32" x="63.623047"/>
      </g>
     </g>
    </g>
    <g id="xtick_13">
     <g id="line2d_13">
      <g>
       <use xlink:href="#m7b8b82bc2e" x="787.538651" y="294.118125" style="stroke: #000000; stroke-width: 0.8"/>
      </g>
     </g>
     <g id="text_13">
      <!-- 13 -->
      <g transform="translate(781.176151 308.716563)scale(0.1 -0.1)">
       <use xlink:href="#DejaVuSans-31"/>
       <use xlink:href="#DejaVuSans-33" x="63.623047"/>
      </g>
     </g>
    </g>
    <g id="xtick_14">
     <g id="line2d_14">
      <g>
       <use xlink:href="#m7b8b82bc2e" x="846.275493" y="294.118125" style="stroke: #000000; stroke-width: 0.8"/>
      </g>
     </g>
     <g id="text_14">
      <!-- 14 -->
      <g transform="translate(839.912993 308.716563)scale(0.1 -0.1)">
       <use xlink:href="#DejaVuSans-31"/>
       <use xlink:href="#DejaVuSans-34" x="63.623047"/>
      </g>
     </g>
    </g>
    <g id="xtick_15">
     <g id="line2d_15">
      <g>
       <use xlink:href="#m7b8b82bc2e" x="905.012336" y="294.118125" style="stroke: #000000; stroke-width: 0.8"/>
      </g>
     </g>
     <g id="text_15">
      <!-- 15 -->
      <g transform="translate(898.649836 308.716563)scale(0.1 -0.1)">
       <use xlink:href="#DejaVuSans-31"/>
       <use xlink:href="#DejaVuSans-35" x="63.623047"/>
      </g>
     </g>
    </g>
    <g id="xtick_16">
     <g id="line2d_16">
      <g>
       <use xlink:href="#m7b8b82bc2e" x="963.749178" y="294.118125" style="stroke: #000000; stroke-width: 0.8"/>
      </g>
     </g>
     <g id="text_16">
      <!-- 16 -->
      <g transform="translate(957.386678 308.716563)scale(0.1 -0.1)">
       <use xlink:href="#DejaVuSans-31"/>
       <use xlink:href="#DejaVuSans-36" x="63.623047"/>
      </g>
     </g>
    </g>
    <g id="xtick_17">
     <g id="line2d_17">
      <g>
       <use xlink:href="#m7b8b82bc2e" x="1022.48602" y="294.118125" style="stroke: #000000; stroke-width: 0.8"/>
      </g>
     </g>
     <g id="text_17">
      <!-- 17 -->
      <g transform="translate(1016.12352 308.716563)scale(0.1 -0.1)">
       <use xlink:href="#DejaVuSans-31"/>
       <use xlink:href="#DejaVuSans-37" x="63.623047"/>
      </g>
     </g>
    </g>
    <g id="xtick_18">
     <g id="line2d_18">
      <g>
       <use xlink:href="#m7b8b82bc2e" x="1081.222862" y="294.118125" style="stroke: #000000; stroke-width: 0.8"/>
      </g>
     </g>
     <g id="text_18">
      <!-- 18 -->
      <g transform="translate(1074.860362 308.716563)scale(0.1 -0.1)">
       <use xlink:href="#DejaVuSans-31"/>
       <use xlink:href="#DejaVuSans-38" x="63.623047"/>
      </g>
     </g>
    </g>
    <g id="xtick_19">
     <g id="line2d_19">
      <g>
       <use xlink:href="#m7b8b82bc2e" x="1139.959704" y="294.118125" style="stroke: #000000; stroke-width: 0.8"/>
      </g>
     </g>
     <g id="text_19">
      <!-- 19 -->
      <g transform="translate(1133.597204 308.716563)scale(0.1 -0.1)">
       <use xlink:href="#DejaVuSans-31"/>
       <use xlink:href="#DejaVuSans-39" x="63.623047"/>
      </g>
     </g>
    </g>
    <g id="text_20">
     <!-- Scenario Type -->
     <g transform="translate(576.519531 322.394687)scale(0.1 -0.1)">
      <defs>
       <path id="DejaVuSans-53" d="M 3425 4513 
L 3425 3897 
Q 3066 4069 2747 4153 
Q 2428 4238 2131 4238 
Q 1616 4238 1336 4038 
Q 1056 3838 1056 3469 
Q 1056 3159 1242 3001 
Q 1428 2844 1947 2747 
L 2328 2669 
Q 3034 2534 3370 2195 
Q 3706 1856 3706 1288 
Q 3706 609 3251 259 
Q 2797 -91 1919 -91 
Q 1588 -91 1214 -16 
Q 841 59 441 206 
L 441 856 
Q 825 641 1194 531 
Q 1563 422 1919 422 
Q 2459 422 2753 634 
Q 3047 847 3047 1241 
Q 3047 1584 2836 1778 
Q 2625 1972 2144 2069 
L 1759 2144 
Q 1053 2284 737 2584 
Q 422 2884 422 3419 
Q 422 4038 858 4394 
Q 1294 4750 2059 4750 
Q 2388 4750 2728 4690 
Q 3069 4631 3425 4513 
z
" transform="scale(0.015625)"/>
       <path id="DejaVuSans-63" d="M 3122 3366 
L 3122 2828 
Q 2878 2963 2633 3030 
Q 2388 3097 2138 3097 
Q 1578 3097 1268 2742 
Q 959 2388 959 1747 
Q 959 1106 1268 751 
Q 1578 397 2138 397 
Q 2388 397 2633 464 
Q 2878 531 3122 666 
L 3122 134 
Q 2881 22 2623 -34 
Q 2366 -91 2075 -91 
Q 1284 -91 818 406 
Q 353 903 353 1747 
Q 353 2603 823 3093 
Q 1294 3584 2113 3584 
Q 2378 3584 2631 3529 
Q 2884 3475 3122 3366 
z
" transform="scale(0.015625)"/>
       <path id="DejaVuSans-65" d="M 3597 1894 
L 3597 1613 
L 953 1613 
Q 991 1019 1311 708 
Q 1631 397 2203 397 
Q 2534 397 2845 478 
Q 3156 559 3463 722 
L 3463 178 
Q 3153 47 2828 -22 
Q 2503 -91 2169 -91 
Q 1331 -91 842 396 
Q 353 884 353 1716 
Q 353 2575 817 3079 
Q 1281 3584 2069 3584 
Q 2775 3584 3186 3129 
Q 3597 2675 3597 1894 
z
M 3022 2063 
Q 3016 2534 2758 2815 
Q 2500 3097 2075 3097 
Q 1594 3097 1305 2825 
Q 1016 2553 972 2059 
L 3022 2063 
z
" transform="scale(0.015625)"/>
       <path id="DejaVuSans-6e" d="M 3513 2113 
L 3513 0 
L 2938 0 
L 2938 2094 
Q 2938 2591 2744 2837 
Q 2550 3084 2163 3084 
Q 1697 3084 1428 2787 
Q 1159 2491 1159 1978 
L 1159 0 
L 581 0 
L 581 3500 
L 1159 3500 
L 1159 2956 
Q 1366 3272 1645 3428 
Q 1925 3584 2291 3584 
Q 2894 3584 3203 3211 
Q 3513 2838 3513 2113 
z
" transform="scale(0.015625)"/>
       <path id="DejaVuSans-61" d="M 2194 1759 
Q 1497 1759 1228 1600 
Q 959 1441 959 1056 
Q 959 750 1161 570 
Q 1363 391 1709 391 
Q 2188 391 2477 730 
Q 2766 1069 2766 1631 
L 2766 1759 
L 2194 1759 
z
M 3341 1997 
L 3341 0 
L 2766 0 
L 2766 531 
Q 2569 213 2275 61 
Q 1981 -91 1556 -91 
Q 1019 -91 701 211 
Q 384 513 384 1019 
Q 384 1609 779 1909 
Q 1175 2209 1959 2209 
L 2766 2209 
L 2766 2266 
Q 2766 2663 2505 2880 
Q 2244 3097 1772 3097 
Q 1472 3097 1187 3025 
Q 903 2953 641 2809 
L 641 3341 
Q 956 3463 1253 3523 
Q 1550 3584 1831 3584 
Q 2591 3584 2966 3190 
Q 3341 2797 3341 1997 
z
" transform="scale(0.015625)"/>
       <path id="DejaVuSans-72" d="M 2631 2963 
Q 2534 3019 2420 3045 
Q 2306 3072 2169 3072 
Q 1681 3072 1420 2755 
Q 1159 2438 1159 1844 
L 1159 0 
L 581 0 
L 581 3500 
L 1159 3500 
L 1159 2956 
Q 1341 3275 1631 3429 
Q 1922 3584 2338 3584 
Q 2397 3584 2469 3576 
Q 2541 3569 2628 3553 
L 2631 2963 
z
" transform="scale(0.015625)"/>
       <path id="DejaVuSans-69" d="M 603 3500 
L 1178 3500 
L 1178 0 
L 603 0 
L 603 3500 
z
M 603 4863 
L 1178 4863 
L 1178 4134 
L 603 4134 
L 603 4863 
z
" transform="scale(0.015625)"/>
       <path id="DejaVuSans-6f" d="M 1959 3097 
Q 1497 3097 1228 2736 
Q 959 2375 959 1747 
Q 959 1119 1226 758 
Q 1494 397 1959 397 
Q 2419 397 2687 759 
Q 2956 1122 2956 1747 
Q 2956 2369 2687 2733 
Q 2419 3097 1959 3097 
z
M 1959 3584 
Q 2709 3584 3137 3096 
Q 3566 2609 3566 1747 
Q 3566 888 3137 398 
Q 2709 -91 1959 -91 
Q 1206 -91 779 398 
Q 353 888 353 1747 
Q 353 2609 779 3096 
Q 1206 3584 1959 3584 
z
" transform="scale(0.015625)"/>
       <path id="DejaVuSans-20" transform="scale(0.015625)"/>
       <path id="DejaVuSans-54" d="M -19 4666 
L 3928 4666 
L 3928 4134 
L 2272 4134 
L 2272 0 
L 1638 0 
L 1638 4134 
L -19 4134 
L -19 4666 
z
" transform="scale(0.015625)"/>
       <path id="DejaVuSans-79" d="M 2059 -325 
Q 1816 -950 1584 -1140 
Q 1353 -1331 966 -1331 
L 506 -1331 
L 506 -850 
L 844 -850 
Q 1081 -850 1212 -737 
Q 1344 -625 1503 -206 
L 1606 56 
L 191 3500 
L 800 3500 
L 1894 763 
L 2988 3500 
L 3597 3500 
L 2059 -325 
z
" transform="scale(0.015625)"/>
       <path id="DejaVuSans-70" d="M 1159 525 
L 1159 -1331 
L 581 -1331 
L 581 3500 
L 1159 3500 
L 1159 2969 
Q 1341 3281 1617 3432 
Q 1894 3584 2278 3584 
Q 2916 3584 3314 3078 
Q 3713 2572 3713 1747 
Q 3713 922 3314 415 
Q 2916 -91 2278 -91 
Q 1894 -91 1617 61 
Q 1341 213 1159 525 
z
M 3116 1747 
Q 3116 2381 2855 2742 
Q 2594 3103 2138 3103 
Q 1681 3103 1420 2742 
Q 1159 2381 1159 1747 
Q 1159 1113 1420 752 
Q 1681 391 2138 391 
Q 2594 391 2855 752 
Q 3116 1113 3116 1747 
z
" transform="scale(0.015625)"/>
      </defs>
      <use xlink:href="#DejaVuSans-53"/>
      <use xlink:href="#DejaVuSans-63" x="63.476562"/>
      <use xlink:href="#DejaVuSans-65" x="118.457031"/>
      <use xlink:href="#DejaVuSans-6e" x="179.980469"/>
      <use xlink:href="#DejaVuSans-61" x="243.359375"/>
      <use xlink:href="#DejaVuSans-72" x="304.638672"/>
      <use xlink:href="#DejaVuSans-69" x="345.751953"/>
      <use xlink:href="#DejaVuSans-6f" x="373.535156"/>
      <use xlink:href="#DejaVuSans-20" x="434.716797"/>
      <use xlink:href="#DejaVuSans-54" x="466.503906"/>
      <use xlink:href="#DejaVuSans-79" x="511.962891"/>
      <use xlink:href="#DejaVuSans-70" x="571.142578"/>
      <use xlink:href="#DejaVuSans-65" x="634.619141"/>
     </g>
    </g>
   </g>
   <g id="matplotlib.axis_2">
    <g id="ytick_1">
     <g id="line2d_20">
      <path d="M 53.328125 294.118125 
L 1169.328125 294.118125 
" clip-path="url(#p567a292101)" style="fill: none; stroke-dasharray: 1.85,0.8; stroke-dashoffset: 0; stroke: #b0b0b0; stroke-width: 0.5"/>
     </g>
     <g id="line2d_21">
      <defs>
       <path id="maff8ab6115" d="M 0 0 
L -3.5 0 
" style="stroke: #000000; stroke-width: 0.8"/>
      </defs>
      <g>
       <use xlink:href="#maff8ab6115" x="53.328125" y="294.118125" style="stroke: #000000; stroke-width: 0.8"/>
      </g>
     </g>
     <g id="text_21">
      <!-- 0 -->
      <g transform="translate(39.965625 297.917344)scale(0.1 -0.1)">
       <use xlink:href="#DejaVuSans-30"/>
      </g>
     </g>
    </g>
    <g id="ytick_2">
     <g id="line2d_22">
      <path d="M 53.328125 252.265717 
L 1169.328125 252.265717 
" clip-path="url(#p567a292101)" style="fill: none; stroke-dasharray: 1.85,0.8; stroke-dashoffset: 0; stroke: #b0b0b0; stroke-width: 0.5"/>
     </g>
     <g id="line2d_23">
      <g>
       <use xlink:href="#maff8ab6115" x="53.328125" y="252.265717" style="stroke: #000000; stroke-width: 0.8"/>
      </g>
     </g>
     <g id="text_22">
      <!-- 200 -->
      <g transform="translate(27.240625 256.064936)scale(0.1 -0.1)">
       <use xlink:href="#DejaVuSans-32"/>
       <use xlink:href="#DejaVuSans-30" x="63.623047"/>
       <use xlink:href="#DejaVuSans-30" x="127.246094"/>
      </g>
     </g>
    </g>
    <g id="ytick_3">
     <g id="line2d_24">
      <path d="M 53.328125 210.413309 
L 1169.328125 210.413309 
" clip-path="url(#p567a292101)" style="fill: none; stroke-dasharray: 1.85,0.8; stroke-dashoffset: 0; stroke: #b0b0b0; stroke-width: 0.5"/>
     </g>
     <g id="line2d_25">
      <g>
       <use xlink:href="#maff8ab6115" x="53.328125" y="210.413309" style="stroke: #000000; stroke-width: 0.8"/>
      </g>
     </g>
     <g id="text_23">
      <!-- 400 -->
      <g transform="translate(27.240625 214.212528)scale(0.1 -0.1)">
       <use xlink:href="#DejaVuSans-34"/>
       <use xlink:href="#DejaVuSans-30" x="63.623047"/>
       <use xlink:href="#DejaVuSans-30" x="127.246094"/>
      </g>
     </g>
    </g>
    <g id="ytick_4">
     <g id="line2d_26">
      <path d="M 53.328125 168.560901 
L 1169.328125 168.560901 
" clip-path="url(#p567a292101)" style="fill: none; stroke-dasharray: 1.85,0.8; stroke-dashoffset: 0; stroke: #b0b0b0; stroke-width: 0.5"/>
     </g>
     <g id="line2d_27">
      <g>
       <use xlink:href="#maff8ab6115" x="53.328125" y="168.560901" style="stroke: #000000; stroke-width: 0.8"/>
      </g>
     </g>
     <g id="text_24">
      <!-- 600 -->
      <g transform="translate(27.240625 172.36012)scale(0.1 -0.1)">
       <use xlink:href="#DejaVuSans-36"/>
       <use xlink:href="#DejaVuSans-30" x="63.623047"/>
       <use xlink:href="#DejaVuSans-30" x="127.246094"/>
      </g>
     </g>
    </g>
    <g id="ytick_5">
     <g id="line2d_28">
      <path d="M 53.328125 126.708493 
L 1169.328125 126.708493 
" clip-path="url(#p567a292101)" style="fill: none; stroke-dasharray: 1.85,0.8; stroke-dashoffset: 0; stroke: #b0b0b0; stroke-width: 0.5"/>
     </g>
     <g id="line2d_29">
      <g>
       <use xlink:href="#maff8ab6115" x="53.328125" y="126.708493" style="stroke: #000000; stroke-width: 0.8"/>
      </g>
     </g>
     <g id="text_25">
      <!-- 800 -->
      <g transform="translate(27.240625 130.507712)scale(0.1 -0.1)">
       <use xlink:href="#DejaVuSans-38"/>
       <use xlink:href="#DejaVuSans-30" x="63.623047"/>
       <use xlink:href="#DejaVuSans-30" x="127.246094"/>
      </g>
     </g>
    </g>
    <g id="ytick_6">
     <g id="line2d_30">
      <path d="M 53.328125 84.856086 
L 1169.328125 84.856086 
" clip-path="url(#p567a292101)" style="fill: none; stroke-dasharray: 1.85,0.8; stroke-dashoffset: 0; stroke: #b0b0b0; stroke-width: 0.5"/>
     </g>
     <g id="line2d_31">
      <g>
       <use xlink:href="#maff8ab6115" x="53.328125" y="84.856086" style="stroke: #000000; stroke-width: 0.8"/>
      </g>
     </g>
     <g id="text_26">
      <!-- 1000 -->
      <g transform="translate(20.878125 88.655304)scale(0.1 -0.1)">
       <use xlink:href="#DejaVuSans-31"/>
       <use xlink:href="#DejaVuSans-30" x="63.623047"/>
       <use xlink:href="#DejaVuSans-30" x="127.246094"/>
       <use xlink:href="#DejaVuSans-30" x="190.869141"/>
      </g>
     </g>
    </g>
    <g id="ytick_7">
     <g id="line2d_32">
      <path d="M 53.328125 43.003678 
L 1169.328125 43.003678 
" clip-path="url(#p567a292101)" style="fill: none; stroke-dasharray: 1.85,0.8; stroke-dashoffset: 0; stroke: #b0b0b0; stroke-width: 0.5"/>
     </g>
     <g id="line2d_33">
      <g>
       <use xlink:href="#maff8ab6115" x="53.328125" y="43.003678" style="stroke: #000000; stroke-width: 0.8"/>
      </g>
     </g>
     <g id="text_27">
      <!-- 1200 -->
      <g transform="translate(20.878125 46.802896)scale(0.1 -0.1)">
       <use xlink:href="#DejaVuSans-31"/>
       <use xlink:href="#DejaVuSans-32" x="63.623047"/>
       <use xlink:href="#DejaVuSans-30" x="127.246094"/>
       <use xlink:href="#DejaVuSans-30" x="190.869141"/>
      </g>
     </g>
    </g>
    <g id="text_28">
     <!-- Number of calls -->
     <g transform="translate(14.798437 197.497813)rotate(-90)scale(0.1 -0.1)">
      <defs>
       <path id="DejaVuSans-4e" d="M 628 4666 
L 1478 4666 
L 3547 763 
L 3547 4666 
L 4159 4666 
L 4159 0 
L 3309 0 
L 1241 3903 
L 1241 0 
L 628 0 
L 628 4666 
z
" transform="scale(0.015625)"/>
       <path id="DejaVuSans-75" d="M 544 1381 
L 544 3500 
L 1119 3500 
L 1119 1403 
Q 1119 906 1312 657 
Q 1506 409 1894 409 
Q 2359 409 2629 706 
Q 2900 1003 2900 1516 
L 2900 3500 
L 3475 3500 
L 3475 0 
L 2900 0 
L 2900 538 
Q 2691 219 2414 64 
Q 2138 -91 1772 -91 
Q 1169 -91 856 284 
Q 544 659 544 1381 
z
M 1991 3584 
L 1991 3584 
z
" transform="scale(0.015625)"/>
       <path id="DejaVuSans-6d" d="M 3328 2828 
Q 3544 3216 3844 3400 
Q 4144 3584 4550 3584 
Q 5097 3584 5394 3201 
Q 5691 2819 5691 2113 
L 5691 0 
L 5113 0 
L 5113 2094 
Q 5113 2597 4934 2840 
Q 4756 3084 4391 3084 
Q 3944 3084 3684 2787 
Q 3425 2491 3425 1978 
L 3425 0 
L 2847 0 
L 2847 2094 
Q 2847 2600 2669 2842 
Q 2491 3084 2119 3084 
Q 1678 3084 1418 2786 
Q 1159 2488 1159 1978 
L 1159 0 
L 581 0 
L 581 3500 
L 1159 3500 
L 1159 2956 
Q 1356 3278 1631 3431 
Q 1906 3584 2284 3584 
Q 2666 3584 2933 3390 
Q 3200 3197 3328 2828 
z
" transform="scale(0.015625)"/>
       <path id="DejaVuSans-62" d="M 3116 1747 
Q 3116 2381 2855 2742 
Q 2594 3103 2138 3103 
Q 1681 3103 1420 2742 
Q 1159 2381 1159 1747 
Q 1159 1113 1420 752 
Q 1681 391 2138 391 
Q 2594 391 2855 752 
Q 3116 1113 3116 1747 
z
M 1159 2969 
Q 1341 3281 1617 3432 
Q 1894 3584 2278 3584 
Q 2916 3584 3314 3078 
Q 3713 2572 3713 1747 
Q 3713 922 3314 415 
Q 2916 -91 2278 -91 
Q 1894 -91 1617 61 
Q 1341 213 1159 525 
L 1159 0 
L 581 0 
L 581 4863 
L 1159 4863 
L 1159 2969 
z
" transform="scale(0.015625)"/>
       <path id="DejaVuSans-66" d="M 2375 4863 
L 2375 4384 
L 1825 4384 
Q 1516 4384 1395 4259 
Q 1275 4134 1275 3809 
L 1275 3500 
L 2222 3500 
L 2222 3053 
L 1275 3053 
L 1275 0 
L 697 0 
L 697 3053 
L 147 3053 
L 147 3500 
L 697 3500 
L 697 3744 
Q 697 4328 969 4595 
Q 1241 4863 1831 4863 
L 2375 4863 
z
" transform="scale(0.015625)"/>
       <path id="DejaVuSans-6c" d="M 603 4863 
L 1178 4863 
L 1178 0 
L 603 0 
L 603 4863 
z
" transform="scale(0.015625)"/>
       <path id="DejaVuSans-73" d="M 2834 3397 
L 2834 2853 
Q 2591 2978 2328 3040 
Q 2066 3103 1784 3103 
Q 1356 3103 1142 2972 
Q 928 2841 928 2578 
Q 928 2378 1081 2264 
Q 1234 2150 1697 2047 
L 1894 2003 
Q 2506 1872 2764 1633 
Q 3022 1394 3022 966 
Q 3022 478 2636 193 
Q 2250 -91 1575 -91 
Q 1294 -91 989 -36 
Q 684 19 347 128 
L 347 722 
Q 666 556 975 473 
Q 1284 391 1588 391 
Q 1994 391 2212 530 
Q 2431 669 2431 922 
Q 2431 1156 2273 1281 
Q 2116 1406 1581 1522 
L 1381 1569 
Q 847 1681 609 1914 
Q 372 2147 372 2553 
Q 372 3047 722 3315 
Q 1072 3584 1716 3584 
Q 2034 3584 2315 3537 
Q 2597 3491 2834 3397 
z
" transform="scale(0.015625)"/>
      </defs>
      <use xlink:href="#DejaVuSans-4e"/>
      <use xlink:href="#DejaVuSans-75" x="74.804688"/>
      <use xlink:href="#DejaVuSans-6d" x="138.183594"/>
      <use xlink:href="#DejaVuSans-62" x="235.595703"/>
      <use xlink:href="#DejaVuSans-65" x="299.072266"/>
      <use xlink:href="#DejaVuSans-72" x="360.595703"/>
      <use xlink:href="#DejaVuSans-20" x="401.708984"/>
      <use xlink:href="#DejaVuSans-6f" x="433.496094"/>
      <use xlink:href="#DejaVuSans-66" x="494.677734"/>
      <use xlink:href="#DejaVuSans-20" x="529.882812"/>
      <use xlink:href="#DejaVuSans-63" x="561.669922"/>
      <use xlink:href="#DejaVuSans-61" x="616.650391"/>
      <use xlink:href="#DejaVuSans-6c" x="677.929688"/>
      <use xlink:href="#DejaVuSans-6c" x="705.712891"/>
      <use xlink:href="#DejaVuSans-73" x="733.496094"/>
     </g>
    </g>
   </g>
   <g id="patch_60">
    <path d="M 53.328125 294.118125 
L 53.328125 22.318125 
" style="fill: none; stroke: #000000; stroke-width: 0.8; stroke-linejoin: miter; stroke-linecap: square"/>
   </g>
   <g id="patch_61">
    <path d="M 1169.328125 294.118125 
L 1169.328125 22.318125 
" style="fill: none; stroke: #000000; stroke-width: 0.8; stroke-linejoin: miter; stroke-linecap: square"/>
   </g>
   <g id="patch_62">
    <path d="M 53.328125 294.118125 
L 1169.328125 294.118125 
" style="fill: none; stroke: #000000; stroke-width: 0.8; stroke-linejoin: miter; stroke-linecap: square"/>
   </g>
   <g id="patch_63">
    <path d="M 53.328125 22.318125 
L 1169.328125 22.318125 
" style="fill: none; stroke: #000000; stroke-width: 0.8; stroke-linejoin: miter; stroke-linecap: square"/>
   </g>
   <g id="text_29">
    <!-- 1 -->
    <g transform="translate(69.725822 291.668238)scale(0.1 -0.1)">
     <use xlink:href="#DejaVuSans-31"/>
    </g>
   </g>
   <g id="text_30">
    <!-- 335 -->
    <g transform="translate(122.100164 221.774717)scale(0.1 -0.1)">
     <use xlink:href="#DejaVuSans-33"/>
     <use xlink:href="#DejaVuSans-33" x="63.623047"/>
     <use xlink:href="#DejaVuSans-35" x="127.246094"/>
    </g>
   </g>
   <g id="text_31">
    <!-- 527 -->
    <g transform="translate(180.837007 181.596405)scale(0.1 -0.1)">
     <use xlink:href="#DejaVuSans-35"/>
     <use xlink:href="#DejaVuSans-32" x="63.623047"/>
     <use xlink:href="#DejaVuSans-37" x="127.246094"/>
    </g>
   </g>
   <g id="text_32">
    <!-- 45 -->
    <g transform="translate(242.755099 282.460708)scale(0.1 -0.1)">
     <use xlink:href="#DejaVuSans-34"/>
     <use xlink:href="#DejaVuSans-35" x="63.623047"/>
    </g>
   </g>
   <g id="text_33">
    <!-- 37 -->
    <g transform="translate(301.491941 284.134805)scale(0.1 -0.1)">
     <use xlink:href="#DejaVuSans-33"/>
     <use xlink:href="#DejaVuSans-37" x="63.623047"/>
    </g>
   </g>
   <g id="text_34">
    <!-- 121 -->
    <g transform="translate(357.047533 266.556793)scale(0.1 -0.1)">
     <use xlink:href="#DejaVuSans-31"/>
     <use xlink:href="#DejaVuSans-32" x="63.623047"/>
     <use xlink:href="#DejaVuSans-31" x="127.246094"/>
    </g>
   </g>
   <g id="text_35">
    <!-- 128 -->
    <g transform="translate(415.784375 265.091959)scale(0.1 -0.1)">
     <use xlink:href="#DejaVuSans-31"/>
     <use xlink:href="#DejaVuSans-32" x="63.623047"/>
     <use xlink:href="#DejaVuSans-38" x="127.246094"/>
    </g>
   </g>
   <g id="text_36">
    <!-- 418 -->
    <g transform="translate(474.521217 204.405967)scale(0.1 -0.1)">
     <use xlink:href="#DejaVuSans-34"/>
     <use xlink:href="#DejaVuSans-31" x="63.623047"/>
     <use xlink:href="#DejaVuSans-38" x="127.246094"/>
    </g>
   </g>
   <g id="text_37">
    <!-- 540 -->
    <g transform="translate(533.258059 178.875999)scale(0.1 -0.1)">
     <use xlink:href="#DejaVuSans-35"/>
     <use xlink:href="#DejaVuSans-34" x="63.623047"/>
     <use xlink:href="#DejaVuSans-30" x="127.246094"/>
    </g>
   </g>
   <g id="text_38">
    <!-- 398 -->
    <g transform="translate(591.994901 208.591208)scale(0.1 -0.1)">
     <use xlink:href="#DejaVuSans-33"/>
     <use xlink:href="#DejaVuSans-39" x="63.623047"/>
     <use xlink:href="#DejaVuSans-38" x="127.246094"/>
    </g>
   </g>
   <g id="text_39">
    <!-- 559 -->
    <g transform="translate(650.731743 174.90002)scale(0.1 -0.1)">
     <use xlink:href="#DejaVuSans-35"/>
     <use xlink:href="#DejaVuSans-35" x="63.623047"/>
     <use xlink:href="#DejaVuSans-39" x="127.246094"/>
    </g>
   </g>
   <g id="text_40">
    <!-- 145 -->
    <g transform="translate(709.468586 261.534504)scale(0.1 -0.1)">
     <use xlink:href="#DejaVuSans-31"/>
     <use xlink:href="#DejaVuSans-34" x="63.623047"/>
     <use xlink:href="#DejaVuSans-35" x="127.246094"/>
    </g>
   </g>
   <g id="text_41">
    <!-- 90 -->
    <g transform="translate(771.386678 273.043916)scale(0.1 -0.1)">
     <use xlink:href="#DejaVuSans-39"/>
     <use xlink:href="#DejaVuSans-30" x="63.623047"/>
    </g>
   </g>
   <g id="text_42">
    <!-- 636 -->
    <g transform="translate(826.94227 158.786843)scale(0.1 -0.1)">
     <use xlink:href="#DejaVuSans-36"/>
     <use xlink:href="#DejaVuSans-33" x="63.623047"/>
     <use xlink:href="#DejaVuSans-36" x="127.246094"/>
    </g>
   </g>
   <g id="text_43">
    <!-- 58 -->
    <g transform="translate(888.860362 279.740302)scale(0.1 -0.1)">
     <use xlink:href="#DejaVuSans-35"/>
     <use xlink:href="#DejaVuSans-38" x="63.623047"/>
    </g>
   </g>
   <g id="text_44">
    <!-- 89 -->
    <g transform="translate(947.597204 273.253178)scale(0.1 -0.1)">
     <use xlink:href="#DejaVuSans-38"/>
     <use xlink:href="#DejaVuSans-39" x="63.623047"/>
    </g>
   </g>
   <g id="text_45">
    <!-- 73 -->
    <g transform="translate(1006.334046 276.601371)scale(0.1 -0.1)">
     <use xlink:href="#DejaVuSans-37"/>
     <use xlink:href="#DejaVuSans-33" x="63.623047"/>
    </g>
   </g>
   <g id="text_46">
    <!-- 33 -->
    <g transform="translate(1065.070888 284.971853)scale(0.1 -0.1)">
     <use xlink:href="#DejaVuSans-33"/>
     <use xlink:href="#DejaVuSans-33" x="63.623047"/>
    </g>
   </g>
   <g id="text_47">
    <!-- 58 -->
    <g transform="translate(1123.80773 279.740302)scale(0.1 -0.1)">
     <use xlink:href="#DejaVuSans-35"/>
     <use xlink:href="#DejaVuSans-38" x="63.623047"/>
    </g>
   </g>
   <g id="text_48">
    <!-- 0 -->
    <g transform="translate(79.515296 291.8775)scale(0.1 -0.1)">
     <use xlink:href="#DejaVuSans-30"/>
    </g>
   </g>
   <g id="text_49">
    <!-- 11 -->
    <g transform="translate(135.070888 289.575618)scale(0.1 -0.1)">
     <use xlink:href="#DejaVuSans-31"/>
     <use xlink:href="#DejaVuSans-31" x="63.623047"/>
    </g>
   </g>
   <g id="text_50">
    <!-- 11 -->
    <g transform="translate(193.80773 289.575618)scale(0.1 -0.1)">
     <use xlink:href="#DejaVuSans-31"/>
     <use xlink:href="#DejaVuSans-31" x="63.623047"/>
    </g>
   </g>
   <g id="text_51">
    <!-- 2 -->
    <g transform="translate(255.725822 291.458976)scale(0.1 -0.1)">
     <use xlink:href="#DejaVuSans-32"/>
    </g>
   </g>
   <g id="text_52">
    <!-- 2 -->
    <g transform="translate(314.462664 291.458976)scale(0.1 -0.1)">
     <use xlink:href="#DejaVuSans-32"/>
    </g>
   </g>
   <g id="text_53">
    <!-- 9 -->
    <g transform="translate(373.199507 289.994142)scale(0.1 -0.1)">
     <use xlink:href="#DejaVuSans-39"/>
    </g>
   </g>
   <g id="text_54">
    <!-- 14 -->
    <g transform="translate(428.755099 288.947831)scale(0.1 -0.1)">
     <use xlink:href="#DejaVuSans-31"/>
     <use xlink:href="#DejaVuSans-34" x="63.623047"/>
    </g>
   </g>
   <g id="text_55">
    <!-- 21 -->
    <g transform="translate(487.491941 287.482997)scale(0.1 -0.1)">
     <use xlink:href="#DejaVuSans-32"/>
     <use xlink:href="#DejaVuSans-31" x="63.623047"/>
    </g>
   </g>
   <g id="text_56">
    <!-- 17 -->
    <g transform="translate(546.228783 288.320045)scale(0.1 -0.1)">
     <use xlink:href="#DejaVuSans-31"/>
     <use xlink:href="#DejaVuSans-37" x="63.623047"/>
    </g>
   </g>
   <g id="text_57">
    <!-- 11 -->
    <g transform="translate(604.965625 289.575618)scale(0.1 -0.1)">
     <use xlink:href="#DejaVuSans-31"/>
     <use xlink:href="#DejaVuSans-31" x="63.623047"/>
    </g>
   </g>
   <g id="text_58">
    <!-- 5 -->
    <g transform="translate(666.883717 290.83119)scale(0.1 -0.1)">
     <use xlink:href="#DejaVuSans-35"/>
    </g>
   </g>
   <g id="text_59">
    <!-- 5 -->
    <g transform="translate(725.620559 290.83119)scale(0.1 -0.1)">
     <use xlink:href="#DejaVuSans-35"/>
    </g>
   </g>
   <g id="text_60">
    <!-- 7 -->
    <g transform="translate(784.357401 290.412666)scale(0.1 -0.1)">
     <use xlink:href="#DejaVuSans-37"/>
    </g>
   </g>
   <g id="text_61">
    <!-- 26 -->
    <g transform="translate(839.912993 286.436687)scale(0.1 -0.1)">
     <use xlink:href="#DejaVuSans-32"/>
     <use xlink:href="#DejaVuSans-36" x="63.623047"/>
    </g>
   </g>
   <g id="text_62">
    <!-- 4 -->
    <g transform="translate(901.831086 291.040452)scale(0.1 -0.1)">
     <use xlink:href="#DejaVuSans-34"/>
    </g>
   </g>
   <g id="text_63">
    <!-- 4 -->
    <g transform="translate(960.567928 291.040452)scale(0.1 -0.1)">
     <use xlink:href="#DejaVuSans-34"/>
    </g>
   </g>
   <g id="text_64">
    <!-- 3 -->
    <g transform="translate(1019.30477 291.249714)scale(0.1 -0.1)">
     <use xlink:href="#DejaVuSans-33"/>
    </g>
   </g>
   <g id="text_65">
    <!-- 4 -->
    <g transform="translate(1078.041612 291.040452)scale(0.1 -0.1)">
     <use xlink:href="#DejaVuSans-34"/>
    </g>
   </g>
   <g id="text_66">
    <!-- 2 -->
    <g transform="translate(1136.778454 291.458976)scale(0.1 -0.1)">
     <use xlink:href="#DejaVuSans-32"/>
    </g>
   </g>
   <g id="text_67">
    <!-- 1237 -->
    <g transform="translate(79.76102 33.020357)scale(0.1 -0.1)">
     <use xlink:href="#DejaVuSans-31"/>
     <use xlink:href="#DejaVuSans-32" x="63.623047"/>
     <use xlink:href="#DejaVuSans-33" x="127.246094"/>
     <use xlink:href="#DejaVuSans-37" x="190.869141"/>
    </g>
   </g>
   <g id="text_68">
    <!-- 892 -->
    <g transform="translate(141.679112 105.215761)scale(0.1 -0.1)">
     <use xlink:href="#DejaVuSans-38"/>
     <use xlink:href="#DejaVuSans-39" x="63.623047"/>
     <use xlink:href="#DejaVuSans-32" x="127.246094"/>
    </g>
   </g>
   <g id="text_69">
    <!-- 699 -->
    <g transform="translate(200.415954 145.603334)scale(0.1 -0.1)">
     <use xlink:href="#DejaVuSans-36"/>
     <use xlink:href="#DejaVuSans-39" x="63.623047"/>
     <use xlink:href="#DejaVuSans-39" x="127.246094"/>
    </g>
   </g>
   <g id="text_70">
    <!-- 1190 -->
    <g transform="translate(255.971546 42.855673)scale(0.1 -0.1)">
     <use xlink:href="#DejaVuSans-31"/>
     <use xlink:href="#DejaVuSans-31" x="63.623047"/>
     <use xlink:href="#DejaVuSans-39" x="127.246094"/>
     <use xlink:href="#DejaVuSans-30" x="190.869141"/>
    </g>
   </g>
   <g id="text_71">
    <!-- 1198 -->
    <g transform="translate(314.708388 41.181577)scale(0.1 -0.1)">
     <use xlink:href="#DejaVuSans-31"/>
     <use xlink:href="#DejaVuSans-31" x="63.623047"/>
     <use xlink:href="#DejaVuSans-39" x="127.246094"/>
     <use xlink:href="#DejaVuSans-38" x="190.869141"/>
    </g>
   </g>
   <g id="text_72">
    <!-- 1107 -->
    <g transform="translate(373.44523 60.224422)scale(0.1 -0.1)">
     <use xlink:href="#DejaVuSans-31"/>
     <use xlink:href="#DejaVuSans-31" x="63.623047"/>
     <use xlink:href="#DejaVuSans-30" x="127.246094"/>
     <use xlink:href="#DejaVuSans-37" x="190.869141"/>
    </g>
   </g>
   <g id="text_73">
    <!-- 1095 -->
    <g transform="translate(432.182072 62.735567)scale(0.1 -0.1)">
     <use xlink:href="#DejaVuSans-31"/>
     <use xlink:href="#DejaVuSans-30" x="63.623047"/>
     <use xlink:href="#DejaVuSans-39" x="127.246094"/>
     <use xlink:href="#DejaVuSans-35" x="190.869141"/>
    </g>
   </g>
   <g id="text_74">
    <!-- 798 -->
    <g transform="translate(494.100164 124.886392)scale(0.1 -0.1)">
     <use xlink:href="#DejaVuSans-37"/>
     <use xlink:href="#DejaVuSans-39" x="63.623047"/>
     <use xlink:href="#DejaVuSans-38" x="127.246094"/>
    </g>
   </g>
   <g id="text_75">
    <!-- 680 -->
    <g transform="translate(552.837007 149.579313)scale(0.1 -0.1)">
     <use xlink:href="#DejaVuSans-36"/>
     <use xlink:href="#DejaVuSans-38" x="63.623047"/>
     <use xlink:href="#DejaVuSans-30" x="127.246094"/>
    </g>
   </g>
   <g id="text_76">
    <!-- 828 -->
    <g transform="translate(611.573849 118.608531)scale(0.1 -0.1)">
     <use xlink:href="#DejaVuSans-38"/>
     <use xlink:href="#DejaVuSans-32" x="63.623047"/>
     <use xlink:href="#DejaVuSans-38" x="127.246094"/>
    </g>
   </g>
   <g id="text_77">
    <!-- 673 -->
    <g transform="translate(670.310691 151.044147)scale(0.1 -0.1)">
     <use xlink:href="#DejaVuSans-36"/>
     <use xlink:href="#DejaVuSans-37" x="63.623047"/>
     <use xlink:href="#DejaVuSans-33" x="127.246094"/>
    </g>
   </g>
   <g id="text_78">
    <!-- 1088 -->
    <g transform="translate(725.866283 64.200401)scale(0.1 -0.1)">
     <use xlink:href="#DejaVuSans-31"/>
     <use xlink:href="#DejaVuSans-30" x="63.623047"/>
     <use xlink:href="#DejaVuSans-38" x="127.246094"/>
     <use xlink:href="#DejaVuSans-38" x="190.869141"/>
    </g>
   </g>
   <g id="text_79">
    <!-- 1141 -->
    <g transform="translate(784.603125 53.109513)scale(0.1 -0.1)">
     <use xlink:href="#DejaVuSans-31"/>
     <use xlink:href="#DejaVuSans-31" x="63.623047"/>
     <use xlink:href="#DejaVuSans-34" x="127.246094"/>
     <use xlink:href="#DejaVuSans-31" x="190.869141"/>
    </g>
   </g>
   <g id="text_80">
    <!-- 576 -->
    <g transform="translate(846.521217 171.342565)scale(0.1 -0.1)">
     <use xlink:href="#DejaVuSans-35"/>
     <use xlink:href="#DejaVuSans-37" x="63.623047"/>
     <use xlink:href="#DejaVuSans-36" x="127.246094"/>
    </g>
   </g>
   <g id="text_81">
    <!-- 1176 -->
    <g transform="translate(902.076809 45.785342)scale(0.1 -0.1)">
     <use xlink:href="#DejaVuSans-31"/>
     <use xlink:href="#DejaVuSans-31" x="63.623047"/>
     <use xlink:href="#DejaVuSans-37" x="127.246094"/>
     <use xlink:href="#DejaVuSans-36" x="190.869141"/>
    </g>
   </g>
   <g id="text_82">
    <!-- 1145 -->
    <g transform="translate(960.813651 52.272465)scale(0.1 -0.1)">
     <use xlink:href="#DejaVuSans-31"/>
     <use xlink:href="#DejaVuSans-31" x="63.623047"/>
     <use xlink:href="#DejaVuSans-34" x="127.246094"/>
     <use xlink:href="#DejaVuSans-35" x="190.869141"/>
    </g>
   </g>
   <g id="text_83">
    <!-- 1162 -->
    <g transform="translate(1019.550493 48.71501)scale(0.1 -0.1)">
     <use xlink:href="#DejaVuSans-31"/>
     <use xlink:href="#DejaVuSans-31" x="63.623047"/>
     <use xlink:href="#DejaVuSans-36" x="127.246094"/>
     <use xlink:href="#DejaVuSans-32" x="190.869141"/>
    </g>
   </g>
   <g id="text_84">
    <!-- 1201 -->
    <g transform="translate(1078.287336 40.553791)scale(0.1 -0.1)">
     <use xlink:href="#DejaVuSans-31"/>
     <use xlink:href="#DejaVuSans-32" x="63.623047"/>
     <use xlink:href="#DejaVuSans-30" x="127.246094"/>
     <use xlink:href="#DejaVuSans-31" x="190.869141"/>
    </g>
   </g>
   <g id="text_85">
    <!-- 1178 -->
    <g transform="translate(1137.024178 45.366817)scale(0.1 -0.1)">
     <use xlink:href="#DejaVuSans-31"/>
     <use xlink:href="#DejaVuSans-31" x="63.623047"/>
     <use xlink:href="#DejaVuSans-37" x="127.246094"/>
     <use xlink:href="#DejaVuSans-38" x="190.869141"/>
    </g>
   </g>
   <g id="text_86">
    <!-- Number of calls per scenario type -->
    <g transform="translate(509.699375 16.318125)scale(0.12 -0.12)">
     <defs>
      <path id="DejaVuSans-74" d="M 1172 4494 
L 1172 3500 
L 2356 3500 
L 2356 3053 
L 1172 3053 
L 1172 1153 
Q 1172 725 1289 603 
Q 1406 481 1766 481 
L 2356 481 
L 2356 0 
L 1766 0 
Q 1100 0 847 248 
Q 594 497 594 1153 
L 594 3053 
L 172 3053 
L 172 3500 
L 594 3500 
L 594 4494 
L 1172 4494 
z
" transform="scale(0.015625)"/>
     </defs>
     <use xlink:href="#DejaVuSans-4e"/>
     <use xlink:href="#DejaVuSans-75" x="74.804688"/>
     <use xlink:href="#DejaVuSans-6d" x="138.183594"/>
     <use xlink:href="#DejaVuSans-62" x="235.595703"/>
     <use xlink:href="#DejaVuSans-65" x="299.072266"/>
     <use xlink:href="#DejaVuSans-72" x="360.595703"/>
     <use xlink:href="#DejaVuSans-20" x="401.708984"/>
     <use xlink:href="#DejaVuSans-6f" x="433.496094"/>
     <use xlink:href="#DejaVuSans-66" x="494.677734"/>
     <use xlink:href="#DejaVuSans-20" x="529.882812"/>
     <use xlink:href="#DejaVuSans-63" x="561.669922"/>
     <use xlink:href="#DejaVuSans-61" x="616.650391"/>
     <use xlink:href="#DejaVuSans-6c" x="677.929688"/>
     <use xlink:href="#DejaVuSans-6c" x="705.712891"/>
     <use xlink:href="#DejaVuSans-73" x="733.496094"/>
     <use xlink:href="#DejaVuSans-20" x="785.595703"/>
     <use xlink:href="#DejaVuSans-70" x="817.382812"/>
     <use xlink:href="#DejaVuSans-65" x="880.859375"/>
     <use xlink:href="#DejaVuSans-72" x="942.382812"/>
     <use xlink:href="#DejaVuSans-20" x="983.496094"/>
     <use xlink:href="#DejaVuSans-73" x="1015.283203"/>
     <use xlink:href="#DejaVuSans-63" x="1067.382812"/>
     <use xlink:href="#DejaVuSans-65" x="1122.363281"/>
     <use xlink:href="#DejaVuSans-6e" x="1183.886719"/>
     <use xlink:href="#DejaVuSans-61" x="1247.265625"/>
     <use xlink:href="#DejaVuSans-72" x="1308.544922"/>
     <use xlink:href="#DejaVuSans-69" x="1349.658203"/>
     <use xlink:href="#DejaVuSans-6f" x="1377.441406"/>
     <use xlink:href="#DejaVuSans-20" x="1438.623047"/>
     <use xlink:href="#DejaVuSans-74" x="1470.410156"/>
     <use xlink:href="#DejaVuSans-79" x="1509.619141"/>
     <use xlink:href="#DejaVuSans-70" x="1568.798828"/>
     <use xlink:href="#DejaVuSans-65" x="1632.275391"/>
    </g>
   </g>
   <g id="legend_1">
    <g id="patch_64">
     <path d="M 1176.328125 182.1525 
L 1387.471875 182.1525 
Q 1389.471875 182.1525 1389.471875 180.1525 
L 1389.471875 136.28375 
Q 1389.471875 134.28375 1387.471875 134.28375 
L 1176.328125 134.28375 
Q 1174.328125 134.28375 1174.328125 136.28375 
L 1174.328125 180.1525 
Q 1174.328125 182.1525 1176.328125 182.1525 
z
" style="fill: #ffffff; opacity: 0.8; stroke: #cccccc; stroke-linejoin: miter"/>
    </g>
    <g id="patch_65">
     <path d="M 1178.328125 145.882188 
L 1198.328125 145.882188 
L 1198.328125 138.882188 
L 1178.328125 138.882188 
z
" style="fill: #ff0000"/>
    </g>
    <g id="text_87">
     <!-- COMMAND_SESSION_FAILED -->
     <g transform="translate(1206.328125 145.882188)scale(0.1 -0.1)">
      <defs>
       <path id="DejaVuSans-43" d="M 4122 4306 
L 4122 3641 
Q 3803 3938 3442 4084 
Q 3081 4231 2675 4231 
Q 1875 4231 1450 3742 
Q 1025 3253 1025 2328 
Q 1025 1406 1450 917 
Q 1875 428 2675 428 
Q 3081 428 3442 575 
Q 3803 722 4122 1019 
L 4122 359 
Q 3791 134 3420 21 
Q 3050 -91 2638 -91 
Q 1578 -91 968 557 
Q 359 1206 359 2328 
Q 359 3453 968 4101 
Q 1578 4750 2638 4750 
Q 3056 4750 3426 4639 
Q 3797 4528 4122 4306 
z
" transform="scale(0.015625)"/>
       <path id="DejaVuSans-4f" d="M 2522 4238 
Q 1834 4238 1429 3725 
Q 1025 3213 1025 2328 
Q 1025 1447 1429 934 
Q 1834 422 2522 422 
Q 3209 422 3611 934 
Q 4013 1447 4013 2328 
Q 4013 3213 3611 3725 
Q 3209 4238 2522 4238 
z
M 2522 4750 
Q 3503 4750 4090 4092 
Q 4678 3434 4678 2328 
Q 4678 1225 4090 567 
Q 3503 -91 2522 -91 
Q 1538 -91 948 565 
Q 359 1222 359 2328 
Q 359 3434 948 4092 
Q 1538 4750 2522 4750 
z
" transform="scale(0.015625)"/>
       <path id="DejaVuSans-4d" d="M 628 4666 
L 1569 4666 
L 2759 1491 
L 3956 4666 
L 4897 4666 
L 4897 0 
L 4281 0 
L 4281 4097 
L 3078 897 
L 2444 897 
L 1241 4097 
L 1241 0 
L 628 0 
L 628 4666 
z
" transform="scale(0.015625)"/>
       <path id="DejaVuSans-41" d="M 2188 4044 
L 1331 1722 
L 3047 1722 
L 2188 4044 
z
M 1831 4666 
L 2547 4666 
L 4325 0 
L 3669 0 
L 3244 1197 
L 1141 1197 
L 716 0 
L 50 0 
L 1831 4666 
z
" transform="scale(0.015625)"/>
       <path id="DejaVuSans-44" d="M 1259 4147 
L 1259 519 
L 2022 519 
Q 2988 519 3436 956 
Q 3884 1394 3884 2338 
Q 3884 3275 3436 3711 
Q 2988 4147 2022 4147 
L 1259 4147 
z
M 628 4666 
L 1925 4666 
Q 3281 4666 3915 4102 
Q 4550 3538 4550 2338 
Q 4550 1131 3912 565 
Q 3275 0 1925 0 
L 628 0 
L 628 4666 
z
" transform="scale(0.015625)"/>
       <path id="DejaVuSans-5f" d="M 3263 -1063 
L 3263 -1509 
L -63 -1509 
L -63 -1063 
L 3263 -1063 
z
" transform="scale(0.015625)"/>
       <path id="DejaVuSans-45" d="M 628 4666 
L 3578 4666 
L 3578 4134 
L 1259 4134 
L 1259 2753 
L 3481 2753 
L 3481 2222 
L 1259 2222 
L 1259 531 
L 3634 531 
L 3634 0 
L 628 0 
L 628 4666 
z
" transform="scale(0.015625)"/>
       <path id="DejaVuSans-49" d="M 628 4666 
L 1259 4666 
L 1259 0 
L 628 0 
L 628 4666 
z
" transform="scale(0.015625)"/>
       <path id="DejaVuSans-46" d="M 628 4666 
L 3309 4666 
L 3309 4134 
L 1259 4134 
L 1259 2759 
L 3109 2759 
L 3109 2228 
L 1259 2228 
L 1259 0 
L 628 0 
L 628 4666 
z
" transform="scale(0.015625)"/>
       <path id="DejaVuSans-4c" d="M 628 4666 
L 1259 4666 
L 1259 531 
L 3531 531 
L 3531 0 
L 628 0 
L 628 4666 
z
" transform="scale(0.015625)"/>
      </defs>
      <use xlink:href="#DejaVuSans-43"/>
      <use xlink:href="#DejaVuSans-4f" x="69.824219"/>
      <use xlink:href="#DejaVuSans-4d" x="148.535156"/>
      <use xlink:href="#DejaVuSans-4d" x="234.814453"/>
      <use xlink:href="#DejaVuSans-41" x="321.09375"/>
      <use xlink:href="#DejaVuSans-4e" x="389.501953"/>
      <use xlink:href="#DejaVuSans-44" x="464.306641"/>
      <use xlink:href="#DejaVuSans-5f" x="541.308594"/>
      <use xlink:href="#DejaVuSans-53" x="591.308594"/>
      <use xlink:href="#DejaVuSans-45" x="654.785156"/>
      <use xlink:href="#DejaVuSans-53" x="717.96875"/>
      <use xlink:href="#DejaVuSans-53" x="781.445312"/>
      <use xlink:href="#DejaVuSans-49" x="844.921875"/>
      <use xlink:href="#DejaVuSans-4f" x="874.414062"/>
      <use xlink:href="#DejaVuSans-4e" x="953.125"/>
      <use xlink:href="#DejaVuSans-5f" x="1027.929688"/>
      <use xlink:href="#DejaVuSans-46" x="1077.929688"/>
      <use xlink:href="#DejaVuSans-41" x="1126.324219"/>
      <use xlink:href="#DejaVuSans-49" x="1194.732422"/>
      <use xlink:href="#DejaVuSans-4c" x="1224.224609"/>
      <use xlink:href="#DejaVuSans-45" x="1279.9375"/>
      <use xlink:href="#DejaVuSans-44" x="1343.121094"/>
     </g>
    </g>
    <g id="patch_66">
     <path d="M 1178.328125 160.838438 
L 1198.328125 160.838438 
L 1198.328125 153.838438 
L 1178.328125 153.838438 
z
" style="fill: #0000ff"/>
    </g>
    <g id="text_88">
     <!-- COMMAND_SESSION_FAILED_SETUP -->
     <g transform="translate(1206.328125 160.838438)scale(0.1 -0.1)">
      <defs>
       <path id="DejaVuSans-55" d="M 556 4666 
L 1191 4666 
L 1191 1831 
Q 1191 1081 1462 751 
Q 1734 422 2344 422 
Q 2950 422 3222 751 
Q 3494 1081 3494 1831 
L 3494 4666 
L 4128 4666 
L 4128 1753 
Q 4128 841 3676 375 
Q 3225 -91 2344 -91 
Q 1459 -91 1007 375 
Q 556 841 556 1753 
L 556 4666 
z
" transform="scale(0.015625)"/>
       <path id="DejaVuSans-50" d="M 1259 4147 
L 1259 2394 
L 2053 2394 
Q 2494 2394 2734 2622 
Q 2975 2850 2975 3272 
Q 2975 3691 2734 3919 
Q 2494 4147 2053 4147 
L 1259 4147 
z
M 628 4666 
L 2053 4666 
Q 2838 4666 3239 4311 
Q 3641 3956 3641 3272 
Q 3641 2581 3239 2228 
Q 2838 1875 2053 1875 
L 1259 1875 
L 1259 0 
L 628 0 
L 628 4666 
z
" transform="scale(0.015625)"/>
      </defs>
      <use xlink:href="#DejaVuSans-43"/>
      <use xlink:href="#DejaVuSans-4f" x="69.824219"/>
      <use xlink:href="#DejaVuSans-4d" x="148.535156"/>
      <use xlink:href="#DejaVuSans-4d" x="234.814453"/>
      <use xlink:href="#DejaVuSans-41" x="321.09375"/>
      <use xlink:href="#DejaVuSans-4e" x="389.501953"/>
      <use xlink:href="#DejaVuSans-44" x="464.306641"/>
      <use xlink:href="#DejaVuSans-5f" x="541.308594"/>
      <use xlink:href="#DejaVuSans-53" x="591.308594"/>
      <use xlink:href="#DejaVuSans-45" x="654.785156"/>
      <use xlink:href="#DejaVuSans-53" x="717.96875"/>
      <use xlink:href="#DejaVuSans-53" x="781.445312"/>
      <use xlink:href="#DejaVuSans-49" x="844.921875"/>
      <use xlink:href="#DejaVuSans-4f" x="874.414062"/>
      <use xlink:href="#DejaVuSans-4e" x="953.125"/>
      <use xlink:href="#DejaVuSans-5f" x="1027.929688"/>
      <use xlink:href="#DejaVuSans-46" x="1077.929688"/>
      <use xlink:href="#DejaVuSans-41" x="1126.324219"/>
      <use xlink:href="#DejaVuSans-49" x="1194.732422"/>
      <use xlink:href="#DejaVuSans-4c" x="1224.224609"/>
      <use xlink:href="#DejaVuSans-45" x="1279.9375"/>
      <use xlink:href="#DejaVuSans-44" x="1343.121094"/>
      <use xlink:href="#DejaVuSans-5f" x="1420.123047"/>
      <use xlink:href="#DejaVuSans-53" x="1470.123047"/>
      <use xlink:href="#DejaVuSans-45" x="1533.599609"/>
      <use xlink:href="#DejaVuSans-54" x="1596.783203"/>
      <use xlink:href="#DejaVuSans-55" x="1657.867188"/>
      <use xlink:href="#DejaVuSans-50" x="1731.060547"/>
     </g>
    </g>
    <g id="patch_67">
     <path d="M 1178.328125 175.794688 
L 1198.328125 175.794688 
L 1198.328125 168.794688 
L 1178.328125 168.794688 
z
" style="fill: #008000"/>
    </g>
    <g id="text_89">
     <!-- COMMAND_SESSION_SUCCESS -->
     <g transform="translate(1206.328125 175.794688)scale(0.1 -0.1)">
      <use xlink:href="#DejaVuSans-43"/>
      <use xlink:href="#DejaVuSans-4f" x="69.824219"/>
      <use xlink:href="#DejaVuSans-4d" x="148.535156"/>
      <use xlink:href="#DejaVuSans-4d" x="234.814453"/>
      <use xlink:href="#DejaVuSans-41" x="321.09375"/>
      <use xlink:href="#DejaVuSans-4e" x="389.501953"/>
      <use xlink:href="#DejaVuSans-44" x="464.306641"/>
      <use xlink:href="#DejaVuSans-5f" x="541.308594"/>
      <use xlink:href="#DejaVuSans-53" x="591.308594"/>
      <use xlink:href="#DejaVuSans-45" x="654.785156"/>
      <use xlink:href="#DejaVuSans-53" x="717.96875"/>
      <use xlink:href="#DejaVuSans-53" x="781.445312"/>
      <use xlink:href="#DejaVuSans-49" x="844.921875"/>
      <use xlink:href="#DejaVuSans-4f" x="874.414062"/>
      <use xlink:href="#DejaVuSans-4e" x="953.125"/>
      <use xlink:href="#DejaVuSans-5f" x="1027.929688"/>
      <use xlink:href="#DejaVuSans-53" x="1077.929688"/>
      <use xlink:href="#DejaVuSans-55" x="1141.40625"/>
      <use xlink:href="#DejaVuSans-43" x="1214.599609"/>
      <use xlink:href="#DejaVuSans-43" x="1284.423828"/>
      <use xlink:href="#DejaVuSans-45" x="1354.248047"/>
      <use xlink:href="#DejaVuSans-53" x="1417.431641"/>
      <use xlink:href="#DejaVuSans-53" x="1480.908203"/>
     </g>
    </g>
   </g>
  </g>
 </g>
 <defs>
  <clipPath id="p567a292101">
   <rect x="53.328125" y="22.318125" width="1116" height="271.8"/>
  </clipPath>
 </defs>
</svg>
